<?xml version="1.0" encoding="UTF-8"?>
<svg id="Laag_1" data-name="Laag 1" xmlns="http://www.w3.org/2000/svg" viewBox="0 0 113.39 113.39">
  <defs>
    <style>
      .cls-1 {
        fill: none;
        stroke: #e04873;
        stroke-miterlimit: 10;
        stroke-width: 5.47px;
      }
    </style>
  </defs>
  <path class="cls-1" d="M33.78,58.23c-.82-1.37-1.51-2.81-2.07-4.33.24.49.98,2.05,2.07,4.33Z"/>
  <path class="cls-1" d="M83.36,44.6c0,5.13-1.45,9.92-3.96,13.99-6.52,13.32-13.04,26.63-19.57,39.95-.58.92-1.74,2.43-3.16,2.4-1.41-.04-2.45-1.58-3.03-2.57-2.74-4.67-14.86-29.77-19.86-40.14-1.08-2.28-1.83-3.83-2.07-4.33-1.08-2.9-1.68-6.03-1.68-9.3,0-14.73,11.94-26.66,26.66-26.66s26.66,11.93,26.66,26.66Z"/>
  <circle class="cls-1" cx="56.53" cy="43.69" r="9.73"/>
</svg>