<?xml version="1.0" encoding="UTF-8"?>
<svg id="Laag_1" data-name="Laag 1" xmlns="http://www.w3.org/2000/svg" viewBox="0 0 190 175">
  <defs>
    <style>
      .cls-1 {
        fill: #f6c6d7;
        opacity: .76;
      }

      .cls-1, .cls-2, .cls-3 {
        stroke-width: 0px;
      }

      .cls-2 {
        fill: #df1264;
      }

      .cls-3 {
        fill: #fff;
      }
    </style>
  </defs>
  <rect class="cls-2" x="0" width="190" height="87"/>
  <g>
    <rect class="cls-2" x="0" y="87" width="190" height="88"/>
    <path class="cls-3" d="M20.73,98.73c-2.95.21-3.04,3.41-1.88,5.45,1.46,2.57,4.28,5.31,2.26,8.37-.82,1.24-2.19,1.96-3.01,3.19-.72,1.06-.94,2.34-.78,3.6.39,3.09,3.13,4.5,4.25,7.2.48,1.16,2.38.65,1.9-.52-.42-1.03-.9-1.99-1.63-2.84-.9-1.04-1.91-1.85-2.36-3.2-.41-1.22-.32-2.51.55-3.5.81-.92,1.83-1.59,2.56-2.6,1.36-1.87,1.56-4.06.67-6.18-.5-1.19-1.23-2.25-1.94-3.33-.38-.57-2.39-3.55-.58-3.67,1.26-.09,1.27-2.06,0-1.97h0Z"/>
    <path class="cls-3" d="M21.52,126.47c.34.64.04,1.42-.29,2-.44.77-1.04,1.44-1.49,2.21-1.02,1.77-.87,3.76.02,5.54.24.48.91.61,1.35.35.49-.28.59-.87.35-1.35-.36-.73-.58-1.59-.45-2.41s.67-1.54,1.15-2.22c1.08-1.49,2.02-3.32,1.06-5.12-.6-1.12-2.3-.12-1.7.99h0Z"/>
    <path class="cls-3" d="M24.8,136.04c1.27,0,1.27-1.97,0-1.97s-1.27,1.97,0,1.97h0Z"/>
    <path class="cls-3" d="M29.56,140c1.27,0,1.27-1.97,0-1.97s-1.27,1.97,0,1.97h0Z"/>
    <path class="cls-3" d="M32.44,142.88c1.27,0,1.27-1.97,0-1.97s-1.27,1.97,0,1.97h0Z"/>
    <path class="cls-3" d="M27.11,127.16c1.19-1.75,2.39-3.57,2.89-5.66s.35-4.1-.06-6.11c-.9-4.44-3.28-8.54-3.11-13.17.05-1.27-1.92-1.27-1.97,0-.16,4.19,1.65,7.96,2.75,11.91.58,2.06.99,4.27.59,6.4s-1.61,3.89-2.79,5.63c-.71,1.05.99,2.04,1.7.99h0Z"/>
    <path class="cls-3" d="M26.64,102.27l.47-1.82c.15-.57.42-1.23.43-1.83.01-.71-.53-1.01-1.07-1.3-.39-.22-.78-.46-1.14-.73-1.49-1.14-2.61-2.75-3.17-4.54-.38-1.21-2.28-.69-1.9.52.46,1.47,1.21,2.82,2.21,3.99.47.56,1.01,1.06,1.59,1.51.3.23.6.45.92.65.23.15.74.35.87.49l-.29-.7c-.02-.14-.02.15-.04.22l-.09.36-.23.91-.44,1.73c-.31,1.23,1.58,1.75,1.9.52h0Z"/>
    <path class="cls-3" d="M2.27,113.93c1.8-.99,3.59-1.99,5.39-2.99.38-.21.57-.7.45-1.11-.86-3.03-1.59-6.08-1.3-9.25s1.34-6.24,2.17-9.29c.26-.94-.96-1.67-1.65-.96-4.64,4.79-9.13,9.72-13.52,14.74-.83.95.56,2.35,1.39,1.39,4.39-5.02,8.88-9.95,13.52-14.74l-1.65-.96c-.88,3.23-1.94,6.46-2.24,9.81s.47,6.59,1.37,9.77l.45-1.11c-1.8,1-3.59,2-5.39,2.99-1.11.61-.12,2.31.99,1.7h0Z"/>
    <path class="cls-3" d="M.26,108.61c-.61,1.03-1.25,2.05-1.93,3.04-.34.5-.69.99-1.04,1.47-.19.26-.38.51-.57.76-.08.1-.15.2-.23.3-.06.08-.33.26-.1.2s-.08-.08-.17-.11c-.13-.04-.26-.08-.38-.12-.3-.09-.6-.17-.9-.24-.59-.14-1.2-.23-1.8-.3-1.24-.14-2.46-.07-3.68.11-.53.08-.82.74-.69,1.21.16.56.68.77,1.21.69,1.22-.18,2.51-.17,3.72.04.65.11,1.28.29,1.91.48s1.28.25,1.86-.17c.47-.34.8-.9,1.14-1.36.4-.54.8-1.08,1.18-1.63.77-1.1,1.49-2.23,2.17-3.39.65-1.09-1.05-2.08-1.7-.99H.26Z"/>
    <path class="cls-3" d="M40.68,93.42c-2.91,2.82-8.81,3.28-10.03,7.67-.64,2.33-.23,4.93.32,7.23.26,1.11.55,2.21,1.02,3.25.23.5.49.95.82,1.38.54.72.54,1.11.33,2-.3,1.23,1.6,1.76,1.9.52.24-1,.41-2.07-.14-3.01s-1.17-1.67-1.51-2.76c-.73-2.31-1.31-4.9-.99-7.34s2.42-3.36,4.34-4.3,3.8-1.78,5.33-3.27c.91-.88-.48-2.28-1.39-1.39h0Z"/>
    <path class="cls-3" d="M36,100.51c.34,4.7.87,9.38,1.59,14.03.08.53.74.81,1.21.69.56-.15.77-.69.69-1.21-.68-4.48-1.19-8.99-1.52-13.51-.09-1.26-2.06-1.27-1.97,0h0Z"/>
    <path class="cls-3" d="M37.96,114.21c-3.38,3.75-5.72,8.36-6.68,13.32-.24,1.24,1.66,1.77,1.9.52.9-4.63,3.01-8.95,6.18-12.45.85-.94-.54-2.34-1.39-1.39h0Z"/>
    <path class="cls-3" d="M14,128.36l-3.57-6.77-1.78-3.38c-.41-.78-.76-1.86-1.65-2.21-.84-.33-1.73.2-2.48.55-1.03.48-2.03,1.02-3.01,1.61-1.9,1.14-3.68,2.48-5.33,3.96l1.68.7c.03-1.8.05-3.6.08-5.4.02-1.14.2-2.64-.86-3.41-1.13-.82-2.56.17-3.6.66-1.7.81-3.39,1.62-5.09,2.42-1.14.54-.15,2.24.99,1.7s2.26-1.08,3.39-1.62c.58-.28,2.57-1.58,3.09-1.33.4.19.09,2.73.08,3.21-.02,1.25-.04,2.5-.05,3.76-.01.89,1.07,1.25,1.68.7,1.43-1.27,2.94-2.42,4.57-3.43.79-.49,1.59-.94,2.42-1.36.44-.23.89-.45,1.35-.65.51-.22.37-.31.6.28.73,1.89,1.95,3.71,2.9,5.5l2.9,5.5c.59,1.12,2.29.13,1.7-.99h0Z"/>
    <path class="cls-3" d="M13.88,117.27c-1.4-1.86-3.33-3.23-5.58-3.86-.5-.14-1.09.17-1.21.69s.16,1.06.69,1.21c.24.07.48.14.71.23.11.04.22.08.33.13-.12-.05-.08-.03.02,0,.05.02.1.04.14.07.45.21.89.46,1.3.74.1.07.19.13.29.2.04.03.08.06.13.09-.17-.13-.02-.01.02.02.19.16.38.32.56.49.17.16.34.33.5.51.09.1.17.2.26.3.03.04.07.08.1.12.17.2-.12-.16.04.05.31.41.86.66,1.35.35.41-.26.69-.91.35-1.35h0Z"/>
    <path class="cls-3" d="M13.35,112.86l3.63-2.65c.21-.16.38-.32.45-.59.06-.24.04-.55-.1-.76-.26-.41-.9-.68-1.35-.35l-3.63,2.65c-.21.16-.38.32-.45.59-.06.24-.04.55.1.76.26.41.9.68,1.35.35h0Z"/>
    <path class="cls-3" d="M8.61,148.54c4.07-1.45,5.91-5.68,5.63-9.79s-2.4-8.18-6.59-9c-1.85-.36-3.76.12-5.19,1.35s-2.23,3.32-1.39,5.07c1.71,3.56,7.14,3.17,10.09,1.76,4.18-2,6.28-6.73,5.92-11.21-.1-1.25-2.07-1.27-1.97,0,.24,2.95-.62,5.99-2.81,8.07-2,1.9-5.14,2.78-7.79,1.82-1.51-.55-2.32-1.83-1.38-3.31.76-1.19,2.24-1.82,3.62-1.69,3.21.29,5.01,3.48,5.42,6.36.49,3.36-.59,7.44-4.1,8.68-1.19.42-.67,2.33.52,1.9h0Z"/>
    <path class="cls-3" d="M-4.36,126.96c-.76,5.5.77,11.02,4.27,15.33.8.98,2.19-.42,1.39-1.39-3.01-3.7-4.42-8.69-3.76-13.41.07-.53-.13-1.05-.69-1.21-.46-.13-1.14.16-1.21.69h0Z"/>
    <path class="cls-3" d="M1.76,127.67s.14-.18.04-.06c-.09.11,0,0,.02-.03.06-.07.13-.15.19-.22.13-.14.28-.27.43-.39.17-.14-.13.09-.02.02.04-.02.07-.05.1-.08.08-.06.16-.11.24-.16.18-.11.36-.2.54-.28.12-.06-.18.07-.06.02.05-.02.1-.04.15-.06.09-.03.18-.06.28-.09.19-.05.38-.09.57-.13.13-.03-.2.02-.07,0,.05,0,.11-.01.16-.02.1,0,.19-.01.29-.01.2,0,.41,0,.61.03.51.06,1.01-.5.98-.98-.03-.58-.43-.92-.98-.98-2.02-.24-4.02.78-5.18,2.42-.3.42-.09,1.11.35,1.35.51.27,1.03.1,1.35-.35h0Z"/>
    <path class="cls-3" d="M-5.54,142.25c1.34,2.4,2.83,4.7,4.47,6.91l.15-1.19c-3.45,3.66-6.32,7.81-8.49,12.34l1.84.5c-.29-3.6-.58-7.2-.88-10.8l-.21-2.61c-.04-.5-.08-.99-.12-1.49,0-.09,0-.75-.11-.55.13-.24.9-.5,1.14-.63.31-.17.63-.34.94-.51.83-.46,1.67-.91,2.5-1.37,1.11-.61.12-2.31-.99-1.7-.83.46-1.67.91-2.5,1.37-.74.41-1.61.76-2.27,1.29-.57.46-.74,1.03-.71,1.74.03,1.05.17,2.11.26,3.17.33,4.03.65,8.07.98,12.1.07.88,1.38,1.46,1.84.5,2.1-4.39,4.84-8.41,8.18-11.95.27-.29.42-.84.15-1.19-1.64-2.2-3.13-4.51-4.47-6.91-.62-1.11-2.32-.12-1.7.99h0Z"/>
    <path class="cls-3" d="M4.19,143.85c.41,2.05-.74,3.98-1.82,5.63s-2.26,3.31-2.64,5.26c-.65,3.34.89,6.79,3.76,8.6,1.07.68,2.06-1.02.99-1.7-2.89-1.83-3.64-5.5-2.1-8.45,1.66-3.19,4.5-5.96,3.71-9.87-.25-1.24-2.15-.72-1.9.52h0Z"/>
    <path class="cls-3" d="M21.56,139.08c1.25,1.86,2.63,3.64,4.15,5.29.78.84,1.59,1.65,2.44,2.43.4.36.8.72,1.22,1.07.38.32,1.13.74,1.33,1.21.19.43.06,1.16.08,1.62.02.58.06,1.15.11,1.73.11,1.17.28,2.33.51,3.48.5,2.43,1.32,4.76,2.36,7,.54,1.15,2.23.15,1.7-.99-1.07-2.28-1.84-4.69-2.29-7.17-.23-1.26-.37-2.54-.42-3.83-.04-.95.11-2.05-.39-2.91-.46-.8-1.39-1.33-2.07-1.93-.87-.75-1.7-1.54-2.5-2.37-1.68-1.74-3.19-3.62-4.54-5.63-.7-1.05-2.41-.06-1.7.99h0Z"/>
    <path class="cls-3" d="M25.99,152.37c-.94-1.39-2.11-2.56-3.5-3.49-.69-.46-1.43-.84-2.2-1.16-.34-.14-.69-.27-1.05-.38s-.78-.16-1.14-.31l.43.25.03.02.13.5c-.02-.36.1-.76.16-1.11.07-.45.15-.89.22-1.34.15-.89.29-1.78.44-2.68.09-.52-.14-1.06-.69-1.21-.47-.13-1.13.16-1.21.69-.25,1.51-.49,3.02-.74,4.53-.11.7-.33,1.45.27,1.99.45.41,1.24.45,1.8.64,2.16.71,4.08,2.17,5.35,4.05.71,1.04,2.41.06,1.7-.99h0Z"/>
    <path class="cls-3" d="M21.93,146.53c1.27,0,1.27-1.97,0-1.97s-1.27,1.97,0,1.97h0Z"/>
    <path class="cls-3" d="M24.74,149.17c1.27,0,1.27-1.97,0-1.97s-1.27,1.97,0,1.97h0Z"/>
    <path class="cls-3" d="M27.72,151.81c1.27,0,1.27-1.97,0-1.97s-1.27,1.97,0,1.97h0Z"/>
    <path class="cls-3" d="M29.4,164.11c-.44-2.24-.94-4.55-2.36-6.4s-3.43-2.83-5.65-2.93-4.39.87-5.83,2.5c-1.54,1.75-2.09,4.07-2.22,6.35-.12,1.97.32,4.22,2.58,4.66,2.06.4,3.78-1.1,4.57-2.86,1.02-2.26,1.41-5.01,1.5-7.47.08-2.14-.32-4.43-1.92-5.99-4.12-4.04-9.97-.66-14.29.97-1.17.44-.67,2.35.52,1.9,3.11-1.18,6.38-3.31,9.85-2.68,3.94.71,4.13,4.6,3.67,7.87-.24,1.71-.51,3.86-1.52,5.31-.43.62-1.2,1.18-2,1.03-.94-.17-1.02-1.26-1.02-2.04,0-3.43,1.52-7.26,5.43-7.56,1.95-.15,3.89.82,4.98,2.43s1.44,3.58,1.8,5.44c.24,1.24,2.14.72,1.9-.52h0Z"/>
    <path class="cls-3" d="M114.9,98.11c-2.75-2.28-5.51-4.54-8.27-6.81-.67-.55-1.34-1.11-2.01-1.66-.57-.47-1.15-1.1-1.83-1.39-1.32-.57-2.44.62-3.4,1.37-1.37,1.07-2.72,2.17-4.03,3.32-.62.55-1.24,1.1-1.85,1.66-.81.75-1.12,1-2.19.6-3.22-1.2-6.04-3.24-8.18-5.93-.41-.51-1.14-.23-1.45.19-2.56,3.43-6.2,5.86-10.24,7.19l1.04.42c-1.27-2.58-2.91-4.93-4.87-7.03-.46-.5-1.39-.26-1.54.41-.58,2.53-1.62,4.8-3.07,6.95-1.18,1.75-2.4,3.5-2.41,5.69,0,1.19,1.84,1.19,1.85,0,0-2.23,1.71-3.99,2.82-5.78,1.22-1.97,2.07-4.12,2.58-6.37l-1.54.41c1.86,1.99,3.39,4.21,4.59,6.66.17.35.68.55,1.04.42,4.53-1.5,8.48-4.21,11.34-8.04l-1.45.19c2.01,2.53,4.63,4.52,7.58,5.83,1.05.47,2.54,1.32,3.7.87,1.26-.49,2.36-1.99,3.36-2.87,1.31-1.15,2.65-2.26,4.02-3.33.35-.28.84-.85,1.29-.97.47-.14.79.27,1.16.54.76.56,1.47,1.21,2.19,1.81,2.82,2.32,5.64,4.64,8.45,6.96.91.75,2.22-.55,1.31-1.31h0Z"/>
    <path class="cls-3" d="M72.86,91.48c-2.76-4.82-9.08-6.58-14.11-4.52-2.53,1.04-4.66,2.91-5.73,5.46-1.17,2.81-.89,5.92-.29,8.83l.89-1.17c-5.29-.39-9.29,3.84-10,8.84-.33,2.32.03,4.81,1.52,6.69s3.82,2.9,6.18,2.7c1.18-.1,1.19-1.95,0-1.85-4.46.39-6.56-3.95-5.78-7.83s3.92-7,8.08-6.69c.64.05,1.01-.63.89-1.17-.49-2.38-.75-4.9.05-7.24s2.69-3.98,4.89-4.86c4.2-1.7,9.48-.27,11.79,3.76.59,1.03,2.19.1,1.6-.93h0Z"/>
    <path class="cls-3" d="M50.32,116.71c-3.83,1.97-7.24,5.25-7.19,9.84.05,4.24,2.91,8.05,7.1,8.97,2.37.52,4.88.17,6.96-1.09,1.08-.65.1-2.36-.99-1.7-3.87,2.33-9.21.63-10.68-3.73-.69-2.04-.55-4.28.56-6.14,1.19-2.02,3.19-3.39,5.24-4.44,1.13-.58.13-2.28-.99-1.7h0Z"/>
    <path class="cls-3" d="M56.18,129.41c3.06-3,6.27-6.24,7.32-10.55.9-3.68-.12-7.72-3.34-9.93-1.05-.72-2.03.99-.99,1.7,2.79,1.92,3.16,5.65,2.16,8.64-1.18,3.53-3.96,6.21-6.55,8.75-.91.89.49,2.28,1.39,1.39h0Z"/>
    <path class="cls-3" d="M56.32,102.34c-2.09.12-4,1.32-5.06,3.13-1.14,1.94-1.18,4.42-.32,6.47.21.49.65.84,1.21.69.46-.13.9-.72.69-1.21-.65-1.54-.77-3.35.06-4.84.7-1.26,2.03-2.18,3.42-2.26.53-.03.98-.43.98-.98,0-.51-.45-1.02-.98-.98h0Z"/>
    <path class="cls-3" d="M70.19,103.73c1.71,7.53-.22,15.34-2.99,22.38-.69,1.76-1.51,3.48-2.58,5.04s-2.36,2.78-3.61,4.11c-2.27,2.43-4.37,5.31-4.11,8.81.09,1.26,2.06,1.27,1.97,0-.29-3.96,2.92-6.68,5.35-9.33s4.07-5.89,5.34-9.34c2.6-7.06,4.22-14.72,2.53-22.19-.28-1.24-2.18-.71-1.9.52h0Z"/>
    <path class="cls-3" d="M56.78,144.65c.36,2.1,1.77,3.98,3.64,4.98,1.99,1.07,4.28,1.05,6.29.06s3.46-2.92,3.81-5.14c.39-2.45-.15-5.3-1.34-7.49-1.26-2.31-3.83-3.94-6.5-3.25-1.23.32-.71,2.22.52,1.9,2.39-.62,4.16,1.6,4.82,3.62.73,2.2,1.14,5.01-.31,7.01-1.15,1.58-3.27,2.49-5.19,2.01-2.02-.5-3.51-2.2-3.85-4.23-.21-1.25-2.11-.72-1.9.52h0Z"/>
    <path class="cls-3" d="M39.32,119.29c-2.35,5.21-4.2,11.51-1.04,16.82,2.91,4.89,8.86,5.72,14.05,5.1,1.24-.15,1.26-2.12,0-1.97-4.45.53-9.81.14-12.34-4.13-2.77-4.65-1.01-10.28,1.04-14.83.52-1.15-1.18-2.15-1.7-.99h0Z"/>
    <path class="cls-3" d="M74.69,145.54c-.06,2.75-1.23,5.39-3.32,7.2s-4.72,2.54-7.24,3.31-5.02,1.7-7.37,2.95-5.17,2.94-7.01,5.07c-1.44,1.67-2.28,4.12-1.1,6.18s3.79,2.55,5.94,2.16,4.23-1.76,5.25-3.68c1.29-2.43.36-5.19-.52-7.59-2.35-6.37-6.97-12.67-5.9-19.79.19-1.24-1.71-1.77-1.9-.52-.78,5.21,1.07,10.08,3.22,14.74,1.2,2.59,2.46,5.16,3.29,7.9.37,1.24.76,2.61.29,3.88-.4,1.09-1.31,1.93-2.31,2.48-1.81,1-5.63,1.34-5.94-1.49-.3-2.65,2.91-4.64,4.77-5.88,2.2-1.47,4.59-2.71,7.08-3.61,2.19-.79,4.47-1.34,6.63-2.22,4.71-1.92,8.01-5.88,8.13-11.1.03-1.27-1.94-1.27-1.97,0h0Z"/>
    <path class="cls-3" d="M45.4,144.06c-.06,5.87,2.1,11.59,5.98,15.97.84.95,2.23-.45,1.39-1.39-3.54-4-5.47-9.24-5.41-14.58.01-1.27-1.96-1.27-1.97,0h0Z"/>
    <path class="cls-3" d="M43.08,142.89c-1.09.08-2.19.05-3.27-.1l.26.04c-.07,0-.14-.02-.2-.03-.27-.04-.51-.05-.76.1-.2.12-.4.35-.45.59-.06.25-.04.54.1.76.13.2.34.42.59.45,1.24.18,2.48.25,3.73.16.51-.04,1.01-.43.98-.98-.02-.5-.43-1.02-.98-.98h0Z"/>
    <path class="cls-3" d="M42.75,146.67c-1.38.04-2.75.31-4.02.82-.25.1-.45.21-.59.45-.12.21-.18.52-.1.76.15.46.7.89,1.21.69.59-.24,1.19-.42,1.81-.56.15-.03.3-.06.45-.09.08-.01.16-.03.24-.04.24-.04-.23.02.02,0,.33-.04.65-.06.98-.07.51-.02,1.01-.44.98-.98s-.43-1-.98-.98h0Z"/>
    <path class="cls-3" d="M43.41,150.34c-1.54-.12-3.1.24-4.46.96-.46.24-.63.91-.35,1.35.3.46.86.61,1.35.35.14-.08.29-.15.44-.22.04-.02.08-.04.13-.06-.13.05-.14.06-.04.02.07-.02.13-.05.2-.07.32-.11.64-.21.97-.28.08-.02.16-.03.24-.05.03,0,.31-.05.14-.02s.12-.01.15-.01c.08,0,.16-.01.24-.02.34-.02.67-.02,1.01,0,.51.04,1.01-.48.98-.98-.03-.57-.43-.94-.98-.98h0Z"/>
    <path class="cls-3" d="M44.4,154.6c-1.22.55-2.37,1.22-3.46,2.01-.21.15-.38.33-.45.59-.06.24-.04.55.1.76.27.41.9.68,1.35.35,1.08-.78,2.24-1.45,3.46-2.01.21-.1.39-.37.45-.59.06-.24.04-.55-.1-.76s-.34-.4-.59-.45c-.27-.06-.51-.02-.76.1h0Z"/>
    <path class="cls-3" d="M46.26,158.8c-.87.89-1.74,1.78-2.61,2.67-.36.37-.4,1.03,0,1.39s1.01.39,1.39,0c.87-.89,1.74-1.78,2.61-2.67.36-.37.4-1.03,0-1.39s-1.01-.39-1.39,0h0Z"/>
    <path class="cls-3" d="M26.31,130.87c2.43,4.24,6.05,7.68,10.43,9.85l-.45-1.11c-3.41,10.05,1.24,20.24,7.29,28.19.76,1,2.47.02,1.7-.99-5.74-7.54-10.34-17.1-7.09-26.67.13-.39-.08-.93-.45-1.11-4.1-2.03-7.45-5.17-9.72-9.14-.63-1.1-2.33-.11-1.7.99h0Z"/>
    <path class="cls-3" d="M77.27,107.39c2.07-.05,3.91,1.06,5.9,1.47s4.05.28,5.95-.39c3.6-1.28,6.3-4.38,7.11-8.11.27-1.24-1.63-1.76-1.9-.52-.74,3.38-3.22,6.12-6.59,7-1.74.45-3.51.35-5.22-.18s-3.4-1.27-5.25-1.23c-1.27.03-1.27,2,0,1.97h0Z"/>
    <path class="cls-3" d="M81.5,96.57l.25,3.15c.02.26.1.5.29.7.17.17.45.3.7.29.5-.02,1.03-.43.98-.98l-.25-3.15c-.02-.26-.1-.5-.29-.7-.17-.17-.45-.3-.7-.29-.5.02-1.03.43-.98.98h0Z"/>
    <path class="cls-3" d="M76.91,98.46v2.31c0,.25.11.52.29.7s.45.3.7.29c.53-.02.98-.43.98-.98v-2.31c0-.25-.11-.52-.29-.7s-.45-.3-.7-.29c-.53.02-.98.43-.98.98h0Z"/>
    <path class="cls-3" d="M103.49,96.53c-3.03,2.62-4.94,6.9-3.72,10.89,1.11,3.61,4.53,6.34,8.38,5.96,2.21-.22,4.25-1.22,6.15-2.31s3.6-2.31,4.94-3.97,2.06-3.72,2.35-5.87c.31-2.26.41-4.67-.2-6.89-1.14-4.18-5.17-7.08-9.47-7.02-1.27.02-1.27,1.99,0,1.97,3.05-.04,6.02,1.75,7.23,4.59.71,1.65.76,3.5.66,5.28-.1,1.88-.36,3.83-1.28,5.5-1.63,2.94-5.12,5-8.18,6.17-3.29,1.26-6.63.33-8.27-2.92-1.78-3.53.01-7.58,2.8-9.99.96-.83-.44-2.22-1.39-1.39h0Z"/>
    <path class="cls-3" d="M106.61,102.55c.67,1.31,2,2.34,3.46,2.6,1.62.29,3.28-.2,4.46-1.35.38-.37.37-1.02,0-1.39s-1.01-.37-1.39,0c-.35.34-.76.59-1.21.72-.14.04-.29.08-.43.11-.06.01-.14.02-.03.01-.08.01-.16.02-.25.02-.15,0-.3,0-.45,0-.07,0-.13,0-.2-.02.14.02-.02,0-.07-.02-.12-.03-.24-.06-.36-.09-.07-.02-.15-.05-.22-.08-.06-.02-.12-.05-.03,0-.26-.12-.5-.26-.73-.43.08.06.02.02-.02-.02-.06-.05-.12-.1-.17-.16-.09-.09-.18-.18-.26-.27-.04-.04-.13-.17-.05-.06-.04-.05-.07-.1-.11-.15-.09-.13-.16-.27-.23-.41-.24-.47-.91-.61-1.35-.35-.48.28-.6.87-.35,1.35h0Z"/>
    <path class="cls-3" d="M139.69,93c.1,1.79-.07,3.54-.56,5.26-.44,1.54-1.03,3.03-1.18,4.63-.19,2.15.75,4.73,2.92,5.53.61.23,1.25.27,1.89.26.7,0,1.62-.23,2.25.17,1.15.72,1.57,3.02,1.74,4.26.42,2.96-.35,5.94-2.04,8.37-.73,1.04.98,2.03,1.7.99,1.64-2.36,2.49-5.22,2.41-8.1-.06-2.34-.69-6.11-2.99-7.32-1.35-.71-2.83,0-4.19-.46-1.29-.44-1.78-2.02-1.75-3.26.04-1.72.83-3.35,1.25-5,.45-1.75.6-3.55.51-5.35-.07-1.26-2.04-1.27-1.97,0h0Z"/>
    <path class="cls-3" d="M132.39,93.15c-2.27,5.2-3.38,11.08-1.84,16.65,1.29,4.65,4.41,8.84,8.82,10.93,1.14.54,2.14-1.16.99-1.7-3.97-1.89-6.74-5.55-7.91-9.76-1.4-5.03-.42-10.43,1.64-15.14.5-1.15-1.19-2.15-1.7-.99h0Z"/>
    <path class="cls-3" d="M117.34,115.07c1.65-.73,3.11-1.76,4.37-3.06l-1.83-.48c.4,1.41.8,2.82,1.2,4.23.35,1.23.55,2.67,1.15,3.8.52,1,1.47,1.18,2.49.95,1.38-.31,2.74-.74,4.11-1.11l-1.39-1.06c-.02,1.35.12,2.71.46,4.03.25.97.55,2.26,1.42,2.87.99.7,2.17.3,3.24.02,1.42-.38,2.84-.77,4.26-1.15l-1.39-1.06c.21,2.61.42,5.22.63,7.83.11,1.4,2.3,1.41,2.19,0-.21-2.61-.42-5.22-.63-7.83-.06-.7-.66-1.25-1.39-1.06-.9.24-1.81.49-2.71.73-.52.14-1.03.28-1.55.42-.33.09-.89.36-1.24.29-.52-.1-.74-1.69-.85-2.2-.2-.96-.27-1.92-.25-2.89.01-.72-.71-1.24-1.39-1.06-1,.27-1.99.54-2.99.81-.14.04-1.15.38-1.12.39-.16-.06-.35-1.21-.4-1.39-.58-2.05-1.16-4.1-1.74-6.15-.22-.78-1.25-1.08-1.83-.48-1.14,1.17-2.43,2.06-3.92,2.71-1.29.57-.17,2.46,1.11,1.89h0Z"/>
    <path class="cls-3" d="M149.46,125.63c-2.08-.55-5.22-.69-5.8,2.05-.25,1.21.52,2.26,1.1,3.25.75,1.28,1.5,2.57,2.25,3.85l.85-1.48c-1.72.04-3.44.27-5.11.71-1.21.32-3.21.72-3.98,1.8-.95,1.33.47,2.76,1.18,3.82.49.73.96,1.47,1.41,2.22.23.38.45.75.66,1.13.17.3.62.86.59,1.22l.29-.7.17-.08c-.17,0-.34.02-.51.02-.29,0-.57.02-.86.02-.52,0-1.03,0-1.55-.03-1.11-.05-2.22-.15-3.32-.32-.85-.13-1.91-.54-2.76-.26s-1.22,1.1-1.03,1.92c.29,1.23,2.19.71,1.9-.52-.15.37-.09.55.19.55.17.03.34.07.51.1.28.05.56.1.85.14.54.08,1.08.15,1.62.21,1.2.13,2.4.19,3.6.18.85,0,2.09.16,2.67-.64.65-.9-.2-2.02-.65-2.81-.54-.95-1.11-1.89-1.71-2.8-.33-.5-.67-1-1.01-1.5-.09-.13-.45-.47-.45-.64,0-.27.08-.23.36-.35,2.2-.92,4.57-1.37,6.94-1.43.74-.02,1.24-.82.85-1.48-.95-1.62-1.92-3.22-2.84-4.86-.37-.66-.38-1.21.39-1.57.82-.38,1.85-.04,2.67.17,1.23.32,1.75-1.58.52-1.9h0Z"/>
    <path class="cls-3" d="M130.89,138.66c1.05-5.49-1.44-10.9-5.31-14.73-4.23-4.18-9.87-6.49-15.2-8.89-1.15-.52-2.15,1.18-.99,1.7,4.86,2.19,9.99,4.26,14.02,7.85,3.75,3.34,6.58,8.4,5.59,13.54-.24,1.24,1.66,1.77,1.9.52h0Z"/>
    <path class="cls-3" d="M98.35,111.19s-.05-.06-.07-.09l.15.2c-.55-.72-1.01-1.5-1.36-2.33l.1.24c-.1-.24-.19-.48-.27-.72-.16-.49-.69-.86-1.21-.69-.48.16-.86.69-.69,1.21.44,1.31,1.1,2.49,1.95,3.57.15.18.47.29.7.29.24,0,.53-.11.7-.29s.3-.43.29-.7c-.01-.28-.12-.48-.29-.7h0Z"/>
    <path class="cls-3" d="M91.35,111.75c3.07,4.08,6.4,7.94,10,11.56.9.9,2.29-.49,1.39-1.39-3.48-3.5-6.72-7.22-9.69-11.16-.32-.42-.85-.64-1.35-.35-.42.24-.67.92-.35,1.35h0Z"/>
    <path class="cls-3" d="M87.13,111.77c-3.2,2.31-6.94,3.65-10.89,3.85-.58.03-.92.43-.98.98-.7,5.88-1.49,11.96-4.75,17.05-.69,1.07,1.02,2.06,1.7.99,3.45-5.39,4.27-11.82,5.01-18.04l-.98.98c4.28-.21,8.4-1.61,11.88-4.12,1.02-.73.04-2.44-.99-1.7h0Z"/>
    <path class="cls-3" d="M77.4,141.14c3.05-6.15,6.07-12.6,5.07-19.65-.18-1.25-2.07-.72-1.9.52.91,6.44-2.1,12.54-4.88,18.13-.56,1.13,1.14,2.13,1.7.99h0Z"/>
    <path class="cls-3" d="M88.51,119.27c-.4,6.08-.83,12.16-1.21,18.24-.14,2.2-.17,4.57,1.23,6.42,1.29,1.7,3.4,2.42,5.4,2.86,3.98.88,9.06,1.36,10.85-3.23s.53-9.68-1.77-13.71c-2.9-5.07-7.68-8.66-12.36-11.97-1.04-.73-2.02.97-.99,1.7,6.76,4.78,14.85,11.37,13.9,20.65-.21,2.02-.87,4.26-2.99,4.95-1.77.58-3.81.18-5.59-.19s-4-.84-5.07-2.51c-1.13-1.77-.69-4.24-.56-6.21.38-5.67.75-11.34,1.13-17,.08-1.27-1.89-1.26-1.97,0h0Z"/>
    <path class="cls-3" d="M103.93,116.86c4.75,6.53,10.13,12.56,16.09,18l.96-1.65c-4.94-.98-9.93-1.74-14.94-2.3-.73-.08-1.24.9-.85,1.48,4.62,6.87,9.4,13.64,14.33,20.3l1.11-1.45c-5.08-1.8-10.31-3.12-15.64-3.95-1.24-.19-1.77,1.7-.52,1.9,5.33.83,10.56,2.15,15.64,3.95.77.27,1.62-.76,1.11-1.45-4.93-6.66-9.71-13.43-14.33-20.3l-.85,1.48c4.83.54,9.64,1.29,14.41,2.23.9.18,1.74-.94.96-1.65-5.84-5.32-11.14-11.21-15.79-17.61-.74-1.02-2.45-.03-1.7.99h0Z"/>
    <path class="cls-3" d="M115.87,140.3c2.95.47,5.95-.39,8.17-2.42.39-.36.36-1.03,0-1.39-.39-.39-1-.36-1.39,0-1.66,1.52-4.1,2.25-6.25,1.91-.52-.08-1.06.13-1.21.69-.13.47.16,1.13.69,1.21h0Z"/>
    <path class="cls-3" d="M119.89,145.33c2.67.3,5.36-.6,7.4-2.32.41-.34.35-1.04,0-1.39-.4-.4-.99-.34-1.39,0-1.63,1.38-3.81,1.99-6.01,1.75-.53-.06-.98.5-.98.98,0,.58.45.93.98.98h0Z"/>
    <path class="cls-3" d="M124.31,151.5c3.53.13,7.45,0,10.16-2.57.92-.87-.47-2.26-1.39-1.39-2.29,2.17-5.82,2.1-8.77,1.99-1.27-.05-1.27,1.92,0,1.97h0Z"/>
    <path class="cls-3" d="M146.79,93c-.14,1.74-.63,3.42-1.46,4.95-.32.58-.02,1.24.59,1.45,2.53.85,4.34,3.33,4.43,5.99.04,1.26,2.01,1.27,1.97,0-.12-3.56-2.5-6.75-5.87-7.89l.59,1.45c1-1.85,1.55-3.85,1.72-5.95.1-1.26-1.87-1.26-1.97,0h0Z"/>
    <path class="cls-3" d="M150.46,106.54c2,2.01,2.31,4.91,2.03,7.61-.32,3.05-1.17,6.1-2.04,9.04-.36,1.22,1.54,1.74,1.9.52.98-3.31,1.94-6.78,2.17-10.23.2-3.01-.49-6.14-2.67-8.33-.9-.9-2.29.49-1.39,1.39h0Z"/>
    <path class="cls-3" d="M144.47,103.64c1.27,0,1.27-1.97,0-1.97s-1.27,1.97,0,1.97h0Z"/>
    <path class="cls-3" d="M154.27,93c.17,2.06.05,4.08-.37,6.06-.11.5.15,1.09.69,1.21.5.11,1.1-.15,1.21-.69.46-2.16.63-4.38.45-6.58-.04-.51-.42-1.01-.98-.98-.5.02-1.03.44-.98.98h0Z"/>
    <path class="cls-3" d="M152.97,133.95c3.3-.92,6.18-3.32,7.25-6.64.53-1.64.41-3.27,0-4.92-.54-2.19-1.33-4.37.88-5.87,1.34-.91,2.88-1.6,3.52-3.21.68-1.72.05-3.59-.82-5.12-1-1.75-2.92-3.45-3.06-5.57s2.08-3.58,3.43-4.95,2.58-3.22,2.05-5.17-2.52-2.85-4.29-3.39c-1.13-.34-1.61,1.42-.49,1.76,1.72.52,3.74,1.53,2.8,3.65-.75,1.68-2.44,2.73-3.64,4.06-1,1.11-1.77,2.43-1.7,3.97.07,1.69,1.01,3.18,1.95,4.53s2.41,3.08,2.23,4.91-2.32,2.44-3.54,3.41c-3.1,2.46-1.1,5.77-.79,8.93.36,3.8-2.84,6.9-6.26,7.85-1.13.32-.65,2.08.49,1.76h0Z"/>
    <path class="cls-3" d="M165.89,101.54h1.89c.25,0,.52-.11.7-.29s.3-.45.29-.7-.1-.52-.29-.7-.43-.29-.7-.29h-1.89c-.25,0-.52.11-.7.29s-.3.45-.29.7.1.52.29.7.43.29.7.29h0Z"/>
    <path class="cls-3" d="M191.21,115.89c.1-4.09.05-8.18-.14-12.26-.03-.72-.82-1.26-1.48-.85-3.09,1.9-6.18,3.8-9.26,5.7l1.48.85c.45-5.69.65-11.39.57-17.09,0-.71-.84-1.28-1.48-.85-3.33,2.25-7.21,3.5-11.22,3.66-1.26.05-1.27,2.02,0,1.97,4.35-.17,8.6-1.48,12.22-3.92l-1.48-.85c.08,5.7-.12,11.4-.57,17.09-.06.75.88,1.22,1.48.85,3.08-1.9,6.17-3.8,9.26-5.7l-1.48-.85c.19,4.08.24,8.17.14,12.26-.03,1.27,1.94,1.27,1.97,0h0Z"/>
    <path class="cls-3" d="M198.68,104.34c.3,2.9-.1,5.74-.87,8.54-.71,2.56-1.57,5.4-3.55,7.29s-4.71,2.34-6.83.52-2.43-4.73-2.1-7.35c.08-.66-.69-1.09-1.25-.95-3.09.79-7.34,1.54-8.5-2.38-.98-3.31-.94-6.91-.21-10.26.27-1.24-1.63-1.76-1.9-.52-.48,2.21-.7,4.47-.55,6.74.13,1.99.39,4.24,1.33,6.02,2.04,3.87,6.84,3.2,10.35,2.31l-1.25-.95c-.39,3.07.18,6.43,2.54,8.62,2.22,2.06,5.31,2.42,7.96.94,2.83-1.59,4.28-4.6,5.26-7.56,1.17-3.54,1.92-7.27,1.53-11-.13-1.25-2.1-1.26-1.97,0h0Z"/>
    <path class="cls-3" d="M167.36,118.34c1.27,0,1.27-1.97,0-1.97s-1.27,1.97,0,1.97h0Z"/>
    <path class="cls-3" d="M175.97,119.18c1.27,0,1.27-1.97,0-1.97s-1.27,1.97,0,1.97h0Z"/>
    <path class="cls-3" d="M181.59,122.37c.97.51,1.91,1.08,2.8,1.71.22.16.44.32.65.48.05.03.11.08.03.02.05.04.1.08.15.12.11.09.22.18.33.27.43.35.84.72,1.25,1.1.38.35,1.03.4,1.39,0s.4-1.02,0-1.39c-1.68-1.58-3.57-2.94-5.61-4.01-.46-.24-1.09-.13-1.35.35-.24.45-.13,1.09.35,1.35h0Z"/>
    <path class="cls-3" d="M192.48,124.63l-3.97,4.43c-.34.38-.41,1.02,0,1.39.38.34,1.03.41,1.39,0,1.32-1.48,2.65-2.95,3.97-4.43.34-.38.41-1.02,0-1.39-.38-.34-1.03-.41-1.39,0h0Z"/>
    <path class="cls-3" d="M198.98,146.34c.11-2.05.12-4.1.01-6.15-.1-1.85-.11-3.99-.78-5.75-1.07-2.77-4.27-3.82-6.99-3.06-1.6.45-2.99,1.41-4.19,2.53-.37.34-1.32,1.71-1.91,1.5-.64-.23-.9-1.61-1.05-2.15-.8-3.02-1.84-6.2-4.48-8.12-3.05-2.22-7.1-2.03-10.6-1.2-1.23.29-.71,2.19.52,1.9,3.84-.91,8.38-.85,10.72,2.86,1.06,1.68,1.49,3.58,2.03,5.46.38,1.34,1.15,3.04,2.72,3.27,1.77.25,2.9-1.74,4.11-2.7,1.55-1.24,3.57-2.1,5.53-1.32,2.23.89,2.17,3.57,2.32,5.61.18,2.44.2,4.89.06,7.33-.07,1.27,1.9,1.26,1.97,0h0Z"/>
    <path class="cls-3" d="M164.83,129.1c-3.7,2.34-6.08,6.59-5.36,11.01.34,2.07,1.35,4.09,2.9,5.52,1.68,1.56,3.86,2.31,6.1,2.61s4.4.29,6.41-.55,3.39-2.58,4.07-4.66c.72-2.2,1.01-4.85.57-7.13s-1.97-4.13-3.69-5.59c-1.9-1.61-4.21-2.87-6.76-2.94-2.36-.06-4.58.93-6,2.82-.76,1.01.95,1.99,1.7.99,2.29-3.03,6.63-1.81,9.16.12,1.4,1.06,2.81,2.45,3.42,4.14.67,1.84.4,4.06,0,5.94-.38,1.72-1.11,3.38-2.73,4.27-1.49.81-3.29.88-4.94.75-3.69-.28-7-1.96-8.08-5.72s.94-7.8,4.22-9.87c1.07-.68.08-2.38-.99-1.7h0Z"/>
    <path class="cls-3" d="M154.12,143.58c2.58,7.68,11.12,9.66,18.33,9.65,2.15,0,4.38-.11,6.44-.81,1.83-.63,3.45-1.67,5.15-2.57,4.2-2.23,8.52-1.62,12.67.43,1.13.56,2.13-1.14.99-1.7-3.35-1.66-7.13-2.73-10.87-1.93-3.97.86-6.94,3.93-11.04,4.44-6.92.86-17.17-.29-19.77-8.04-.4-1.2-2.3-.68-1.9.52h0Z"/>
    <path class="cls-3" d="M153.38,137.1c.05,3.38-1.53,6.6-4.29,8.56-.46.33-.6.83-.35,1.35.62,1.31,1.14,2.66,1.55,4.05.3,1.01,1.35,3.53.3,4.23-.79.53-1.87.69-2.7,1.19-.88.52-1.7,1.18-2.39,1.92-2.77,2.96-3.97,7.25-2.83,11.17l.45-1.11c-1.49.74-3.36-.14-4.96.3-1.4.38-2.24,1.48-2.78,2.76-.64,1.52-.91,3.3-2.67,3.92-1.98.7-4.11-.25-5.92-1-1.17-.49-1.68,1.42-.52,1.9,3.38,1.4,8.07,2.38,10.01-1.7.61-1.28.83-3.5,2.4-3.98.92-.28,1.99.02,2.92.03s1.7-.13,2.51-.53c.38-.19.57-.72.45-1.11-1.23-4.22.83-9.08,4.75-11.11,1.79-.93,3.98-1.2,3.68-3.77-.33-2.82-1.35-5.6-2.56-8.15l-.35,1.35c3.34-2.37,5.32-6.16,5.27-10.27-.02-1.27-1.99-1.27-1.97,0h0Z"/>
    <path class="cls-3" d="M135.4,160.59c3.36-3.09,6.52-6.4,9.46-9.89.34-.41.4-.99,0-1.39-.35-.35-1.05-.41-1.39,0-2.94,3.49-6.1,6.79-9.46,9.89-.93.86.46,2.25,1.39,1.39h0Z"/>
    <path class="cls-3" d="M135.92,150.4c-3.75,4.08-8.35,7.35-13.48,9.47-.56.23-.97.85-.59,1.45,1.02,1.6,2.94,2.47,4.51,3.44,1.86,1.15,3.7,2.36,5.58,3.47.86.51,1.53.45,2.27-.21s1.39-1.35,2.04-2.07c1.31-1.47,2.47-3.07,3.48-4.77.65-1.09-1.05-2.08-1.7-.99-.82,1.39-1.74,2.71-2.79,3.93-.53.63-1.09,1.23-1.68,1.81-.07.07-.84.8-.84.8l.36-.11-.27-.17c-.17-.18-.47-.29-.68-.42-1.5-.93-3-1.86-4.49-2.79-.73-.45-1.45-.9-2.18-1.35s-1.44-.84-1.89-1.55l-.59,1.45c5.45-2.25,10.35-5.63,14.35-9.98.86-.93-.53-2.33-1.39-1.39h0Z"/>
    <path class="cls-3" d="M110.23,153.21c-5.07.33-10.36.68-15.21-1.15-4.12-1.55-7.52-4.64-9.62-8.48-.61-1.11-2.31-.12-1.7.99,2.24,4.1,5.83,7.35,10.15,9.13,5.18,2.14,10.91,1.83,16.38,1.47,1.26-.08,1.27-2.05,0-1.97h0Z"/>
    <path class="cls-3" d="M77.75,149.43c-.97,2.65-1.77,5.54-.48,8.23,1.08,2.26,3.56,3.24,5.94,2.7s4.07-2.51,4.44-4.88c.38-2.49-.51-5.14-2.48-6.75-1.08-.88-2.45-1.43-3.86-1.31s-2.72.82-3.53,2.03c-.71,1.05,1,2.04,1.7.99.96-1.43,3-1.27,4.25-.36,1.47,1.07,2.2,2.97,2.03,4.75-.15,1.63-1.15,3.05-2.74,3.53s-3.1-.01-3.9-1.44c-1.22-2.19-.25-4.83.54-6.98.18-.5-.21-1.08-.69-1.21-.55-.15-1.03.19-1.21.69h0Z"/>
    <path class="cls-3" d="M90.83,162.93c.05-1.89.24-3.77.61-5.63.03-.13.23-.72.12-.67.16-.08,1.08.5,1.33.62.77.36,1.55.7,2.34,1.03,3.24,1.35,6.54,2.08,10.04,2.39,5.67.51,12.36,1.25,17.05-2.68.97-.82-.43-2.2-1.39-1.39-2.51,2.1-5.86,2.49-9.02,2.47-3.52-.02-7.2-.22-10.65-.93-1.74-.36-3.43-.91-5.08-1.59-.91-.37-1.81-.78-2.71-1.2-.62-.29-1.27-.7-1.97-.74-1.64-.1-1.87,1.62-2.09,2.86-.32,1.8-.5,3.62-.55,5.45-.03,1.27,1.94,1.27,1.97,0h0Z"/>
    <path class="cls-3" d="M111.29,163.21c-2.92.17-5.8-.25-8.55-1.25-.5-.18-1.08.2-1.21.69-.15.55.19,1.03.69,1.21,2.89,1.05,6,1.5,9.07,1.32.53-.03.98-.43.98-.98,0-.51-.45-1.02-.98-.98h0Z"/>
    <path class="cls-3" d="M110.42,168.71c.52.25,1.02.53,1.48.88.31.24.88.91,1.06.94.19-.25.22-.29.09-.12-.08.09-.14.2-.19.31-.13.2-.25.37-.42.54-.34.34-.75.58-1.18.8-.93.47-1.96.77-2.94,1.11-1.2.41-2.41.81-3.63,1.14-.56.15-1.12.3-1.69.41-.29.06-.47.15-.71-.01-.18-.12-.31-.56-.42-.77-.6-1.14-1.15-2.31-1.64-3.51-.95-2.3-1.69-4.68-2.26-7.1-.29-1.23-2.19-.71-1.9.52.73,3.13,1.78,6.17,3.12,9.08.35.77.73,1.53,1.13,2.28.27.51.57,1.04,1.09,1.33,1.22.68,3.19-.17,4.41-.52,1.55-.45,3.08-.98,4.6-1.52,1.15-.41,2.31-.88,3.23-1.71.79-.7,1.6-1.86,1.14-2.96-.54-1.28-2.18-2.28-3.37-2.85s-2.14,1.15-.99,1.7h0Z"/>
    <path class="cls-3" d="M117.35,166.14c1.2-.87,2.74-1.36,4.22-.97,1.27.33,2.35,1.35,2.66,2.64s-.44,2.76-1.74,3.23c-.74.27-1.48.04-2.18-.25-.39-.16-.78-.34-1.18-.5s-.8-.25-1.18-.43c-1.73-.83-.26-3,.47-4.05.3-.44.08-1.09-.35-1.35-.49-.29-1.04-.08-1.35.35-.65.93-1.3,1.92-1.47,3.06-.16,1.05.04,2.17.77,2.98s1.86,1.02,2.84,1.44c1.05.45,2.11.94,3.28.81,2.27-.25,4.06-2.28,4.13-4.55.06-2.02-1.28-3.98-3.07-4.86-2.2-1.08-4.9-.67-6.85.75-.43.31-.64.86-.35,1.35.25.42.91.67,1.35.35h0Z"/>
    <path class="cls-3" d="M93,161.84c-.34,2.17-1.04,4.08-2.16,5.92-.27.44-.11,1.1.35,1.35s1.06.12,1.35-.35c1.19-1.95,2.01-4.14,2.36-6.39.08-.51-.13-1.08-.69-1.21-.47-.11-1.13.14-1.21.69h0Z"/>
    <path class="cls-3" d="M91.59,167.09c-4.49-.81-8.82-2.31-12.84-4.47-1.12-.6-2.11,1.1-.99,1.7,4.16,2.25,8.65,3.83,13.31,4.67,1.24.22,1.77-1.67.52-1.9h0Z"/>
    <path class="cls-3" d="M74.12,158.67c1.27,0,1.27-1.97,0-1.97s-1.27,1.97,0,1.97h0Z"/>
    <path class="cls-3" d="M71.39,161.19c1.27,0,1.27-1.97,0-1.97s-1.27,1.97,0,1.97h0Z"/>
    <path class="cls-3" d="M64.25,163.29c1.27,0,1.27-1.97,0-1.97s-1.27,1.97,0,1.97h0Z"/>
    <path class="cls-3" d="M61.55,171.42c.41-1.6,2.64-1.12,3.75-.8,1.67.49,3.6,1.23,4.94-.34.53-.63.81-1.39,1-2.18s.29-1.58.9-2.13c.82-.73,2.27-.94,3.17-.22.98.78,2.38-.6,1.39-1.39-1.34-1.07-3.09-1.29-4.67-.61-.72.31-1.34.79-1.8,1.43-.62.87-.73,1.92-1.03,2.92-.11.38-.3.86-.65,1.08-.46.29-1.18,0-1.65-.13-1.07-.3-2.12-.69-3.24-.74-1.71-.08-3.56.84-4,2.59-.32,1.23,1.58,1.75,1.9.52h0Z"/>
    <path class="cls-3" d="M192.51,156.45c-4.54-.39-9.31-.74-13.56,1.21-3.63,1.67-6.25,4.84-6.56,8.89-.28,3.64.15,9.02,4.28,10.32,1.42.45,3.14.27,4.24-.8,1.39-1.35,1.33-3.42.91-5.18-1.94-8.23-12.27-12.8-19.66-8.73-3.52,1.94-5.62,5.88-4.97,9.9.61,3.73,4.38,7.38,8.01,4.46s2.56-9.22.89-12.97c-1.06-2.38-2.55-4.52-4.13-6.58s-3.6-4.02-4.16-6.6c-.27-1.24-2.17-.71-1.9.52.71,3.3,3.51,5.85,5.42,8.49,2.02,2.79,3.83,5.91,4.25,9.39.18,1.5.14,3.15-.43,4.56-.71,1.74-2.71,3.13-4.39,1.63-2.54-2.27-2.07-6.62-.09-9.08,4.55-5.67,13.82-3.45,17.58,1.89,1.11,1.57,3.71,7.55-.25,7.34-3.7-.2-3.81-5.44-3.68-8.11.19-3.87,2.87-6.69,6.42-7.98,3.75-1.36,7.88-.95,11.76-.62,1.26.11,1.26-1.86,0-1.97h0Z"/>
    <path class="cls-3" d="M185.3,167.05c1.61-2.44,4.54-3.76,7.4-3.53.53.04.98-.48.98-.98,0-.57-.45-.94-.98-.98-3.58-.29-7.14,1.52-9.1,4.5-.29.44-.09,1.09.35,1.35.48.28,1.05.09,1.35-.35h0Z"/>
    <path class="cls-3" d="M157.65,162.79c-.08-.88-.37-1.74-.9-2.46-.27-.35-.54-.68-.89-.95-.42-.33-.83-.57-1.33-.77-.22-.09-.56-.02-.76.1s-.4.35-.45.59c-.06.25-.04.54.1.76s.34.35.59.45l.04.02-.24-.1c.23.1.45.22.66.36.05.03.11.07.15.11l-.13-.1s.05.04.07.06c.1.08.19.16.28.25s.17.18.25.28c.12.14-.15-.2-.04-.05.04.05.07.1.11.15.14.21.26.43.36.66l-.1-.24c.13.32.23.65.27.99l-.04-.26s.01.09.02.14c.03.27.09.5.29.7.17.17.45.3.7.29.49-.02,1.04-.44.98-.98h0Z"/>
    <path class="cls-3" d="M151.6,164.74c.21,2.68-.26,5.36.15,8.03s1.89,4.72,3.59,6.66c.84.96,2.22-.44,1.39-1.39-1.54-1.76-2.84-3.65-3.11-6.03s.14-4.85-.05-7.27c-.1-1.26-2.07-1.27-1.97,0h0Z"/>
    <path class="cls-3" d="M35.56,175.57c-4.62-.95-9.03-2.59-13.13-4.9v1.7c3.71-1.95,7.42-3.91,11.12-5.86l.53-.28c-.37.02-.37.14,0,.38.19.42.76.86,1.07,1.21.71.81,1.43,1.61,2.14,2.42,1.43,1.61,2.86,3.22,4.29,4.83.84.95,2.23-.45,1.39-1.39-1.61-1.81-3.22-3.63-4.83-5.44-.8-.91-1.61-1.81-2.41-2.72-.55-.63-1.11-1.37-2.05-1.21-.89.15-1.77.83-2.55,1.25-1.06.56-2.12,1.12-3.18,1.67-2.18,1.15-4.36,2.29-6.53,3.44-.65.34-.63,1.35,0,1.7,4.25,2.39,8.83,4.12,13.6,5.1,1.24.25,1.77-1.64.52-1.9h0Z"/>
    <path class="cls-3" d="M11.36,167.89l-1.91-.89c-.11-.07-.24-.11-.37-.12-.13-.03-.26-.02-.39.02-.23.06-.48.24-.59.45-.12.23-.18.51-.1.76.07.23.22.48.45.59l1.91.89c.11.07.24.11.37.12.13.03.26.02.39-.02.23-.06.48-.24.59-.45.12-.23.18-.51.1-.76-.07-.23-.22-.48-.45-.59h0Z"/>
    <path class="cls-3" d="M9.37,170.02c-.36-.06-.72-.1-1.08-.08s-.72.08-1.07.18c-.24.07-.46.23-.59.45s-.18.52-.1.76.22.47.45.59.5.18.76.1c.19-.06.37-.1.57-.12l-.26.04c.31-.04.63-.04.94,0l-.26-.04s.08.01.12.02c.13.04.26.05.39.02.13,0,.25-.04.37-.12.2-.12.4-.35.45-.59.06-.25.04-.54-.1-.76-.13-.2-.34-.41-.59-.45h0Z"/>
  </g>
  <path class="cls-3" d="M20.73,11.73c-2.95.21-3.04,3.41-1.88,5.45,1.46,2.57,4.28,5.31,2.26,8.37-.82,1.24-2.19,1.96-3.01,3.19-.72,1.06-.94,2.34-.78,3.6.39,3.09,3.13,4.5,4.25,7.2.48,1.16,2.38.65,1.9-.52-.42-1.03-.9-1.99-1.63-2.84-.9-1.04-1.91-1.85-2.36-3.2-.41-1.22-.32-2.51.55-3.5.81-.92,1.83-1.59,2.56-2.6,1.36-1.87,1.56-4.06.67-6.18-.5-1.19-1.23-2.25-1.94-3.33-.38-.57-2.39-3.55-.58-3.67,1.26-.09,1.27-2.06,0-1.97h0Z"/>
  <path class="cls-3" d="M21.52,39.47c.34.64.04,1.42-.29,2-.44.77-1.04,1.44-1.49,2.21-1.02,1.77-.87,3.76.02,5.54.24.48.91.61,1.35.35.49-.28.59-.87.35-1.35-.36-.73-.58-1.59-.45-2.41s.67-1.54,1.15-2.22c1.08-1.49,2.02-3.32,1.06-5.12-.6-1.12-2.3-.12-1.7.99h0Z"/>
  <path class="cls-3" d="M24.8,49.04c1.27,0,1.27-1.97,0-1.97s-1.27,1.97,0,1.97h0Z"/>
  <path class="cls-3" d="M29.56,53c1.27,0,1.27-1.97,0-1.97s-1.27,1.97,0,1.97h0Z"/>
  <path class="cls-3" d="M32.44,55.88c1.27,0,1.27-1.97,0-1.97s-1.27,1.97,0,1.97h0Z"/>
  <path class="cls-3" d="M27.11,40.16c1.19-1.75,2.39-3.57,2.89-5.66s.35-4.1-.06-6.11c-.9-4.44-3.28-8.54-3.11-13.17.05-1.27-1.92-1.27-1.97,0-.16,4.19,1.65,7.96,2.75,11.91.58,2.06.99,4.27.59,6.4s-1.61,3.89-2.79,5.63c-.71,1.05.99,2.04,1.7.99h0Z"/>
  <path class="cls-3" d="M26.64,15.27l.47-1.82c.15-.57.42-1.23.43-1.83.01-.71-.53-1.01-1.07-1.3-.39-.22-.78-.46-1.14-.73-1.49-1.14-2.61-2.75-3.17-4.54-.38-1.21-2.28-.69-1.9.52.46,1.47,1.21,2.82,2.21,3.99.47.56,1.01,1.06,1.59,1.51.3.23.6.45.92.65.23.15.74.35.87.49l-.29-.7c-.02-.14-.02.15-.04.22l-.09.36-.23.91-.44,1.73c-.31,1.23,1.58,1.75,1.9.52h0Z"/>
  <path class="cls-3" d="M2.27,26.93c1.8-.99,3.59-1.99,5.39-2.99.38-.21.57-.7.45-1.11-.86-3.03-1.59-6.08-1.3-9.25s1.34-6.24,2.17-9.29c.26-.94-.96-1.67-1.65-.96C2.7,8.13-1.8,13.06-6.19,18.07c-.83.95.56,2.35,1.39,1.39C-.4,14.45,4.09,9.52,8.73,4.73l-1.65-.96c-.88,3.23-1.94,6.46-2.24,9.81s.47,6.59,1.37,9.77l.45-1.11c-1.8,1-3.59,2-5.39,2.99-1.11.61-.12,2.31.99,1.7h0Z"/>
  <path class="cls-3" d="M.26,21.61c-.61,1.03-1.25,2.05-1.93,3.04-.34.5-.69.99-1.04,1.47-.19.26-.38.51-.57.76-.08.1-.15.2-.23.3-.06.08-.33.26-.1.2s-.08-.08-.17-.11c-.13-.04-.26-.08-.38-.12-.3-.09-.6-.17-.9-.24-.59-.14-1.2-.23-1.8-.3-1.24-.14-2.46-.07-3.68.11-.53.08-.82.74-.69,1.21.16.56.68.77,1.21.69,1.22-.18,2.51-.17,3.72.04.65.11,1.28.29,1.91.48s1.28.25,1.86-.17c.47-.34.8-.9,1.14-1.36.4-.54.8-1.08,1.18-1.63.77-1.1,1.49-2.23,2.17-3.39.65-1.09-1.05-2.08-1.7-.99H.26Z"/>
  <path class="cls-3" d="M40.68,6.42c-2.91,2.82-8.81,3.28-10.03,7.67-.64,2.33-.23,4.93.32,7.23.26,1.11.55,2.21,1.02,3.25.23.5.49.95.82,1.38.54.72.54,1.11.33,2-.3,1.23,1.6,1.76,1.9.52.24-1,.41-2.07-.14-3.01s-1.17-1.67-1.51-2.76c-.73-2.31-1.31-4.9-.99-7.34s2.42-3.36,4.34-4.3,3.8-1.78,5.33-3.27c.91-.88-.48-2.28-1.39-1.39h0Z"/>
  <path class="cls-3" d="M36,13.51c.34,4.7.87,9.38,1.59,14.03.08.53.74.81,1.21.69.56-.15.77-.69.69-1.21-.68-4.48-1.19-8.99-1.52-13.51-.09-1.26-2.06-1.27-1.97,0h0Z"/>
  <path class="cls-3" d="M37.96,27.21c-3.38,3.75-5.72,8.36-6.68,13.32-.24,1.24,1.66,1.77,1.9.52.9-4.63,3.01-8.95,6.18-12.45.85-.94-.54-2.34-1.39-1.39h0Z"/>
  <path class="cls-3" d="M14,41.36l-3.57-6.77-1.78-3.38c-.41-.78-.76-1.86-1.65-2.21-.84-.33-1.73.2-2.48.55-1.03.48-2.03,1.02-3.01,1.61-1.9,1.14-3.68,2.48-5.33,3.96l1.68.7c.03-1.8.05-3.6.08-5.4.02-1.14.2-2.64-.86-3.41-1.13-.82-2.56.17-3.6.66-1.7.81-3.39,1.62-5.09,2.42-1.14.54-.15,2.24.99,1.7s2.26-1.08,3.39-1.62c.58-.28,2.57-1.58,3.09-1.33.4.19.09,2.73.08,3.21-.02,1.25-.04,2.5-.05,3.76-.01.89,1.07,1.25,1.68.7,1.43-1.27,2.94-2.42,4.57-3.43.79-.49,1.59-.94,2.42-1.36.44-.23.89-.45,1.35-.65.51-.22.37-.31.6.28.73,1.89,1.95,3.71,2.9,5.5l2.9,5.5c.59,1.12,2.29.13,1.7-.99h0Z"/>
  <path class="cls-3" d="M13.88,30.27c-1.4-1.86-3.33-3.23-5.58-3.86-.5-.14-1.09.17-1.21.69s.16,1.06.69,1.21c.24.07.48.14.71.23.11.04.22.08.33.13-.12-.05-.08-.03.02,0,.05.02.1.04.14.07.45.21.89.46,1.3.74.1.07.19.13.29.2.04.03.08.06.13.09-.17-.13-.02-.01.02.02.19.16.38.32.56.49.17.16.34.33.5.51.09.1.17.2.26.3.03.04.07.08.1.12.17.2-.12-.16.04.05.31.41.86.66,1.35.35.41-.26.69-.91.35-1.35h0Z"/>
  <path class="cls-3" d="M13.35,25.86l3.63-2.65c.21-.16.38-.32.45-.59.06-.24.04-.55-.1-.76-.26-.41-.9-.68-1.35-.35l-3.63,2.65c-.21.16-.38.32-.45.59-.06.24-.04.55.1.76.26.41.9.68,1.35.35h0Z"/>
  <path class="cls-3" d="M8.61,61.54c4.07-1.45,5.91-5.68,5.63-9.79s-2.4-8.18-6.59-9c-1.85-.36-3.76.12-5.19,1.35s-2.23,3.32-1.39,5.07c1.71,3.56,7.14,3.17,10.09,1.76,4.18-2,6.28-6.73,5.92-11.21-.1-1.25-2.07-1.27-1.97,0,.24,2.95-.62,5.99-2.81,8.07-2,1.9-5.14,2.78-7.79,1.82-1.51-.55-2.32-1.83-1.38-3.31.76-1.19,2.24-1.82,3.62-1.69,3.21.29,5.01,3.48,5.42,6.36.49,3.36-.59,7.44-4.1,8.68-1.19.42-.67,2.33.52,1.9h0Z"/>
  <path class="cls-3" d="M-4.36,39.96c-.76,5.5.77,11.02,4.27,15.33.8.98,2.19-.42,1.39-1.39-3.01-3.7-4.42-8.69-3.76-13.41.07-.53-.13-1.05-.69-1.21-.46-.13-1.14.16-1.21.69h0Z"/>
  <path class="cls-3" d="M1.76,40.67s.14-.18.04-.06c-.09.11,0,0,.02-.03.06-.07.13-.15.19-.22.13-.14.28-.27.43-.39.17-.14-.13.09-.02.02.04-.02.07-.05.1-.08.08-.06.16-.11.24-.16.18-.11.36-.2.54-.28.12-.06-.18.07-.06.02.05-.02.1-.04.15-.06.09-.03.18-.06.28-.09.19-.05.38-.09.57-.13.13-.03-.2.02-.07,0,.05,0,.11-.01.16-.02.1,0,.19-.01.29-.01.2,0,.41,0,.61.03.51.06,1.01-.5.98-.98-.03-.58-.43-.92-.98-.98-2.02-.24-4.02.78-5.18,2.42-.3.42-.09,1.11.35,1.35.51.27,1.03.1,1.35-.35h0Z"/>
  <path class="cls-3" d="M-5.54,55.25c1.34,2.4,2.83,4.7,4.47,6.91l.15-1.19c-3.45,3.66-6.32,7.81-8.49,12.34l1.84.5c-.29-3.6-.58-7.2-.88-10.8l-.21-2.61c-.04-.5-.08-.99-.12-1.49,0-.09,0-.75-.11-.55.13-.24.9-.5,1.14-.63.31-.17.63-.34.94-.51.83-.46,1.67-.91,2.5-1.37,1.11-.61.12-2.31-.99-1.7-.83.46-1.67.91-2.5,1.37-.74.41-1.61.76-2.27,1.29-.57.46-.74,1.03-.71,1.74.03,1.05.17,2.11.26,3.17.33,4.03.65,8.07.98,12.1.07.88,1.38,1.46,1.84.5,2.1-4.39,4.84-8.41,8.18-11.95.27-.29.42-.84.15-1.19-1.64-2.2-3.13-4.51-4.47-6.91-.62-1.11-2.32-.12-1.7.99h0Z"/>
  <path class="cls-3" d="M4.19,56.85c.41,2.05-.74,3.98-1.82,5.63s-2.26,3.31-2.64,5.26c-.65,3.34.89,6.79,3.76,8.6,1.07.68,2.06-1.02.99-1.7-2.89-1.83-3.64-5.5-2.1-8.45,1.66-3.19,4.5-5.96,3.71-9.87-.25-1.24-2.15-.72-1.9.52h0Z"/>
  <path class="cls-3" d="M21.56,52.08c1.25,1.86,2.63,3.64,4.15,5.29.78.84,1.59,1.65,2.44,2.43.4.36.8.72,1.22,1.07.38.32,1.13.74,1.33,1.21.19.43.06,1.16.08,1.62.02.58.06,1.15.11,1.73.11,1.17.28,2.33.51,3.48.5,2.43,1.32,4.76,2.36,7,.54,1.15,2.23.15,1.7-.99-1.07-2.28-1.84-4.69-2.29-7.17-.23-1.26-.37-2.54-.42-3.83-.04-.95.11-2.05-.39-2.91-.46-.8-1.39-1.33-2.07-1.93-.87-.75-1.7-1.54-2.5-2.37-1.68-1.74-3.19-3.62-4.54-5.63-.7-1.05-2.41-.06-1.7.99h0Z"/>
  <path class="cls-3" d="M25.99,65.37c-.94-1.39-2.11-2.56-3.5-3.49-.69-.46-1.43-.84-2.2-1.16-.34-.14-.69-.27-1.05-.38s-.78-.16-1.14-.31l.43.25.03.02.13.5c-.02-.36.1-.76.16-1.11.07-.45.15-.89.22-1.34.15-.89.29-1.78.44-2.68.09-.52-.14-1.06-.69-1.21-.47-.13-1.13.16-1.21.69-.25,1.51-.49,3.02-.74,4.53-.11.7-.33,1.45.27,1.99.45.41,1.24.45,1.8.64,2.16.71,4.08,2.17,5.35,4.05.71,1.04,2.41.06,1.7-.99h0Z"/>
  <path class="cls-3" d="M21.93,59.53c1.27,0,1.27-1.97,0-1.97s-1.27,1.97,0,1.97h0Z"/>
  <path class="cls-3" d="M24.74,62.17c1.27,0,1.27-1.97,0-1.97s-1.27,1.97,0,1.97h0Z"/>
  <path class="cls-3" d="M27.72,64.81c1.27,0,1.27-1.97,0-1.97s-1.27,1.97,0,1.97h0Z"/>
  <path class="cls-3" d="M29.4,77.11c-.44-2.24-.94-4.55-2.36-6.4s-3.43-2.83-5.65-2.93-4.39.87-5.83,2.5c-1.54,1.75-2.09,4.07-2.22,6.35-.12,1.97.32,4.22,2.58,4.66,2.06.4,3.78-1.1,4.57-2.86,1.02-2.26,1.41-5.01,1.5-7.47.08-2.14-.32-4.43-1.92-5.99-4.12-4.04-9.97-.66-14.29.97-1.17.44-.67,2.35.52,1.9,3.11-1.18,6.38-3.31,9.85-2.68,3.94.71,4.13,4.6,3.67,7.87-.24,1.71-.51,3.86-1.52,5.31-.43.62-1.2,1.18-2,1.03-.94-.17-1.02-1.26-1.02-2.04,0-3.43,1.52-7.26,5.43-7.56,1.95-.15,3.89.82,4.98,2.43s1.44,3.58,1.8,5.44c.24,1.24,2.14.72,1.9-.52h0Z"/>
  <path class="cls-3" d="M114.95,10.47c-2.7-2.54-5.41-5.06-8.11-7.59-1.18-1.11-2.35-2.5-3.69-3.42s-2.41.13-3.39.99c-1.36,1.19-2.69,2.42-3.98,3.68-.62.6-1.23,1.22-1.83,1.84-.66.68-1.19,1.65-2.21,1.37-1.7-.47-3.45-1.73-4.8-2.82s-2.59-2.44-3.6-3.9c-.43-.62-1.28-.65-1.7,0-2.45,3.74-6.01,6.63-10.2,8.21l1.11.45c-1.25-2.89-2.88-5.55-4.88-7.98-.46-.56-1.51-.26-1.65.43-.56,2.81-1.57,5.41-3.04,7.87-1.21,2.03-2.44,4.04-2.44,6.48,0,1.27,1.97,1.27,1.97,0,0-2.5,1.67-4.51,2.81-6.6,1.23-2.27,2.08-4.7,2.59-7.22l-1.65.43c1.89,2.3,3.4,4.85,4.58,7.58.16.37.74.59,1.11.45,4.69-1.76,8.63-4.92,11.38-9.11h-1.7c1.92,2.74,4.4,5.04,7.36,6.62,1.09.58,2.87,1.71,4.14,1.18.65-.27,1.09-.87,1.56-1.37.7-.74,1.41-1.47,2.13-2.18,1.34-1.33,2.73-2.61,4.14-3.86.27-.24.68-.78,1.04-.78s.74.54,1.01.8c.69.65,1.38,1.29,2.07,1.94,2.82,2.64,5.64,5.27,8.45,7.92.92.87,2.32-.52,1.39-1.39h0Z"/>
  <path class="cls-3" d="M72.91,1.1c-2.64-5.23-9.06-7.51-14.37-5.01-2.62,1.24-4.64,3.49-5.63,6.21-1.14,3.14-.83,6.6-.23,9.82l.95-1.25c-5.75-.49-9.41,4.83-10.06,9.96-.33,2.59,0,5.42,1.58,7.58,1.42,1.94,3.74,3.2,6.17,2.95,1.25-.13,1.26-2.1,0-1.97-4.75.48-6.34-4.86-5.77-8.64.61-4.11,3.45-8.31,8.07-7.92.69.06,1.06-.67.95-1.25-.94-5.12-.57-10.99,4.63-13.64,4.45-2.27,9.79-.23,12,4.14.57,1.13,2.27.14,1.7-.99h0Z"/>
  <path class="cls-3" d="M50.32,29.71c-3.83,1.97-7.24,5.25-7.19,9.84.05,4.24,2.91,8.05,7.1,8.97,2.37.52,4.88.17,6.96-1.09,1.08-.65.1-2.36-.99-1.7-3.87,2.33-9.21.63-10.68-3.73-.69-2.04-.55-4.28.56-6.14,1.19-2.02,3.19-3.39,5.24-4.44,1.13-.58.13-2.28-.99-1.7h0Z"/>
  <path class="cls-3" d="M56.18,42.41c3.06-3,6.27-6.24,7.32-10.55.9-3.68-.12-7.72-3.34-9.93-1.05-.72-2.03.99-.99,1.7,2.79,1.92,3.16,5.65,2.16,8.64-1.18,3.53-3.96,6.21-6.55,8.75-.91.89.49,2.28,1.39,1.39h0Z"/>
  <path class="cls-3" d="M56.32,15.34c-2.09.12-4,1.32-5.06,3.13-1.14,1.94-1.18,4.42-.32,6.47.21.49.65.84,1.21.69.46-.13.9-.72.69-1.21-.65-1.54-.77-3.35.06-4.84.7-1.26,2.03-2.18,3.42-2.26.53-.03.98-.43.98-.98,0-.51-.45-1.02-.98-.98h0Z"/>
  <path class="cls-3" d="M70.19,16.73c1.71,7.53-.22,15.34-2.99,22.38-.69,1.76-1.51,3.48-2.58,5.04s-2.36,2.78-3.61,4.11c-2.27,2.43-4.37,5.31-4.11,8.81.09,1.26,2.06,1.27,1.97,0-.29-3.96,2.92-6.68,5.35-9.33s4.07-5.89,5.34-9.34c2.6-7.06,4.22-14.72,2.53-22.19-.28-1.24-2.18-.71-1.9.52h0Z"/>
  <path class="cls-3" d="M56.78,57.65c.36,2.1,1.77,3.98,3.64,4.98,1.99,1.07,4.28,1.05,6.29.06s3.46-2.92,3.81-5.14c.39-2.45-.15-5.3-1.34-7.49-1.26-2.31-3.83-3.94-6.5-3.25-1.23.32-.71,2.22.52,1.9,2.39-.62,4.16,1.6,4.82,3.62.73,2.2,1.14,5.01-.31,7.01-1.15,1.58-3.27,2.49-5.19,2.01-2.02-.5-3.51-2.2-3.85-4.23-.21-1.25-2.11-.72-1.9.52h0Z"/>
  <path class="cls-3" d="M39.32,32.29c-2.35,5.21-4.2,11.51-1.04,16.82,2.91,4.89,8.86,5.72,14.05,5.1,1.24-.15,1.26-2.12,0-1.97-4.45.53-9.81.14-12.34-4.13-2.77-4.65-1.01-10.28,1.04-14.83.52-1.15-1.18-2.15-1.7-.99h0Z"/>
  <path class="cls-3" d="M74.69,58.54c-.06,2.75-1.23,5.39-3.32,7.2s-4.72,2.54-7.24,3.31-5.02,1.7-7.37,2.95-5.17,2.94-7.01,5.07c-1.44,1.67-2.28,4.12-1.1,6.18s3.79,2.55,5.94,2.16,4.23-1.76,5.25-3.68c1.29-2.43.36-5.19-.52-7.59-2.35-6.37-6.97-12.67-5.9-19.79.19-1.24-1.71-1.77-1.9-.52-.78,5.21,1.07,10.08,3.22,14.74,1.2,2.59,2.46,5.16,3.29,7.9.37,1.24.76,2.61.29,3.88-.4,1.09-1.31,1.93-2.31,2.48-1.81,1-5.63,1.34-5.94-1.49-.3-2.65,2.91-4.64,4.77-5.88,2.2-1.47,4.59-2.71,7.08-3.61,2.19-.79,4.47-1.34,6.63-2.22,4.71-1.92,8.01-5.88,8.13-11.1.03-1.27-1.94-1.27-1.97,0h0Z"/>
  <path class="cls-3" d="M45.4,57.06c-.06,5.87,2.1,11.59,5.98,15.97.84.95,2.23-.45,1.39-1.39-3.54-4-5.47-9.24-5.41-14.58.01-1.27-1.96-1.27-1.97,0h0Z"/>
  <path class="cls-3" d="M43.08,55.89c-1.09.08-2.19.05-3.27-.1l.26.04c-.07,0-.14-.02-.2-.03-.27-.04-.51-.05-.76.1-.2.12-.4.35-.45.59-.06.25-.04.54.1.76.13.2.34.42.59.45,1.24.18,2.48.25,3.73.16.51-.04,1.01-.43.98-.98-.02-.5-.43-1.02-.98-.98h0Z"/>
  <path class="cls-3" d="M42.75,59.67c-1.38.04-2.75.31-4.02.82-.25.1-.45.21-.59.45-.12.21-.18.52-.1.76.15.46.7.89,1.21.69.59-.24,1.19-.42,1.81-.56.15-.03.3-.06.45-.09.08-.01.16-.03.24-.04.24-.04-.23.02.02,0,.33-.04.65-.06.98-.07.51-.02,1.01-.44.98-.98s-.43-1-.98-.98h0Z"/>
  <path class="cls-3" d="M43.41,63.34c-1.54-.12-3.1.24-4.46.96-.46.24-.63.91-.35,1.35.3.46.86.61,1.35.35.14-.08.29-.15.44-.22.04-.02.08-.04.13-.06-.13.05-.14.06-.04.02.07-.02.13-.05.2-.07.32-.11.64-.21.97-.28.08-.02.16-.03.24-.05.03,0,.31-.05.14-.02s.12-.01.15-.01c.08,0,.16-.01.24-.02.34-.02.67-.02,1.01,0,.51.04,1.01-.48.98-.98-.03-.57-.43-.94-.98-.98h0Z"/>
  <path class="cls-3" d="M44.4,67.6c-1.22.55-2.37,1.22-3.46,2.01-.21.15-.38.33-.45.59-.06.24-.04.55.1.76.27.41.9.68,1.35.35,1.08-.78,2.24-1.45,3.46-2.01.21-.1.39-.37.45-.59.06-.24.04-.55-.1-.76s-.34-.4-.59-.45c-.27-.06-.51-.02-.76.1h0Z"/>
  <path class="cls-3" d="M46.26,71.8c-.87.89-1.74,1.78-2.61,2.67-.36.37-.4,1.03,0,1.39s1.01.39,1.39,0c.87-.89,1.74-1.78,2.61-2.67.36-.37.4-1.03,0-1.39s-1.01-.39-1.39,0h0Z"/>
  <path class="cls-3" d="M26.31,43.87c2.43,4.24,6.05,7.68,10.43,9.85l-.45-1.11c-3.41,10.05,1.24,20.24,7.29,28.19.76,1,2.47.02,1.7-.99-5.74-7.54-10.34-17.1-7.09-26.67.13-.39-.08-.93-.45-1.11-4.1-2.03-7.45-5.17-9.72-9.14-.63-1.1-2.33-.11-1.7.99h0Z"/>
  <path class="cls-3" d="M77.27,20.39c2.07-.05,3.91,1.06,5.9,1.47s4.05.28,5.95-.39c3.6-1.28,6.3-4.38,7.11-8.11.27-1.24-1.63-1.76-1.9-.52-.74,3.38-3.22,6.12-6.59,7-1.74.45-3.51.35-5.22-.18s-3.4-1.27-5.25-1.23c-1.27.03-1.27,2,0,1.97h0Z"/>
  <path class="cls-3" d="M81.5,9.57l.25,3.15c.02.26.1.5.29.7.17.17.45.3.7.29.5-.02,1.03-.43.98-.98l-.25-3.15c-.02-.26-.1-.5-.29-.7-.17-.17-.45-.3-.7-.29-.5.02-1.03.43-.98.98h0Z"/>
  <path class="cls-3" d="M76.91,11.46v2.31c0,.25.11.52.29.7s.45.3.7.29c.53-.02.98-.43.98-.98v-2.31c0-.25-.11-.52-.29-.7s-.45-.3-.7-.29c-.53.02-.98.43-.98.98h0Z"/>
  <path class="cls-3" d="M103.49,9.53c-3.03,2.62-4.94,6.9-3.72,10.89,1.11,3.61,4.53,6.34,8.38,5.96,2.21-.22,4.25-1.22,6.15-2.31s3.6-2.31,4.94-3.97,2.06-3.72,2.35-5.87c.31-2.26.41-4.67-.2-6.89-1.14-4.18-5.17-7.08-9.47-7.02-1.27.02-1.27,1.99,0,1.97,3.05-.04,6.02,1.75,7.23,4.59.71,1.65.76,3.5.66,5.28-.1,1.88-.36,3.83-1.28,5.5-1.63,2.94-5.12,5-8.18,6.17-3.29,1.26-6.63.33-8.27-2.92-1.78-3.53.01-7.58,2.8-9.99.96-.83-.44-2.22-1.39-1.39h0Z"/>
  <path class="cls-3" d="M106.61,15.55c.67,1.31,2,2.34,3.46,2.6,1.62.29,3.28-.2,4.46-1.35.38-.37.37-1.02,0-1.39s-1.01-.37-1.39,0c-.35.34-.76.59-1.21.72-.14.04-.29.08-.43.11-.06.01-.14.02-.03.01-.08.01-.16.02-.25.02-.15,0-.3,0-.45,0-.07,0-.13,0-.2-.02.14.02-.02,0-.07-.02-.12-.03-.24-.06-.36-.09-.07-.02-.15-.05-.22-.08-.06-.02-.12-.05-.03,0-.26-.12-.5-.26-.73-.43.08.06.02.02-.02-.02-.06-.05-.12-.1-.17-.16-.09-.09-.18-.18-.26-.27-.04-.04-.13-.17-.05-.06-.04-.05-.07-.1-.11-.15-.09-.13-.16-.27-.23-.41-.24-.47-.91-.61-1.35-.35-.48.28-.6.87-.35,1.35h0Z"/>
  <path class="cls-3" d="M139.69,6c.1,1.79-.07,3.54-.56,5.26-.44,1.54-1.03,3.03-1.18,4.63-.19,2.15.75,4.73,2.92,5.53.61.23,1.25.27,1.89.26.7,0,1.62-.23,2.25.17,1.15.72,1.57,3.02,1.74,4.26.42,2.96-.35,5.94-2.04,8.37-.73,1.04.98,2.03,1.7.99,1.64-2.36,2.49-5.22,2.41-8.1-.06-2.34-.69-6.11-2.99-7.32-1.35-.71-2.83,0-4.19-.46-1.29-.44-1.78-2.02-1.75-3.26.04-1.72.83-3.35,1.25-5,.45-1.75.6-3.55.51-5.35-.07-1.26-2.04-1.27-1.97,0h0Z"/>
  <path class="cls-3" d="M132.39,6.15c-2.27,5.2-3.38,11.08-1.84,16.65,1.29,4.65,4.41,8.84,8.82,10.93,1.14.54,2.14-1.16.99-1.7-3.97-1.89-6.74-5.55-7.91-9.76-1.4-5.03-.42-10.43,1.64-15.14.5-1.15-1.19-2.15-1.7-.99h0Z"/>
  <path class="cls-3" d="M117.34,28.07c1.65-.73,3.11-1.76,4.37-3.06l-1.83-.48c.4,1.41.8,2.82,1.2,4.23.35,1.23.55,2.67,1.15,3.8.52,1,1.47,1.18,2.49.95,1.38-.31,2.74-.74,4.11-1.11l-1.39-1.06c-.02,1.35.12,2.71.46,4.03.25.97.55,2.26,1.42,2.87.99.7,2.17.3,3.24.02,1.42-.38,2.84-.77,4.26-1.15l-1.39-1.06c.21,2.61.42,5.22.63,7.83.11,1.4,2.3,1.41,2.19,0-.21-2.61-.42-5.22-.63-7.83-.06-.7-.66-1.25-1.39-1.06-.9.24-1.81.49-2.71.73-.52.14-1.03.28-1.55.42-.33.09-.89.36-1.24.29-.52-.1-.74-1.69-.85-2.2-.2-.96-.27-1.92-.25-2.89.01-.72-.71-1.24-1.39-1.06-1,.27-1.99.54-2.99.81-.14.04-1.15.38-1.12.39-.16-.06-.35-1.21-.4-1.39-.58-2.05-1.16-4.1-1.74-6.15-.22-.78-1.25-1.08-1.83-.48-1.14,1.17-2.43,2.06-3.92,2.71-1.29.57-.17,2.46,1.11,1.89h0Z"/>
  <path class="cls-3" d="M149.46,38.63c-2.08-.55-5.22-.69-5.8,2.05-.25,1.21.52,2.26,1.1,3.25.75,1.28,1.5,2.57,2.25,3.85l.85-1.48c-1.72.04-3.44.27-5.11.71-1.21.32-3.21.72-3.98,1.8-.95,1.33.47,2.76,1.18,3.82.49.73.96,1.47,1.41,2.22.23.38.45.75.66,1.13.17.3.62.86.59,1.22l.29-.7.17-.08c-.17,0-.34.02-.51.02-.29,0-.57.02-.86.02-.52,0-1.03,0-1.55-.03-1.11-.05-2.22-.15-3.32-.32-.85-.13-1.91-.54-2.76-.26s-1.22,1.1-1.03,1.92c.29,1.23,2.19.71,1.9-.52-.15.37-.09.55.19.55.17.03.34.07.51.1.28.05.56.1.85.14.54.08,1.08.15,1.62.21,1.2.13,2.4.19,3.6.18.85,0,2.09.16,2.67-.64.65-.9-.2-2.02-.65-2.81-.54-.95-1.11-1.89-1.71-2.8-.33-.5-.67-1-1.01-1.5-.09-.13-.45-.47-.45-.64,0-.27.08-.23.36-.35,2.2-.92,4.57-1.37,6.94-1.43.74-.02,1.24-.82.85-1.48-.95-1.62-1.92-3.22-2.84-4.86-.37-.66-.38-1.21.39-1.57.82-.38,1.85-.04,2.67.17,1.23.32,1.75-1.58.52-1.9h0Z"/>
  <path class="cls-3" d="M130.89,51.66c1.05-5.49-1.44-10.9-5.31-14.73-4.23-4.18-9.87-6.49-15.2-8.89-1.15-.52-2.15,1.18-.99,1.7,4.86,2.19,9.99,4.26,14.02,7.85,3.75,3.34,6.58,8.4,5.59,13.54-.24,1.24,1.66,1.77,1.9.52h0Z"/>
  <path class="cls-3" d="M98.35,24.19s-.05-.06-.07-.09l.15.2c-.55-.72-1.01-1.5-1.36-2.33l.1.24c-.1-.24-.19-.48-.27-.72-.16-.49-.69-.86-1.21-.69-.48.16-.86.69-.69,1.21.44,1.31,1.1,2.49,1.95,3.57.15.18.47.29.7.29.24,0,.53-.11.7-.29s.3-.43.29-.7c-.01-.28-.12-.48-.29-.7h0Z"/>
  <path class="cls-3" d="M91.35,24.75c3.07,4.08,6.4,7.94,10,11.56.9.9,2.29-.49,1.39-1.39-3.48-3.5-6.72-7.22-9.69-11.16-.32-.42-.85-.64-1.35-.35-.42.24-.67.92-.35,1.35h0Z"/>
  <path class="cls-3" d="M87.13,24.77c-3.2,2.31-6.94,3.65-10.89,3.85-.58.03-.92.43-.98.98-.7,5.88-1.49,11.96-4.75,17.05-.69,1.07,1.02,2.06,1.7.99,3.45-5.39,4.27-11.82,5.01-18.04l-.98.98c4.28-.21,8.4-1.61,11.88-4.12,1.02-.73.04-2.44-.99-1.7h0Z"/>
  <path class="cls-3" d="M77.4,54.14c3.05-6.15,6.07-12.6,5.07-19.65-.18-1.25-2.07-.72-1.9.52.91,6.44-2.1,12.54-4.88,18.13-.56,1.13,1.14,2.13,1.7.99h0Z"/>
  <path class="cls-3" d="M88.51,32.27c-.4,6.08-.83,12.16-1.21,18.24-.14,2.2-.17,4.57,1.23,6.42,1.29,1.7,3.4,2.42,5.4,2.86,3.98.88,9.06,1.36,10.85-3.23s.53-9.68-1.77-13.71c-2.9-5.07-7.68-8.66-12.36-11.97-1.04-.73-2.02.97-.99,1.7,6.76,4.78,14.85,11.37,13.9,20.65-.21,2.02-.87,4.26-2.99,4.95-1.77.58-3.81.18-5.59-.19s-4-.84-5.07-2.51c-1.13-1.77-.69-4.24-.56-6.21.38-5.67.75-11.34,1.13-17,.08-1.27-1.89-1.26-1.97,0h0Z"/>
  <path class="cls-3" d="M103.93,29.86c4.75,6.53,10.13,12.56,16.09,18l.96-1.65c-4.94-.98-9.93-1.74-14.94-2.3-.73-.08-1.24.9-.85,1.48,4.62,6.87,9.4,13.64,14.33,20.3l1.11-1.45c-5.08-1.8-10.31-3.12-15.64-3.95-1.24-.19-1.77,1.7-.52,1.9,5.33.83,10.56,2.15,15.64,3.95.77.27,1.62-.76,1.11-1.45-4.93-6.66-9.71-13.43-14.33-20.3l-.85,1.48c4.83.54,9.64,1.29,14.41,2.23.9.18,1.74-.94.96-1.65-5.84-5.32-11.14-11.21-15.79-17.61-.74-1.02-2.45-.03-1.7.99h0Z"/>
  <path class="cls-3" d="M115.87,53.3c2.95.47,5.95-.39,8.17-2.42.39-.36.36-1.03,0-1.39-.39-.39-1-.36-1.39,0-1.66,1.52-4.1,2.25-6.25,1.91-.52-.08-1.06.13-1.21.69-.13.47.16,1.13.69,1.21h0Z"/>
  <path class="cls-3" d="M119.89,58.33c2.67.3,5.36-.6,7.4-2.32.41-.34.35-1.04,0-1.39-.4-.4-.99-.34-1.39,0-1.63,1.38-3.81,1.99-6.01,1.75-.53-.06-.98.5-.98.98,0,.58.45.93.98.98h0Z"/>
  <path class="cls-3" d="M124.31,64.5c3.53.13,7.45,0,10.16-2.57.92-.87-.47-2.26-1.39-1.39-2.29,2.17-5.82,2.1-8.77,1.99-1.27-.05-1.27,1.92,0,1.97h0Z"/>
  <path class="cls-3" d="M146.79,6c-.14,1.74-.63,3.42-1.46,4.95-.32.58-.02,1.24.59,1.45,2.53.85,4.34,3.33,4.43,5.99.04,1.26,2.01,1.27,1.97,0-.12-3.56-2.5-6.75-5.87-7.89l.59,1.45c1-1.85,1.55-3.85,1.72-5.95.1-1.26-1.87-1.26-1.97,0h0Z"/>
  <path class="cls-3" d="M150.46,19.54c2,2.01,2.31,4.91,2.03,7.61-.32,3.05-1.17,6.1-2.04,9.04-.36,1.22,1.54,1.74,1.9.52.98-3.31,1.94-6.78,2.17-10.23.2-3.01-.49-6.14-2.67-8.33-.9-.9-2.29.49-1.39,1.39h0Z"/>
  <path class="cls-3" d="M144.47,16.64c1.27,0,1.27-1.97,0-1.97s-1.27,1.97,0,1.97h0Z"/>
  <path class="cls-3" d="M154.27,6c.17,2.06.05,4.08-.37,6.06-.11.5.15,1.09.69,1.21.5.11,1.1-.15,1.21-.69.46-2.16.63-4.38.45-6.58-.04-.51-.42-1.01-.98-.98-.5.02-1.03.44-.98.98h0Z"/>
  <path class="cls-3" d="M152.99,47.02c3.57-1.15,6.35-4.11,7.33-7.74.5-1.86.38-3.68-.01-5.55-.44-2.1-1.4-4.74.36-6.49,1.39-1.38,3.26-2.05,3.99-4.02s.15-3.96-.68-5.71c-1-2.12-2.8-4.01-3.14-6.39s1.52-4.07,2.99-5.69,2.85-3.67,2.53-5.95-2.37-3.57-4.41-4.28c-1.2-.42-1.71,1.48-.52,1.9,2.15.76,3.69,2.26,2.62,4.63-.81,1.8-2.42,3.05-3.61,4.58-1.02,1.32-1.71,2.85-1.61,4.55.12,1.94,1.12,3.69,2.11,5.32s2.39,3.73,2.03,5.81c-.34,1.93-2.44,2.64-3.7,3.87-2.92,2.86-.87,6.66-.6,10.06.32,4.03-2.38,7.97-6.21,9.2-1.2.39-.69,2.29.52,1.9h0Z"/>
  <path class="cls-3" d="M165.89,14.54h1.89c.25,0,.52-.11.7-.29s.3-.45.29-.7-.1-.52-.29-.7-.43-.29-.7-.29h-1.89c-.25,0-.52.11-.7.29s-.3.45-.29.7.1.52.29.7.43.29.7.29h0Z"/>
  <path class="cls-3" d="M191.21,28.89c.1-4.09.05-8.18-.14-12.26-.03-.72-.82-1.26-1.48-.85-3.09,1.9-6.18,3.8-9.26,5.7l1.48.85c.45-5.69.65-11.39.57-17.09,0-.71-.84-1.28-1.48-.85-3.33,2.25-7.21,3.5-11.22,3.66-1.26.05-1.27,2.02,0,1.97,4.35-.17,8.6-1.48,12.22-3.92l-1.48-.85c.08,5.7-.12,11.4-.57,17.09-.06.75.88,1.22,1.48.85,3.08-1.9,6.17-3.8,9.26-5.7l-1.48-.85c.19,4.08.24,8.17.14,12.26-.03,1.27,1.94,1.27,1.97,0h0Z"/>
  <path class="cls-3" d="M198.68,17.34c.3,2.9-.1,5.74-.87,8.54-.71,2.56-1.57,5.4-3.55,7.29s-4.71,2.34-6.83.52-2.43-4.73-2.1-7.35c.08-.66-.69-1.09-1.25-.95-3.09.79-7.34,1.54-8.5-2.38-.98-3.31-.94-6.91-.21-10.26.27-1.24-1.63-1.76-1.9-.52-.48,2.21-.7,4.47-.55,6.74.13,1.99.39,4.24,1.33,6.02,2.04,3.87,6.84,3.2,10.35,2.31l-1.25-.95c-.39,3.07.18,6.43,2.54,8.62,2.22,2.06,5.31,2.42,7.96.94,2.83-1.59,4.28-4.6,5.26-7.56,1.17-3.54,1.92-7.27,1.53-11-.13-1.25-2.1-1.26-1.97,0h0Z"/>
  <path class="cls-3" d="M167.36,31.34c1.27,0,1.27-1.97,0-1.97s-1.27,1.97,0,1.97h0Z"/>
  <path class="cls-3" d="M175.97,32.18c1.27,0,1.27-1.97,0-1.97s-1.27,1.97,0,1.97h0Z"/>
  <path class="cls-3" d="M181.59,35.37c.97.51,1.91,1.08,2.8,1.71.22.16.44.32.65.48.05.03.11.08.03.02.05.04.1.08.15.12.11.09.22.18.33.27.43.35.84.72,1.25,1.1.38.35,1.03.4,1.39,0s.4-1.02,0-1.39c-1.68-1.58-3.57-2.94-5.61-4.01-.46-.24-1.09-.13-1.35.35-.24.45-.13,1.09.35,1.35h0Z"/>
  <path class="cls-3" d="M192.48,37.63l-3.97,4.43c-.34.38-.41,1.02,0,1.39.38.34,1.03.41,1.39,0,1.32-1.48,2.65-2.95,3.97-4.43.34-.38.41-1.02,0-1.39-.38-.34-1.03-.41-1.39,0h0Z"/>
  <path class="cls-3" d="M198.98,59.34c.11-2.05.12-4.1.01-6.15-.1-1.85-.11-3.99-.78-5.75-1.07-2.77-4.27-3.82-6.99-3.06-1.6.45-2.99,1.41-4.19,2.53-.37.34-1.32,1.71-1.91,1.5-.64-.23-.9-1.61-1.05-2.15-.8-3.02-1.84-6.2-4.48-8.12-3.05-2.22-7.1-2.03-10.6-1.2-1.23.29-.71,2.19.52,1.9,3.84-.91,8.38-.85,10.72,2.86,1.06,1.68,1.49,3.58,2.03,5.46.38,1.34,1.15,3.04,2.72,3.27,1.77.25,2.9-1.74,4.11-2.7,1.55-1.24,3.57-2.1,5.53-1.32,2.23.89,2.17,3.57,2.32,5.61.18,2.44.2,4.89.06,7.33-.07,1.27,1.9,1.26,1.97,0h0Z"/>
  <path class="cls-3" d="M164.83,42.1c-3.7,2.34-6.08,6.59-5.36,11.01.34,2.07,1.35,4.09,2.9,5.52,1.68,1.56,3.86,2.31,6.1,2.61s4.4.29,6.41-.55,3.39-2.58,4.07-4.66c.72-2.2,1.01-4.85.57-7.13s-1.97-4.13-3.69-5.59c-1.9-1.61-4.21-2.87-6.76-2.94-2.36-.06-4.58.93-6,2.82-.76,1.01.95,1.99,1.7.99,2.29-3.03,6.63-1.81,9.16.12,1.4,1.06,2.81,2.45,3.42,4.14.67,1.84.4,4.06,0,5.94-.38,1.72-1.11,3.38-2.73,4.27-1.49.81-3.29.88-4.94.75-3.69-.28-7-1.96-8.08-5.72s.94-7.8,4.22-9.87c1.07-.68.08-2.38-.99-1.7h0Z"/>
  <path class="cls-3" d="M154.12,56.58c2.58,7.68,11.12,9.66,18.33,9.65,2.15,0,4.38-.11,6.44-.81,1.83-.63,3.45-1.67,5.15-2.57,4.2-2.23,8.52-1.62,12.67.43,1.13.56,2.13-1.14.99-1.7-3.35-1.66-7.13-2.73-10.87-1.93-3.97.86-6.94,3.93-11.04,4.44-6.92.86-17.17-.29-19.77-8.04-.4-1.2-2.3-.68-1.9.52h0Z"/>
  <path class="cls-3" d="M153.38,50.1c.05,3.38-1.53,6.6-4.29,8.56-.46.33-.6.83-.35,1.35.62,1.31,1.14,2.66,1.55,4.05.3,1.01,1.35,3.53.3,4.23-.79.53-1.87.69-2.7,1.19-.88.52-1.7,1.18-2.39,1.92-2.77,2.96-3.97,7.25-2.83,11.17l.45-1.11c-1.49.74-3.36-.14-4.96.3-1.4.38-2.24,1.48-2.78,2.76-.64,1.52-.91,3.3-2.67,3.92-1.98.7-4.11-.25-5.92-1-1.17-.49-1.68,1.42-.52,1.9,3.38,1.4,8.07,2.38,10.01-1.7.61-1.28.83-3.5,2.4-3.98.92-.28,1.99.02,2.92.03s1.7-.13,2.51-.53c.38-.19.57-.72.45-1.11-1.23-4.22.83-9.08,4.75-11.11,1.79-.93,3.98-1.2,3.68-3.77-.33-2.82-1.35-5.6-2.56-8.15l-.35,1.35c3.34-2.37,5.32-6.16,5.27-10.27-.02-1.27-1.99-1.27-1.97,0h0Z"/>
  <path class="cls-3" d="M135.4,73.59c3.36-3.09,6.52-6.4,9.46-9.89.34-.41.4-.99,0-1.39-.35-.35-1.05-.41-1.39,0-2.94,3.49-6.1,6.79-9.46,9.89-.93.86.46,2.25,1.39,1.39h0Z"/>
  <path class="cls-3" d="M135.92,63.4c-3.75,4.08-8.35,7.35-13.48,9.47-.56.23-.97.85-.59,1.45,1.02,1.6,2.94,2.47,4.51,3.44,1.86,1.15,3.7,2.36,5.58,3.47.86.51,1.53.45,2.27-.21s1.39-1.35,2.04-2.07c1.31-1.47,2.47-3.07,3.48-4.77.65-1.09-1.05-2.08-1.7-.99-.82,1.39-1.74,2.71-2.79,3.93-.53.63-1.09,1.23-1.68,1.81-.07.07-.84.8-.84.8l.36-.11-.27-.17c-.17-.18-.47-.29-.68-.42-1.5-.93-3-1.86-4.49-2.79-.73-.45-1.45-.9-2.18-1.35s-1.44-.84-1.89-1.55l-.59,1.45c5.45-2.25,10.35-5.63,14.35-9.98.86-.93-.53-2.33-1.39-1.39h0Z"/>
  <path class="cls-3" d="M110.23,66.21c-5.07.33-10.36.68-15.21-1.15-4.12-1.55-7.52-4.64-9.62-8.48-.61-1.11-2.31-.12-1.7.99,2.24,4.1,5.83,7.35,10.15,9.13,5.18,2.14,10.91,1.83,16.38,1.47,1.26-.08,1.27-2.05,0-1.97h0Z"/>
  <path class="cls-3" d="M77.75,62.43c-.97,2.65-1.77,5.54-.48,8.23,1.08,2.26,3.56,3.24,5.94,2.7s4.07-2.51,4.44-4.88c.38-2.49-.51-5.14-2.48-6.75-1.08-.88-2.45-1.43-3.86-1.31s-2.72.82-3.53,2.03c-.71,1.05,1,2.04,1.7.99.96-1.43,3-1.27,4.25-.36,1.47,1.07,2.2,2.97,2.03,4.75-.15,1.63-1.15,3.05-2.74,3.53s-3.1-.01-3.9-1.44c-1.22-2.19-.25-4.83.54-6.98.18-.5-.21-1.08-.69-1.21-.55-.15-1.03.19-1.21.69h0Z"/>
  <path class="cls-3" d="M90.83,75.93c.05-1.89.24-3.77.61-5.63.03-.13.23-.72.12-.67.16-.08,1.08.5,1.33.62.77.36,1.55.7,2.34,1.03,3.24,1.35,6.54,2.08,10.04,2.39,5.67.51,12.36,1.25,17.05-2.68.97-.82-.43-2.2-1.39-1.39-2.51,2.1-5.86,2.49-9.02,2.47-3.52-.02-7.2-.22-10.65-.93-1.74-.36-3.43-.91-5.08-1.59-.91-.37-1.81-.78-2.71-1.2-.62-.29-1.27-.7-1.97-.74-1.64-.1-1.87,1.62-2.09,2.86-.32,1.8-.5,3.62-.55,5.45-.03,1.27,1.94,1.27,1.97,0h0Z"/>
  <path class="cls-3" d="M111.29,76.21c-2.92.17-5.8-.25-8.55-1.25-.5-.18-1.08.2-1.21.69-.15.55.19,1.03.69,1.21,2.89,1.05,6,1.5,9.07,1.32.53-.03.98-.43.98-.98,0-.51-.45-1.02-.98-.98h0Z"/>
  <path class="cls-3" d="M110.42,81.71c.52.25,1.02.53,1.48.88.31.24.88.91,1.06.94.19-.25.22-.29.09-.12-.08.09-.14.2-.19.31-.13.2-.25.37-.42.54-.34.34-.75.58-1.18.8-.93.47-1.96.77-2.94,1.11-1.2.41-2.41.81-3.63,1.14-.56.15-1.12.3-1.69.41-.29.06-.47.15-.71-.01-.18-.12-.31-.56-.42-.77-.6-1.14-1.15-2.31-1.64-3.51-.95-2.3-1.69-4.68-2.26-7.1-.29-1.23-2.19-.71-1.9.52.73,3.13,1.78,6.17,3.12,9.08.35.77.73,1.53,1.13,2.28.27.51.57,1.04,1.09,1.33,1.22.68,3.19-.17,4.41-.52,1.55-.45,3.08-.98,4.6-1.52,1.15-.41,2.31-.88,3.23-1.71.79-.7,1.6-1.86,1.14-2.96-.54-1.28-2.18-2.28-3.37-2.85s-2.14,1.15-.99,1.7h0Z"/>
  <path class="cls-3" d="M117.35,79.14c1.2-.87,2.74-1.36,4.22-.97,1.27.33,2.35,1.35,2.66,2.64s-.44,2.76-1.74,3.23c-.74.27-1.48.04-2.18-.25-.39-.16-.78-.34-1.18-.5s-.8-.25-1.18-.43c-1.73-.83-.26-3,.47-4.05.3-.44.08-1.09-.35-1.35-.49-.29-1.04-.08-1.35.35-.65.93-1.3,1.92-1.47,3.06-.16,1.05.04,2.17.77,2.98s1.86,1.02,2.84,1.44c1.05.45,2.11.94,3.28.81,2.27-.25,4.06-2.28,4.13-4.55.06-2.02-1.28-3.98-3.07-4.86-2.2-1.08-4.9-.67-6.85.75-.43.31-.64.86-.35,1.35.25.42.91.67,1.35.35h0Z"/>
  <path class="cls-3" d="M93,74.84c-.34,2.17-1.04,4.08-2.16,5.92-.27.44-.11,1.1.35,1.35s1.06.12,1.35-.35c1.19-1.95,2.01-4.14,2.36-6.39.08-.51-.13-1.08-.69-1.21-.47-.11-1.13.14-1.21.69h0Z"/>
  <path class="cls-3" d="M91.59,80.09c-4.49-.81-8.82-2.31-12.84-4.47-1.12-.6-2.11,1.1-.99,1.7,4.16,2.25,8.65,3.83,13.31,4.67,1.24.22,1.77-1.67.52-1.9h0Z"/>
  <path class="cls-3" d="M74.12,71.67c1.27,0,1.27-1.97,0-1.97s-1.27,1.97,0,1.97h0Z"/>
  <path class="cls-3" d="M71.39,74.19c1.27,0,1.27-1.97,0-1.97s-1.27,1.97,0,1.97h0Z"/>
  <path class="cls-3" d="M64.25,76.29c1.27,0,1.27-1.97,0-1.97s-1.27,1.97,0,1.97h0Z"/>
  <path class="cls-3" d="M61.55,84.42c.41-1.6,2.64-1.12,3.75-.8,1.67.49,3.6,1.23,4.94-.34.53-.63.81-1.39,1-2.18s.29-1.58.9-2.13c.82-.73,2.27-.94,3.17-.22.98.78,2.38-.6,1.39-1.39-1.34-1.07-3.09-1.29-4.67-.61-.72.31-1.34.79-1.8,1.43-.62.87-.73,1.92-1.03,2.92-.11.38-.3.86-.65,1.08-.46.29-1.18,0-1.65-.13-1.07-.3-2.12-.69-3.24-.74-1.71-.08-3.56.84-4,2.59-.32,1.23,1.58,1.75,1.9.52h0Z"/>
  <path class="cls-3" d="M192.51,69.45c-4.54-.39-9.31-.74-13.56,1.21-3.63,1.67-6.25,4.84-6.56,8.89-.28,3.64.15,9.02,4.28,10.32,1.42.45,3.14.27,4.24-.8,1.39-1.35,1.33-3.42.91-5.18-1.94-8.23-12.27-12.8-19.66-8.73-3.52,1.94-5.62,5.88-4.97,9.9.61,3.73,4.38,7.38,8.01,4.46s2.56-9.22.89-12.97c-1.06-2.38-2.55-4.52-4.13-6.58s-3.6-4.02-4.16-6.6c-.27-1.24-2.17-.71-1.9.52.71,3.3,3.51,5.85,5.42,8.49,2.02,2.79,3.83,5.91,4.25,9.39.18,1.5.14,3.15-.43,4.56-.71,1.74-2.71,3.13-4.39,1.63-2.54-2.27-2.07-6.62-.09-9.08,4.55-5.67,13.82-3.45,17.58,1.89,1.11,1.57,3.71,7.55-.25,7.34-3.7-.2-3.81-5.44-3.68-8.11.19-3.87,2.87-6.69,6.42-7.98,3.75-1.36,7.88-.95,11.76-.62,1.26.11,1.26-1.86,0-1.97h0Z"/>
  <path class="cls-3" d="M185.3,80.05c1.61-2.44,4.54-3.76,7.4-3.53.53.04.98-.48.98-.98,0-.57-.45-.94-.98-.98-3.58-.29-7.14,1.52-9.1,4.5-.29.44-.09,1.09.35,1.35.48.28,1.05.09,1.35-.35h0Z"/>
  <path class="cls-3" d="M157.65,75.79c-.08-.88-.37-1.74-.9-2.46-.27-.35-.54-.68-.89-.95-.42-.33-.83-.57-1.33-.77-.22-.09-.56-.02-.76.1s-.4.35-.45.59c-.06.25-.04.54.1.76s.34.35.59.45l.04.02-.24-.1c.23.1.45.22.66.36.05.03.11.07.15.11l-.13-.1s.05.04.07.06c.1.08.19.16.28.25s.17.18.25.28c.12.14-.15-.2-.04-.05.04.05.07.1.11.15.14.21.26.43.36.66l-.1-.24c.13.32.23.65.27.99l-.04-.26s.01.09.02.14c.03.27.09.5.29.7.17.17.45.3.7.29.49-.02,1.04-.44.98-.98h0Z"/>
  <path class="cls-3" d="M151.6,77.74c.21,2.68-.26,5.36.15,8.03s1.89,4.72,3.59,6.66c.84.96,2.22-.44,1.39-1.39-1.54-1.76-2.84-3.65-3.11-6.03s.14-4.85-.05-7.27c-.1-1.26-2.07-1.27-1.97,0h0Z"/>
  <path class="cls-3" d="M35.56,88.57c-4.62-.95-9.03-2.59-13.13-4.9v1.7c3.71-1.95,7.42-3.91,11.12-5.86l.53-.28c-.37.02-.37.14,0,.38.19.42.76.86,1.07,1.21.71.81,1.43,1.61,2.14,2.42,1.43,1.61,2.86,3.22,4.29,4.83.84.95,2.23-.45,1.39-1.39-1.61-1.81-3.22-3.63-4.83-5.44-.8-.91-1.61-1.81-2.41-2.72-.55-.63-1.11-1.37-2.05-1.21-.89.15-1.77.83-2.55,1.25-1.06.56-2.12,1.12-3.18,1.67-2.18,1.15-4.36,2.29-6.53,3.44-.65.34-.63,1.35,0,1.7,4.25,2.39,8.83,4.12,13.6,5.1,1.24.25,1.77-1.64.52-1.9h0Z"/>
  <path class="cls-3" d="M11.36,80.89l-1.91-.89c-.11-.07-.24-.11-.37-.12-.13-.03-.26-.02-.39.02-.23.06-.48.24-.59.45-.12.23-.18.51-.1.76.07.23.22.48.45.59l1.91.89c.11.07.24.11.37.12.13.03.26.02.39-.02.23-.06.48-.24.59-.45.12-.23.18-.51.1-.76-.07-.23-.22-.48-.45-.59h0Z"/>
  <path class="cls-3" d="M9.37,83.02c-.36-.06-.72-.1-1.08-.08s-.72.08-1.07.18c-.24.07-.46.23-.59.45s-.18.52-.1.76.22.47.45.59.5.18.76.1c.19-.06.37-.1.57-.12l-.26.04c.31-.04.63-.04.94,0l-.26-.04s.08.01.12.02c.13.04.26.05.39.02.13,0,.25-.04.37-.12.2-.12.4-.35.45-.59.06-.25.04-.54-.1-.76-.13-.2-.34-.41-.59-.45h0Z"/>
  <rect class="cls-1" x="0" width="190" height="175"/>
  <path class="cls-3" d="M14.64,88.36c-1.2,2.96-1.68,6.21-1.37,9.39.05.53.42.98.98.98.49,0,1.04-.45.98-.98-.29-3.03.15-6.04,1.3-8.87.2-.49-.22-1.08-.69-1.21-.56-.15-1.01.19-1.21.69h0Z"/>
  <path class="cls-3" d="M46.91,92.08v-2.96c0-.52-.45-1.01-.98-.98s-.98.43-.98.98v2.96c0,.52.45,1.01.98.98s.98-.43.98-.98h0Z"/>
  <path class="cls-3" d="M77.27,87.3c1.12-.64,2.27-1.37,3.47-1.85.57-.23,1.02,0,1.56.22.6.24,1.21.49,1.8.75,2.36,1.02,4.67,2.18,6.91,3.44,1.11.62,2.1-1.08.99-1.7-2.56-1.44-5.2-2.73-7.91-3.86-1.25-.52-2.55-1.25-3.92-.73s-2.65,1.33-3.9,2.05c-1.1.63-.11,2.33.99,1.7h0Z"/>
</svg>