<?xml version="1.0" encoding="UTF-8"?>
<svg id="Laag_1" data-name="Laag 1" xmlns="http://www.w3.org/2000/svg" viewBox="0 0 191 195">
  <defs>
    <style>
      .cls-1 {
        opacity: .76;
      }

      .cls-1, .cls-2 {
        fill: #e01264;
      }

      .cls-1, .cls-2, .cls-3 {
        stroke-width: 0px;
      }

      .cls-3 {
        fill: #fff;
      }
    </style>
  </defs>
  <rect class="cls-2" x=".21" y="-.41" width="191" height="196.41"/>
  <g>
    <path class="cls-3" d="M18.45,187.9c2.62-4.71,4.85-9.54,3.22-14.99-.8-2.67-1.94-5.18-2.49-7.92-.59-2.92-.76-5.9-.95-8.87-.08-1.26-2.04-1.26-1.96,0,.16,2.61.33,5.22.74,7.81.42,2.72,1.27,5.24,2.2,7.82s1.45,5.08.8,7.8-1.95,5.02-3.26,7.36c-.62,1.11,1.08,2.1,1.7.99h0Z"/>
    <path class="cls-3" d="M25.8,163.29c-1.74-.12.09-2.92.46-3.5.71-1.07,1.45-2.12,1.97-3.31.95-2.17.81-4.41-.59-6.34-.69-.95-1.62-1.6-2.42-2.45-.91-.98-1.11-2.19-.74-3.46.39-1.36,1.36-2.2,2.27-3.22.8-.89,1.32-1.89,1.77-2.99.48-1.17-1.42-1.68-1.89-.52-1.11,2.7-3.85,4.1-4.24,7.19-.16,1.25.06,2.53.78,3.59.83,1.22,2.19,1.94,3.01,3.18,2.03,3.06-.8,5.78-2.25,8.35-1.15,2.04-1.08,5.23,1.88,5.44,1.26.09,1.26-1.88,0-1.96h0Z"/>
    <path class="cls-3" d="M28.28,138.58c.96-1.8.02-3.62-1.06-5.11-.48-.67-1-1.35-1.14-2.18s.08-1.7.44-2.43c.24-.48.13-1.06-.35-1.34-.43-.25-1.11-.13-1.34.35-.88,1.78-1.03,3.77-.02,5.53.43.75,1.01,1.39,1.44,2.13.35.59.68,1.41.33,2.06-.6,1.12,1.1,2.11,1.7.99h0Z"/>
    <path class="cls-3" d="M29.86,130.01c1.26,0,1.27-1.96,0-1.96s-1.27,1.96,0,1.96h0Z"/>
    <path class="cls-3" d="M34.6,126.05c1.26,0,1.27-1.96,0-1.96s-1.27,1.96,0,1.96h0Z"/>
    <path class="cls-3" d="M37.47,123.18c1.26,0,1.27-1.96,0-1.96s-1.27,1.96,0,1.96h0Z"/>
    <path class="cls-3" d="M30.46,137.89c1.18,1.73,2.39,3.51,2.78,5.61s-.01,4.33-.59,6.39c-1.1,3.94-2.9,7.7-2.74,11.88.05,1.26,2.01,1.27,1.96,0-.17-4.61,2.21-8.71,3.11-13.13.41-2.01.55-4.08.06-6.09s-1.7-3.89-2.89-5.64c-.71-1.04-2.41-.06-1.7.99h0Z"/>
    <path class="cls-3" d="M29.79,162.24l.44,1.73.21.82.09.36.07.27c.04.11.03.12,0,.04l.29-.69c-.13.15-.64.35-.87.49-.32.2-.62.42-.92.65-.58.45-1.11.95-1.58,1.5-1,1.17-1.74,2.51-2.21,3.98-.38,1.21,1.52,1.73,1.89.52.56-1.79,1.68-3.39,3.17-4.53.36-.27.74-.52,1.13-.73.53-.29,1.04-.56,1.06-1.25.01-.58-.25-1.22-.4-1.78l-.49-1.91c-.31-1.22-2.21-.71-1.89.52h0Z"/>
    <path class="cls-3" d="M25.15,171.84c-.06,1.03-.42,2.04-.53,3.07s-.06,1.98.08,2.96c.28,1.93,1.04,3.79,2.21,5.35.32.42.85.64,1.34.35.42-.24.67-.92.35-1.34-1.06-1.41-1.76-3.04-2-4.79-.12-.86-.12-1.76-.01-2.62.13-1.01.46-1.97.52-2.99.07-1.26-1.89-1.26-1.96,0h0Z"/>
    <path class="cls-3" d="M14.17,177.12c-1.15,1.19-2.32,2.4-3.8,3.18-.99.52-3.23,1.27-4.07.09-.73-1.04.05-2.63.62-3.54.84-1.36,2.03-2.47,3.18-3.56.79-.75-.28-2.23-1.19-1.54-1.35,1.01-2.28,2.38-3.46,3.56-.93.93-2.65,2.05-3.92,1.07-.93-.73-1.12-2.18-.82-3.25.46-1.65,1.77-2.92,2.94-4.1.89-.9-.5-2.29-1.39-1.39-1.45,1.47-3.01,3.09-3.5,5.16-.4,1.67-.01,3.7,1.29,4.89,1.54,1.42,3.73,1.2,5.4.13,1.8-1.14,2.77-3.11,4.45-4.37l-1.19-1.54c-1.47,1.4-3,2.87-3.91,4.72-.76,1.57-1.17,3.67.07,5.12,1.31,1.53,3.73,1.38,5.44.73,2.1-.8,3.71-2.37,5.24-3.96.88-.91-.51-2.3-1.39-1.39h0Z"/>
    <path class="cls-3" d="M3.46,174.21c1.26,0,1.27-1.96,0-1.96s-1.27,1.96,0,1.96h0Z"/>
    <path class="cls-3" d="M9.69,179.54c1.26,0,1.27-1.96,0-1.96s-1.27,1.96,0,1.96h0Z"/>
    <path class="cls-3" d="M4.33,185.15c-2.14-.69-4.23-1.5-6.25-2.47-.99-.47-1.97-.98-2.92-1.52-.17-.09-.34-.19-.51-.29l.19.47s.23-.72.25-.79c.18-.59.36-1.18.54-1.77,1.37-4.53,2.59-9.1,3.68-13.71.29-1.23-1.6-1.75-1.89-.52-1.25,5.27-2.67,10.5-4.28,15.68-.27.87-.44,1.58.35,2.22.92.74,2.2,1.24,3.26,1.76,2.28,1.12,4.65,2.06,7.07,2.84,1.21.39,1.72-1.51.52-1.89h0Z"/>
    <path class="cls-3" d="M-1.05,158.92c4.37,5.01,8.87,9.92,13.49,14.71.69.71,1.9-.02,1.64-.96-.84-3.04-1.89-6.12-2.17-9.27s.44-6.21,1.3-9.22c.12-.41-.08-.9-.45-1.11-1.79-.99-3.58-1.99-5.38-2.98-1.11-.61-2.1,1.08-.99,1.7,1.79.99,3.58,1.99,5.38,2.98l-.45-1.11c-.9,3.17-1.67,6.43-1.37,9.75s1.35,6.57,2.24,9.79l1.64-.96c-4.62-4.79-9.11-9.69-13.49-14.71-.83-.95-2.22.44-1.39,1.39h0Z"/>
    <path class="cls-3" d="M7.07,157.4c-.66-1.12-1.37-2.22-2.11-3.29-.38-.55-.77-1.09-1.17-1.63-.36-.48-.71-1.08-1.2-1.44-.53-.39-1.16-.38-1.77-.19s-1.25.38-1.89.49c-1.25.23-2.56.24-3.82.06-.52-.08-1.06.13-1.21.69-.13.46.16,1.13.69,1.21,1.19.17,2.37.24,3.57.12.6-.06,1.21-.15,1.8-.28.3-.07.61-.15.9-.24.13-.04.26-.08.4-.13.09-.03.5-.07.25-.14-.2-.06,0,.06.05.14.07.1.15.19.22.28.19.25.38.51.57.76.35.48.7.97,1.04,1.46.7,1.02,1.36,2.06,1.99,3.12s2.34.1,1.7-.99h0Z"/>
    <path class="cls-3" d="M-5.34,188.98c3.76.26,7.47.93,11.08,1.98,1.22.35,1.74-1.54.52-1.89-3.78-1.1-7.68-1.77-11.61-2.05-1.26-.09-1.26,1.88,0,1.96h0Z"/>
    <path class="cls-3" d="M5.17,190.03c-.24,5.19.49,10.41,2.14,15.33l1.64-.96c-2.42-2.8-4.85-5.6-7.27-8.4-1.19-1.38-2.39-2.76-3.58-4.14-1.13-1.31-2.26-2.61-3.13-4.11-.63-1.09-2.33-.11-1.7.99,1.79,3.09,4.47,5.71,6.8,8.4,2.5,2.88,4.99,5.77,7.49,8.65.64.74,1.95-.04,1.64-.96-1.61-4.78-2.31-9.78-2.07-14.81.06-1.26-1.91-1.26-1.96,0h0Z"/>
    <path class="cls-3" d="M35.3,200.92c-2.45,0-4.92.01-7.34-.42-1.15-.21-2.37-.48-3.44-.98-1.21-.56-1.64-1.47-1.86-2.73-.32-1.86-.22-3.85.42-5.63.34-.96.86-1.87,1.57-2.61.37-.38.88-.97,1.49-.84.72.16,1.01,1.11,1.22,1.69.82,2.27.77,4.46-1.44,5.9-1.85,1.21-4.6,1.55-6.7.92-4.07-1.21-6.97-6.35-7.9-10.2-.29-1.23-2.19-.71-1.89.52,1.01,4.19,3.97,9.17,8,11.08s10.07.77,11.98-3.45c.91-2.01.38-4.42-.57-6.34s-2.9-2.74-4.68-1.46c-3.47,2.47-4.22,7.68-3.27,11.55.66,2.7,2.97,3.65,5.46,4.24,2.93.7,5.96.72,8.95.72,1.26,0,1.27-1.96,0-1.96h0Z"/>
    <path class="cls-3" d="M31.14,184.99c.11,2.98,1.73,6.63,4.75,7.67,1.47.51,3.19.27,4.63-.25s2.82-1.4,3.89-2.55c.86-.92-.52-2.32-1.39-1.39-1.52,1.63-4.15,3.01-6.43,2.35-1.11-.32-1.92-1.37-2.48-2.33-.62-1.07-.96-2.27-1.01-3.5s-2.01-1.27-1.96,0h0Z"/>
    <path class="cls-3" d="M37.39,192.21c-.09,2.09.06,4.32,1.51,5.96s3.79,1.73,5.85,1.42c3.96-.59,7.5-2.92,9.77-6.19.72-1.04-.98-2.03-1.7-.99-1.8,2.6-4.59,4.44-7.67,5.12-1.45.32-3.44.61-4.63-.51-1.28-1.21-1.23-3.19-1.16-4.81.06-1.26-1.91-1.26-1.96,0h0Z"/>
    <path class="cls-3" d="M54.61,205.76c3.77,4.71,10.67,7.94,16.3,4.31,1.43-.92,1.88-1.91,2.04-3.56.2-1.94.41-3.88.66-5.81.5-3.92,1.13-7.82,1.85-11.71.23-1.24-1.66-1.77-1.89-.52-.61,3.29-1.15,6.59-1.61,9.9-.22,1.61-.43,3.21-.61,4.82-.1.83-.19,1.66-.27,2.49-.08.74.03,1.7-.55,2.25-1.96,1.88-5.36,2.03-7.81,1.32-2.73-.8-4.96-2.69-6.71-4.88-.79-.99-2.17.41-1.39,1.39h0Z"/>
    <path class="cls-3" d="M65.77,203.54c-1.95.43-3.86-.42-5.05-1.98-1.38-1.82-1.8-4.15-2.22-6.34-.1-.52-.73-.82-1.21-.69-.55.15-.79.69-.69,1.21.5,2.61,1.1,5.24,2.83,7.34s4.3,2.92,6.86,2.35c1.23-.27.71-2.17-.52-1.89h0Z"/>
    <path class="cls-3" d="M66.34,196.57c-1.99.17-3.58-1.71-4.46-3.28-.98-1.74-1.35-3.74-1.1-5.72.06-.53-.5-.98-.98-.98-.58,0-.92.45-.98.98-.29,2.4.28,4.91,1.53,6.98s3.42,4.2,6,3.98c.53-.04.98-.42.98-.98,0-.5-.45-1.03-.98-.98h0Z"/>
    <path class="cls-3" d="M64.46,188.6c-.27,1.3.12,2.61,1,3.6.41.46.99.87,1.58,1.04.38.11.83,0,1.11-.28.19-.19.28-.43.36-.68.11-.35.23-.7.34-1.05.25-.77.5-1.54.74-2.31.16-.49-.18-1.09-.69-1.21-.54-.12-1.04.16-1.21.69-.19.58-.37,1.15-.56,1.73-.09.28-.18.56-.27.85-.05.15-.09.29-.14.44-.02.07-.04.14-.07.2-.01.04-.04.21-.08.24l.03-.08c.06-.19.22-.27.48-.26.43-.18.59-.13.4-.2-.01,0,.21.1.12.05-.02-.01-.05-.02-.07-.03-.1-.05-.19-.1-.29-.16,0,0-.15-.1-.15-.1,0,0,.17.14.1.08-.02-.02-.04-.03-.06-.05-.08-.07-.16-.15-.24-.22-.03-.04-.07-.07-.1-.11-.03-.03-.14-.17-.03-.04s0-.01-.03-.04c-.03-.05-.07-.1-.1-.15-.06-.09-.11-.19-.16-.29,0,0-.03-.07-.03-.07,0,0,.08.21.05.12-.02-.06-.04-.11-.06-.17-.04-.11-.07-.23-.09-.34-.01-.06-.02-.12-.03-.17-.02-.1.02.14.02.14,0-.02,0-.08,0-.1,0-.13-.01-.25,0-.38,0-.04.03-.14.02-.18,0,0-.04.23-.02.14,0-.04.02-.08.02-.12.1-.5-.15-1.09-.69-1.21-.49-.11-1.1.15-1.21.69h0Z"/>
    <path class="cls-3" d="M39.43,181.83c-1.39.57-2.92,1.2-4.45,1.02-1.32-.15-2.49-.98-3.29-2.01-1.5-1.93-1.82-4.79-.73-6.99.6-1.2,1.47-2.33,2.44-3.26,1.09-1.04,2.49-1.2,3.93-.91,2.48.5,4.88,2.02,5.26,4.7.41,2.92-.69,6.58-3.67,7.73-1.17.45-.66,2.35.52,1.89,3.43-1.32,5.12-4.78,5.17-8.32.03-1.83-.39-3.58-1.58-5-1-1.2-2.41-2.02-3.87-2.54-1.68-.59-3.66-.84-5.34-.16-1.59.65-2.74,2.12-3.71,3.48-1.99,2.78-2.33,6.39-.7,9.44.88,1.64,2.34,2.99,4.1,3.61,2.16.75,4.42.04,6.44-.79.49-.2.83-.65.69-1.21-.12-.47-.72-.89-1.21-.69h0Z"/>
    <path class="cls-3" d="M53.5,187.81c-2.18-.13-4.61-.32-6.31-1.86-1.84-1.66-1.49-4.12-.54-6.18.89-1.93,2.29-3.73,2.57-5.89.26-1.98-.66-3.8-2.29-4.91-1.04-.72-2.03.98-.99,1.7,2.25,1.55,1.14,4.1.1,6.02s-2.25,4.12-2.16,6.48c.08,2.08,1.2,3.81,2.92,4.94,1.97,1.3,4.4,1.53,6.7,1.67,1.26.08,1.26-1.89,0-1.96h0Z"/>
    <path class="cls-3" d="M47.09,169.16c-1.49-1.44-3.33-2.29-5.17-3.19-1.96-.95-4.16-1.98-4.48-4.37s.25-4.88.93-7.16c.33-1.09.87-1.84,1.48-2.78s.48-2.07.22-3.13c-.3-1.23-2.19-.71-1.89.52.19.79.23,1.22-.25,1.9-.3.44-.6.84-.83,1.33-.48,1.02-.77,2.11-1.04,3.2-.57,2.35-1.02,5.02-.36,7.41,1.22,4.38,7.1,4.83,10,7.65.91.88,2.3-.51,1.39-1.39h0Z"/>
    <path class="cls-3" d="M71.46,184.7c-6.49-.73-13.1-1.87-19.65-1.67-.41.01-.82.03-1.23.06-.12,0-1.38.11-.89.26.1.26.13.24.11-.05.01-.24.03-.48.05-.71.04-.47.1-.93.17-1.4.23-1.61.52-3.21.79-4.81.55-3.32,1.1-6.63,1.65-9.95.1-.61-.25-1.26-.95-1.24-1.71.04-3.39-.24-4.96-.95-1.36-.61-2.58-1.42-4.07-1.69-1.24-.23-1.77,1.67-.52,1.89,1.67.31,3.06,1.33,4.63,1.92s3.25.82,4.92.78l-.95-1.24c-.62,3.72-1.24,7.44-1.85,11.16-.3,1.83-.66,3.66-.82,5.51-.1,1.14-.1,2.37,1.31,2.54.76.09,1.6-.09,2.37-.11.98-.04,1.97-.03,2.95,0,1.89.05,3.77.21,5.65.4,3.77.38,7.53.84,11.29,1.26,1.25.14,1.24-1.82,0-1.96h0Z"/>
    <path class="cls-3" d="M42.99,163.48c.33-4.51.83-9,1.51-13.47.08-.53-.13-1.05-.69-1.21-.46-.13-1.13.16-1.21.69-.71,4.64-1.24,9.31-1.58,14-.09,1.26,1.87,1.26,1.96,0h0Z"/>
    <path class="cls-3" d="M44.37,148.42c-3.16-3.49-5.27-7.8-6.16-12.42-.24-1.24-2.13-.72-1.89.52.96,4.95,3.29,9.55,6.67,13.29.85.94,2.24-.45,1.39-1.39h0Z"/>
    <path class="cls-3" d="M17.39,134.7l-2.89,5.48c-.96,1.82-2.06,3.61-2.89,5.48-.26.58,0,.54-.59.28-.39-.17-.77-.36-1.15-.55-.89-.44-1.76-.93-2.6-1.45-1.62-1-3.14-2.15-4.56-3.42-.61-.55-1.69-.2-1.68.69.02,1.25.04,2.5.05,3.75,0,.47.31,3.01-.08,3.2-.52.25-2.5-1.05-3.08-1.33-1.13-.54-2.26-1.07-3.39-1.61s-2.13,1.15-.99,1.7c1.62.77,3.24,1.55,4.87,2.32,1.07.51,2.62,1.61,3.8.76,1-.73.88-2.07.86-3.16-.03-1.87-.05-3.75-.08-5.62l-1.68.69c1.65,1.47,3.42,2.81,5.32,3.95.97.58,1.97,1.12,3,1.6.74.35,1.63.87,2.47.55.89-.34,1.24-1.43,1.65-2.2l1.78-3.38c1.19-2.25,2.37-4.5,3.56-6.75.59-1.12-1.11-2.11-1.7-.99h0Z"/>
    <path class="cls-3" d="M17.27,145.76c-.11.15.06-.07-.01.02-.04.05-.08.1-.12.15-.08.09-.15.18-.23.27-.16.18-.32.34-.49.51-.18.17-.37.34-.56.49-.02.02-.19.15-.09.07.1-.07-.04.03-.06.04-.11.08-.21.15-.32.23-.4.27-.82.51-1.26.72-.05.02-.1.04-.14.07,0,0-.23.1-.1.04s-.08.03-.1.04c-.05.02-.1.04-.15.06-.25.09-.5.17-.75.24-.49.14-.85.7-.69,1.21s.68.83,1.21.69c2.24-.63,4.17-2,5.56-3.85.31-.41.08-1.12-.35-1.34-.52-.27-1.01-.09-1.34.35h0Z"/>
    <path class="cls-3" d="M17.44,152.86c1.21.88,2.41,1.76,3.62,2.65.19.14.54.16.76.1s.47-.24.59-.45c.12-.23.18-.5.1-.76s-.23-.43-.45-.59c-1.21-.88-2.41-1.76-3.62-2.65-.19-.14-.54-.16-.76-.1s-.47.24-.59.45c-.12.23-.18.5-.1.76s.23.43.45.59h0Z"/>
    <path class="cls-3" d="M13.18,117.46c5.85,2.08,5.59,12.77-.21,14.76-1.31.45-2.75.3-3.88-.54-1.2-.9-1.87-2.69-.44-3.71,2.26-1.62,5.71-.88,7.83.59,2.82,1.95,3.97,5.48,3.7,8.78-.1,1.26,1.86,1.25,1.96,0,.33-4.01-1.29-8.16-4.67-10.48-2.87-1.96-7.73-2.67-10.47-.07-1.45,1.37-1.44,3.5-.38,5.11s2.8,2.46,4.62,2.54c4.28.21,7.24-3.78,7.88-7.62.75-4.51-.78-9.6-5.44-11.25-1.19-.42-1.71,1.47-.52,1.89h0Z"/>
    <path class="cls-3" d="M2.66,136.58c-.65-4.71.75-9.69,3.75-13.38.79-.97-.59-2.37-1.39-1.39C1.53,126.1,0,131.62.77,137.1c.07.53.74.81,1.21.69.57-.15.76-.69.69-1.21h0Z"/>
    <path class="cls-3" d="M5.18,137.37c1.15,1.63,3.15,2.64,5.17,2.41.27-.03.5-.09.69-.29.17-.17.3-.45.29-.69-.02-.48-.44-1.05-.98-.98-.19.02-.38.03-.58.03-.1,0-.19,0-.29-.01-.05,0-.11,0-.16-.01-.14-.01.03,0,.07,0-.18-.06-.38-.07-.57-.12-.1-.03-.21-.06-.31-.1-.04-.01-.08-.03-.12-.05-.17-.06.14.06.03.01-.17-.08-.35-.17-.51-.27-.08-.05-.16-.1-.24-.16-.04-.02-.07-.05-.11-.07-.15-.1.11.09.02.02-.15-.13-.29-.25-.43-.39-.07-.07-.13-.14-.19-.22-.03-.03-.05-.07-.08-.1.17.17.04.05,0,0-.3-.42-.87-.66-1.34-.35-.42.27-.67.9-.35,1.34h0Z"/>
    <path class="cls-3" d="M1.29,122.83c1.33-2.39,2.82-4.69,4.45-6.89.26-.35.12-.9-.15-1.19-3.33-3.53-6.06-7.54-8.16-11.92-.46-.96-1.76-.38-1.83.5-.33,4.02-.65,8.05-.98,12.07-.08.99-.17,1.98-.24,2.97-.05.72.04,1.35.6,1.85.61.55,1.49.88,2.2,1.28.88.48,1.77.97,2.65,1.45,1.11.61,2.1-1.09.99-1.7-.78-.43-1.56-.86-2.34-1.28-.36-.2-.73-.4-1.09-.6-.26-.15-.98-.38-1.14-.63.12.19.11-.57.11-.55.04-.5.08-.99.12-1.49l.21-2.6c.29-3.59.58-7.18.87-10.77l-1.83.5c2.17,4.52,5.03,8.67,8.47,12.31l-.15-1.19c-1.64,2.2-3.12,4.5-4.45,6.89-.62,1.11,1.08,2.1,1.7.99h0Z"/>
    <path class="cls-3" d="M11.19,120.77c.79-3.9-2.04-6.66-3.7-9.85-1.53-2.94-.78-6.61,2.1-8.43,1.07-.67.08-2.37-.99-1.7-2.86,1.8-4.39,5.25-3.75,8.58.37,1.9,1.5,3.53,2.54,5.12,1.1,1.68,2.33,3.65,1.91,5.75-.25,1.23,1.64,1.76,1.89.52h0Z"/>
    <path class="cls-3" d="M28.32,125.99c1.3-1.95,2.76-3.78,4.39-5.47.79-.83,1.62-1.62,2.48-2.37.72-.63,1.73-1.21,2.22-2.05.46-.8.35-1.8.38-2.68.04-1.28.17-2.56.39-3.82.45-2.55,1.23-5.02,2.32-7.37.53-1.14-1.16-2.14-1.7-.99-1.01,2.17-1.81,4.43-2.31,6.77-.24,1.14-.42,2.3-.53,3.46-.06.57-.1,1.15-.12,1.73-.02.52.12,1.35-.09,1.83-.19.43-.83.78-1.18,1.07-.41.35-.82.7-1.22,1.06-.85.77-1.66,1.57-2.44,2.41-1.57,1.69-2.99,3.51-4.28,5.43-.71,1.05,1,2.04,1.7.99h0Z"/>
    <path class="cls-3" d="M29.35,110.75c-1.27,1.88-3.18,3.33-5.34,4.04-.54.18-1.23.22-1.7.56-.68.48-.5,1.26-.38,1.96.25,1.54.5,3.08.75,4.62.09.52.74.82,1.21.69.56-.15.77-.68.69-1.21-.14-.89-.29-1.78-.43-2.67-.07-.41-.13-.82-.2-1.23-.06-.39-.19-.82-.17-1.21l-.13.5-.03.02-.43.25c.36-.15.76-.19,1.14-.31s.71-.24,1.05-.38c.77-.32,1.51-.69,2.2-1.15,1.39-.93,2.56-2.1,3.49-3.49.71-1.05-.99-2.03-1.7-.99h0Z"/>
    <path class="cls-3" d="M27,119.54c1.26,0,1.27-1.96,0-1.96s-1.27,1.96,0,1.96h0Z"/>
    <path class="cls-3" d="M29.8,116.9c1.26,0,1.27-1.96,0-1.96s-1.27,1.96,0,1.96h0Z"/>
    <path class="cls-3" d="M32.76,114.27c1.26,0,1.27-1.96,0-1.96s-1.27,1.96,0,1.96h0Z"/>
    <path class="cls-3" d="M32.55,99.52c-.63,3.25-1.58,7.02-5.34,7.77-1.67.33-3.44-.2-4.7-1.34-1.32-1.19-1.87-2.98-2.06-4.7-.14-1.32-.32-4.14,1.84-3.33,1.64.61,2,3.03,2.31,4.5.63,3.01,1.38,7.74-2.18,9.22s-7.64-1.07-11.01-2.34c-1.18-.45-1.7,1.45-.52,1.89,4.08,1.54,8.78,4.4,13.1,1.85s3.24-8.76,2.12-12.75c-.55-1.94-1.59-3.92-3.72-4.38s-3.65.92-3.92,2.91c-.6,4.43,1.66,9.54,6.38,10.41,2.35.43,4.85-.34,6.56-2.01,1.92-1.89,2.54-4.62,3.03-7.17.24-1.24-1.65-1.76-1.89-.52h0Z"/>
    <path class="cls-3" d="M77.98,194.96c2.43,3.09,5.02,6.06,7.77,8.88,2.31,2.37,5.14,4.83,5.96,8.18.2.81.32,1.79.04,2.59-.31.9-1.23,1.31-2.07,1.58-1.8.57-3.94.92-5.81.49-3.53-.83-5.05-5.23-5.55-8.39-.73-4.57.3-9.18,1.47-13.59.33-1.22-1.57-1.74-1.89-.52-1.22,4.56-2.22,9.28-1.57,14.02.52,3.72,2.17,8.4,5.91,10,1.97.84,4.24.7,6.3.3,1.83-.35,3.96-.98,4.86-2.78,1.79-3.56-1.21-7.86-3.48-10.38-1.64-1.83-3.43-3.52-5.09-5.33-1.91-2.08-3.73-4.23-5.47-6.45-.78-.99-2.16.41-1.39,1.39h0Z"/>
    <path class="cls-3" d="M98.97,202.9c3.94,1.04,7.83-.86,10.48-3.74,1.36-1.48,2.45-3.18,3.47-4.9,1.2-2.02,2.35-4.08,3.05-6.33l-1.8.23c2.6,3.8,7.44,5.37,11.73,3.6,4.68-1.93,7.16-6.57,8.56-11.17.37-1.21-1.53-1.73-1.89-.52-1.15,3.8-3.04,7.67-6.73,9.57-3.48,1.79-7.76.78-9.98-2.47-.48-.7-1.54-.6-1.8.23-.59,1.9-1.54,3.62-2.54,5.33-.89,1.53-1.81,3.06-2.94,4.42-2.22,2.65-5.52,4.8-9.1,3.85-1.22-.32-1.75,1.57-.52,1.89h0Z"/>
    <path class="cls-3" d="M105.74,188.67c-1.3,2.49-3.11,4.78-5.53,6.27-2.92,1.8-5.94,1.67-9.22,1.11s-6.2-1.28-8.51-3.75c-1.95-2.09-3.19-4.76-4.39-7.32-.54-1.14-2.23-.15-1.7.99,1.38,2.94,2.85,5.97,5.22,8.25,2.7,2.59,6.21,3.31,9.79,3.88s6.74.42,9.8-1.47c2.7-1.66,4.78-4.19,6.23-6.98.59-1.12-1.11-2.11-1.7-.99h0Z"/>
    <path class="cls-3" d="M87.48,191.55c-1.85-1.15-2.2-4.26-1.62-6.18.39-1.27,1.37-1.69,2.6-1.9,1.5-.27,2.93-.67,4.41-1.04,1.3-.33,2.82-.56,4.04.18.9.55,1.39,1.54,1.64,2.53.62,2.44.06,5.07-2.2,6.41-2.69,1.59-6.71,1.08-9.42-.22-1.13-.54-2.13,1.15-.99,1.7,3.21,1.54,7.53,2.09,10.83.53,1.38-.65,2.62-1.76,3.29-3.15.73-1.52.81-3.32.56-4.97-.22-1.43-.8-2.89-1.87-3.89-1.27-1.18-3-1.52-4.68-1.33-1.96.22-3.8.99-5.75,1.3-1.64.26-3.19.85-3.97,2.42-1.44,2.88-.68,7.54,2.15,9.31,1.08.67,2.06-1.03.99-1.7h0Z"/>
    <path class="cls-3" d="M83.06,180.32c-.6-.6-1.21-1.21-1.81-1.81-.18-.18-.44-.29-.69-.29s-.53.11-.69.29-.3.43-.29.69.1.51.29.69c.6.6,1.21,1.21,1.81,1.81.18.18.44.29.69.29s.53-.11.69-.29.3-.43.29-.69-.1-.51-.29-.69h0Z"/>
    <path class="cls-3" d="M96.02,176.6c.5.5.99,1.03,1.45,1.57.22.26.44.54.65.81l-.08-.1s.04.05.06.07c.02.03.05.06.07.1.06.07.11.15.16.22.11.15.22.3.32.45.15.21.33.38.59.45.24.06.55.04.76-.1.42-.27.67-.89.35-1.34-.88-1.25-1.86-2.43-2.94-3.51-.36-.36-1.03-.39-1.39,0s-.39,1,0,1.39h0Z"/>
    <path class="cls-3" d="M105.25,179.87c.1.84.13,1.69.06,2.53-.02.21-.04.41-.06.62.03-.2-.02.11-.02.12-.02.11-.04.22-.06.33-.08.42-.18.84-.3,1.26-.14.49.17,1.09.69,1.21s1.05-.16,1.21-.69c.51-1.74.67-3.58.45-5.38-.06-.51-.41-1.01-.98-.98-.48.02-1.05.44-.98.98h0Z"/>
    <path class="cls-3" d="M65.52,160.91c0,2.5,1.3,4.56,2.53,6.64,1.42,2.39,2.39,4.94,2.92,7.67.14.69,1.18.99,1.64.43,1.99-2.43,3.63-5.07,4.87-7.96l-1.11.45c4.18,1.57,7.74,4.45,10.18,8.19.42.65,1.27.62,1.7,0,1.84-2.65,4.33-4.78,7.23-6.19.92-.45,1.55-.9,2.39-.16.69.62,1.3,1.37,1.96,2.03,1.33,1.33,2.69,2.62,4.1,3.88.93.83,2.2,2.39,3.62,1.85.62-.24,1.11-.82,1.59-1.26.71-.66,1.42-1.33,2.13-1.99,2.84-2.66,5.68-5.32,8.51-7.98.92-.87-.47-2.25-1.39-1.39-2.96,2.77-5.91,5.54-8.87,8.31-.7.65-1.37,1.41-2.13,1.99-.56.43-.44.42-1.01,0-.37-.27-.72-.63-1.06-.93-1.46-1.3-2.88-2.65-4.26-4.04-.94-.94-2.14-2.9-3.59-3.03-1.27-.11-2.95.97-4.01,1.56-2.77,1.56-5.09,3.75-6.9,6.36h1.7c-2.74-4.19-6.68-7.33-11.36-9.09-.36-.14-.95.08-1.11.45-1.17,2.72-2.68,5.27-4.56,7.56l1.64.43c-.48-2.46-1.31-4.83-2.49-7.04s-2.9-4.2-2.89-6.75c0-1.26-1.96-1.27-1.96,0h0Z"/>
    <path class="cls-3" d="M76.15,174.87c-2.2,4.36-7.53,6.39-11.97,4.13-5.19-2.64-5.56-8.49-4.62-13.6.11-.57-.26-1.3-.95-1.24-4.61.39-7.44-3.8-8.05-7.9-.56-3.77,1.01-9.09,5.76-8.62,1.26.13,1.25-1.84,0-1.96-2.43-.24-4.74,1.01-6.16,2.95-1.57,2.16-1.91,4.98-1.58,7.56.65,5.11,4.3,10.43,10.03,9.93l-.95-1.24c-.59,3.21-.9,6.65.23,9.79.98,2.72,3,4.95,5.61,6.19,5.3,2.5,11.7.22,14.33-4.99.57-1.13-1.13-2.12-1.7-.99h0Z"/>
    <path class="cls-3" d="M56.3,145.62c-2-1.03-3.97-2.36-5.17-4.33s-1.32-4.15-.62-6.23c1.47-4.35,6.79-6.05,10.65-3.72,1.09.65,2.07-1.04.99-1.7-3.62-2.18-8.68-1.63-11.57,1.53s-3.28,7.93-.96,11.42c1.39,2.09,3.47,3.59,5.67,4.73,1.12.58,2.12-1.12.99-1.7h0Z"/>
    <path class="cls-3" d="M59.77,136.04c2.59,2.53,5.35,5.2,6.53,8.72,1,2.98.63,6.7-2.16,8.62-1.04.71-.05,2.42.99,1.7,3.21-2.21,4.23-6.24,3.33-9.9-1.05-4.29-4.25-7.53-7.31-10.52-.9-.89-2.29.5-1.39,1.39h0Z"/>
    <path class="cls-3" d="M61.29,159.69c-1.39-.08-2.71-1-3.41-2.26-.83-1.49-.71-3.3-.06-4.83.21-.49-.22-1.08-.69-1.21-.57-.16-1,.19-1.21.69-.86,2.04-.81,4.52.32,6.45,1.05,1.8,2.96,3,5.05,3.12.53.03.98-.47.98-.98,0-.56-.45-.95-.98-.98h0Z"/>
    <path class="cls-3" d="M77.03,160.79c1.69-7.45.08-15.09-2.52-22.13-1.24-3.36-2.76-6.48-5.18-9.15s-5.79-5.44-5.49-9.47c.09-1.26-1.87-1.26-1.96,0-.26,3.48,1.83,6.36,4.1,8.78,1.24,1.33,2.56,2.6,3.6,4.1s1.88,3.28,2.57,5.03c2.76,7.01,4.69,14.81,2.99,22.32-.28,1.23,1.61,1.76,1.89.52h0Z"/>
    <path class="cls-3" d="M63.65,119.97c.35-2.02,1.83-3.72,3.84-4.22s4.04.43,5.18,2.01c1.45,2,1.04,4.79.31,6.99-.67,2.01-2.43,4.23-4.81,3.61-1.22-.32-1.75,1.58-.52,1.89,5.45,1.41,8.13-5.33,7.93-9.65-.11-2.37-1.21-4.45-3.19-5.77-1.81-1.21-4.17-1.53-6.2-.72-2.25.9-4.02,2.92-4.43,5.33-.21,1.24,1.68,1.77,1.89.52h0Z"/>
    <path class="cls-3" d="M46.03,143.75c-2.05-4.55-3.78-10.14-1.03-14.79,2.52-4.26,7.89-4.64,12.31-4.12,1.25.15,1.24-1.82,0-1.96-5.16-.61-11.13.21-14.01,5.09-3.14,5.31-1.32,11.56,1.03,16.78.52,1.15,2.21.15,1.7-.99h0Z"/>
    <path class="cls-3" d="M58.38,122.73c-.97-6.41,2.76-12.23,5.14-17.89,1.03-2.44,2.46-5.55,1.73-8.25-.6-2.22-2.59-3.87-4.71-4.59-1.83-.63-4.11-.54-5.72.61-1.79,1.28-2.14,3.6-1.31,5.55,1.03,2.44,3.56,4.11,5.7,5.5,2.35,1.52,4.89,2.74,7.53,3.66,2.85.99,5.91,1.59,8.48,3.25,2.71,1.76,4.32,4.77,4.39,7.99.03,1.26,1.99,1.27,1.96,0-.11-4.63-2.8-8.58-6.95-10.56-2.11-1.01-4.38-1.59-6.59-2.32-2.49-.81-4.87-1.9-7.11-3.27-2.03-1.24-5.02-2.94-5.75-5.37s1.56-3.69,3.72-3.42,4.59,2.09,4.57,4.52c-.03,2.76-1.63,5.76-2.76,8.21-2.47,5.36-5.15,10.82-4.23,16.89.19,1.25,2.08.72,1.89-.52h0Z"/>
    <path class="cls-3" d="M52.37,120.04c-.06-5.32,1.86-10.55,5.39-14.54.84-.94-.55-2.34-1.39-1.39-3.88,4.38-6.03,10.08-5.97,15.93.01,1.26,1.98,1.27,1.96,0h0Z"/>
    <path class="cls-3" d="M48.09,119.24c-1.25-.09-2.49-.02-3.73.16-.23.03-.48.26-.59.45-.12.21-.18.52-.1.76s.22.47.45.59c.25.13.48.14.76.1.07,0,.13-.02.2-.03l-.26.04c1.08-.14,2.17-.17,3.26-.1.51.04,1-.48.98-.98-.03-.56-.43-.94-.98-.98h0Z"/>
    <path class="cls-3" d="M47.76,115.47c-.33-.01-.65-.04-.98-.07-.21-.02.2.03-.02,0-.07-.01-.14-.02-.21-.03-.16-.03-.32-.06-.48-.09-.62-.13-1.22-.32-1.81-.55-.22-.09-.56-.02-.76.1s-.4.35-.45.59c-.06.25-.04.53.1.76s.34.35.59.45c1.27.51,2.64.78,4.01.82.51.02,1.01-.46.98-.98-.02-.55-.43-.97-.98-.98h0Z"/>
    <path class="cls-3" d="M48.42,111.81c-.32.02-.65.03-.97.01-.14,0-.35,0-.48-.04.15.02.16.02.05,0-.05,0-.09-.01-.14-.02-.08-.01-.16-.03-.24-.05-.32-.07-.63-.15-.93-.26-.08-.03-.15-.06-.23-.09-.19-.07.18.08-.05-.02-.16-.07-.31-.15-.47-.23-.45-.24-1.09-.13-1.34.35-.24.46-.13,1.09.35,1.34,1.36.72,2.91,1.08,4.45.96.51-.04,1.01-.42.98-.98-.02-.5-.43-1.02-.98-.98h0Z"/>
    <path class="cls-3" d="M50.4,107.83c-1.21-.55-2.37-1.22-3.45-2-.19-.14-.53-.16-.76-.1s-.47.24-.59.45c-.27.51-.09,1.02.35,1.34,1.08.78,2.23,1.45,3.45,2,.25.11.48.17.76.1.23-.06.47-.24.59-.45.23-.43.15-1.12-.35-1.34h0Z"/>
    <path class="cls-3" d="M52.65,103.95c-.87-.89-1.74-1.78-2.6-2.67-.36-.37-1.03-.39-1.39,0s-.38,1,0,1.39c.87.89,1.74,1.78,2.6,2.67.36.37,1.03.39,1.39,0s.38-1,0-1.39h0Z"/>
    <path class="cls-3" d="M33.06,134.19c2.27-3.96,5.61-7.09,9.7-9.12.37-.18.58-.72.45-1.11-3.24-9.54,1.34-19.08,7.07-26.6.77-1.01-.94-1.99-1.7-.99-6.03,7.93-10.67,18.1-7.27,28.12l.45-1.11c-4.37,2.16-7.99,5.59-10.4,9.82-.63,1.1,1.07,2.09,1.7.99h0Z"/>
    <path class="cls-3" d="M82.19,158.58c1.8.04,3.41-.64,5.1-1.18s3.56-.69,5.35-.22c3.37.88,5.84,3.61,6.58,6.98.27,1.23,2.16.71,1.89-.52-.81-3.72-3.5-6.81-7.1-8.09-1.85-.66-3.86-.78-5.78-.42-2.04.39-3.92,1.54-6.03,1.49-1.26-.03-1.26,1.94,0,1.96h0Z"/>
    <path class="cls-3" d="M88.38,167.41l.25-3.14c.02-.24-.12-.53-.29-.69s-.45-.3-.69-.29c-.57.03-.94.43-.98.98l-.25,3.14c-.02.24.12.53.29.69s.45.3.69.29c.57-.03.94-.43.98-.98h0Z"/>
    <path class="cls-3" d="M83.81,165.52v-2.3c0-.25-.11-.52-.29-.69s-.45-.3-.69-.29c-.53.02-.98.43-.98.98v2.3c0,.25.11.52.29.69s.45.3.69.29c.53-.02.98-.43.98-.98h0Z"/>
    <path class="cls-3" d="M109.74,166.06c-2.46-2.13-4.19-5.49-3.25-8.79s3.98-5.28,7.28-4.53c1.74.39,3.35,1.28,4.86,2.19s2.88,1.91,3.95,3.26c2.15,2.72,2.58,7.2,1.82,10.51-.8,3.54-4.04,6.01-7.65,5.96-1.26-.02-1.27,1.95,0,1.96,3.77.06,7.43-2.18,8.97-5.66.88-1.99.99-4.21.86-6.35s-.49-4.49-1.63-6.44c-1.02-1.74-2.54-3.1-4.19-4.23-1.83-1.25-3.91-2.42-6.06-3.01-3.95-1.08-7.87.74-9.6,4.45-1.98,4.24-.13,9.12,3.25,12.04.95.82,2.35-.56,1.39-1.39h0Z"/>
    <path class="cls-3" d="M113.16,162.43c.06-.13.13-.25.21-.37.03-.05.07-.1.11-.16.06-.08-.06.07.05-.06.08-.09.17-.19.26-.27.06-.05.11-.11.17-.16.01-.01.15-.13.08-.07-.08.06.11-.08.13-.09.05-.03.1-.07.16-.1.12-.07.25-.14.37-.2.14-.07-.12.04.02-.01.07-.03.15-.05.22-.08.13-.04.27-.08.41-.11.02,0,.2-.03.11-.02s.1,0,.12,0c.15-.01.3-.01.44,0,.08,0,.16,0,.25.02.16.02-.13-.03.03,0,.15.03.29.06.43.1.47.14.9.39,1.26.74.38.37,1.01.38,1.39,0s.38-1.02,0-1.39c-1.18-1.15-2.83-1.64-4.45-1.35-1.46.26-2.78,1.29-3.45,2.6-.23.46-.13,1.09.35,1.34.45.24,1.09.14,1.34-.35h0Z"/>
    <path class="cls-3" d="M114.6,180.57c-.48,2.68.45,5.44,2.71,7.06s5.18,1.67,7.47.33,3.52-3.8,4.32-6.23c.85-2.57.92-6.74,4.57-6.55,1.56.08,2.95.97,4.13,1.93,1.08.88,2.14,2.14,3.62,2.28,2.99.27,4.17-3.62,4.65-5.88.7-3.29.31-6.44-.68-9.62-.46-1.46-1.01-3.06-.55-4.6.16-.54.42-1.09.85-1.48.76-.7,1.72-.52,2.67-.51,1.68.03,2.94-.49,3.79-2.01.77-1.37,1.18-2.98,1.35-4.53.37-3.24-.46-6.55-2.32-9.23-.72-1.03-2.42-.05-1.7.99,1.57,2.26,2.31,4.92,2.11,7.67-.09,1.28-.41,2.59-.96,3.75-.41.86-.85,1.38-1.86,1.4-.73.02-1.44-.1-2.17,0-2.2.27-3.55,2.24-3.82,4.32-.38,2.89,1.28,5.55,1.62,8.36s.07,6.29-1.54,8.58c-1.2,1.7-2.55.02-3.66-.89-.96-.78-1.97-1.5-3.13-1.97-2.03-.83-4.61-.78-6.27.82s-1.86,4.48-2.59,6.64c-.86,2.58-2.43,5.47-5.47,5.7-3.24.25-5.81-2.63-5.24-5.82.22-1.24-1.67-1.77-1.89-.52h0Z"/>
    <path class="cls-3" d="M138.88,169.83c-2.05-4.69-3.03-10.08-1.63-15.1,1.16-4.19,3.93-7.85,7.89-9.73,1.14-.54.15-2.24-.99-1.7-4.4,2.09-7.51,6.26-8.79,10.91-1.54,5.56-.43,11.43,1.83,16.61.5,1.16,2.2.16,1.7-.99h0Z"/>
    <path class="cls-3" d="M124.75,148.09c1.34.59,2.5,1.38,3.52,2.43.52.54,1.44.27,1.64-.43.52-1.84,1.04-3.68,1.56-5.52.05-.16.22-1.19.36-1.25-.03,0,.88.31,1,.35.89.24,1.79.48,2.68.73.61.17,1.25-.31,1.24-.95-.01-.82.03-1.63.19-2.43.09-.47.31-2.04.8-2.14.31-.06.81.18,1.11.26.41.11.81.22,1.22.33.87.23,1.74.47,2.61.7.66.18,1.19-.32,1.24-.95.19-2.34.37-4.68.56-7.02.1-1.26-1.86-1.25-1.96,0-.19,2.34-.37,4.68-.56,7.02l1.24-.95c-1.27-.34-2.55-.69-3.82-1.03-.96-.26-2.01-.61-2.9.02-.78.55-1.05,1.71-1.27,2.57-.3,1.18-.43,2.4-.41,3.61l1.24-.95c-1.23-.33-2.45-.71-3.68-1-.92-.21-1.76-.03-2.23.86-.54,1-.72,2.32-1.03,3.41-.36,1.26-.72,2.53-1.07,3.79l1.64-.43c-1.12-1.16-2.44-2.09-3.91-2.74-1.15-.5-2.15,1.19-.99,1.7h0Z"/>
    <path class="cls-3" d="M153.69,136.52c-.8.21-1.75.52-2.56.22s-.88-.92-.49-1.62c.92-1.63,1.89-3.23,2.83-4.84.38-.66-.11-1.46-.85-1.48-2.32-.06-4.59-.51-6.74-1.35-.19-.07-.56-.15-.57-.34s.27-.44.37-.59c.34-.49.68-.99,1.01-1.49.63-.96,1.23-1.94,1.8-2.93.43-.76,1.23-1.8.72-2.7s-1.74-.72-2.57-.73c-1.2-.01-2.4.04-3.59.16-.54.06-1.08.12-1.62.2-.34.05-.68.1-1.01.16l-.34.06c-.39-.04-.51.16-.36.58.29-1.23-1.61-1.76-1.89-.52-.18.78.14,1.56.91,1.87.88.36,1.98-.07,2.87-.21,1.04-.16,2.09-.26,3.15-.31.57-.03,1.14-.04,1.71-.04.23,0,.46,0,.69.01.17,0,.34.01.51.02.23.03.23,0,0-.07l-.29-.69c.04.36-.42.92-.59,1.21-.22.38-.44.76-.66,1.13-.45.75-.92,1.49-1.41,2.21-.71,1.06-2.12,2.49-1.18,3.81.76,1.07,2.77,1.47,3.97,1.79,1.66.44,3.38.67,5.1.71l-.85-1.48c-.75,1.28-1.5,2.56-2.25,3.84-.58.99-1.35,2.03-1.1,3.24.57,2.73,3.71,2.59,5.78,2.04,1.22-.32.7-2.22-.52-1.89h0Z"/>
    <path class="cls-3" d="M133.79,125.95c.99,5.14-1.84,10.17-5.57,13.51-4.01,3.58-9.14,5.65-13.98,7.83-1.15.52-.15,2.21.99,1.7,5.32-2.39,10.94-4.7,15.16-8.87,3.86-3.81,6.35-9.22,5.3-14.69-.24-1.24-2.13-.72-1.89.52h0Z"/>
    <path class="cls-3" d="M101.83,151.43c-.85,1.08-1.51,2.26-1.95,3.56-.16.49.19,1.1.69,1.21.54.12,1.03-.16,1.21-.69.08-.24.17-.48.27-.72l-.1.23c.35-.83.81-1.61,1.36-2.32l-.15.2s.05-.06.07-.09c.17-.21.29-.41.29-.69,0-.24-.11-.53-.29-.69s-.43-.3-.69-.29c-.24.01-.54.09-.69.29h0Z"/>
    <path class="cls-3" d="M93.02,150.55c-3.47-2.5-7.58-3.9-11.85-4.11l.98.98c-.74-6.21-1.56-12.62-5-17.99-.68-1.06-2.38-.08-1.7.99,3.25,5.08,4.04,11.14,4.73,17,.07.55.4.95.98.98,3.94.19,7.66,1.54,10.86,3.84,1.03.74,2.01-.96.99-1.7h0Z"/>
    <path class="cls-3" d="M80.63,123.94c2.77,5.58,5.77,11.67,4.86,18.09-.17,1.24,1.72,1.77,1.89.52.99-7.03-2.02-13.47-5.06-19.6-.56-1.13-2.26-.14-1.7.99h0Z"/>
    <path class="cls-3" d="M95.37,144.77l-.98-14.75c-.15-2.22-.6-4.68-.16-6.88s2.09-3.12,4.05-3.66c1.76-.49,3.67-.87,5.51-.81,2.2.07,3.66,1.16,4.26,3.29,1.21,4.27-.21,8.86-2.6,12.46-2.76,4.15-6.87,7.2-10.89,10.04-1.02.72-.04,2.43.99,1.7,7.72-5.46,16.98-13.47,14.55-24.13-.47-2.04-1.49-3.9-3.49-4.75s-4.28-.6-6.37-.23-4.18.82-5.82,2.13c-1.79,1.44-2.3,3.63-2.28,5.84.03,3.14.39,6.3.59,9.43l.69,10.32c.08,1.26,2.05,1.26,1.96,0h0Z"/>
    <path class="cls-3" d="M110.49,148.16c4.64-6.38,9.92-12.25,15.75-17.56.78-.71-.06-1.82-.96-1.64-4.76.94-9.55,1.69-14.38,2.23l.85,1.48c4.61-6.86,9.38-13.61,14.29-20.25.5-.68-.34-1.72-1.11-1.44-5.07,1.79-10.29,3.11-15.6,3.94-1.25.19-.72,2.09.52,1.89,5.32-.83,10.53-2.14,15.6-3.94l-1.11-1.44c-4.92,6.64-9.68,13.39-14.29,20.25-.39.58.12,1.56.85,1.48,5-.56,9.97-1.32,14.9-2.3l-.96-1.64c-5.95,5.43-11.32,11.45-16.05,17.96-.74,1.02.96,2.01,1.7.99h0Z"/>
    <path class="cls-3" d="M121.22,125.68c2.15-.34,4.58.39,6.24,1.91.39.36,1,.39,1.39,0,.36-.36.39-1.03,0-1.39-2.21-2.02-5.2-2.88-8.15-2.41-.52.08-.82.74-.69,1.21.15.56.68.77,1.21.69h0Z"/>
    <path class="cls-3" d="M124.71,120.73c2.19-.25,4.36.37,5.99,1.74.4.34.99.4,1.39,0,.35-.35.41-1.05,0-1.39-2.03-1.72-4.72-2.62-7.38-2.32-.53.06-.98.41-.98.98,0,.48.45,1.04.98.98h0Z"/>
    <path class="cls-3" d="M129.12,114.58c2.94-.11,6.46-.18,8.74,1.99.92.87,2.31-.52,1.39-1.39-2.71-2.57-6.62-2.69-10.13-2.56-1.26.05-1.27,2.01,0,1.96h0Z"/>
    <path class="cls-3" d="M115.22,193.46c2.32,2.55,4.67,5.07,6.95,7.66,1.94,2.2,3.95,4.72,4.48,7.69.22,1.25.14,2.8-.79,3.77s-2.53.96-3.71.43c-2.83-1.27-3.7-5.04-4.26-7.77-.8-3.87-1.47-7.88-1.15-11.84.1-1.26-1.87-1.25-1.96,0-.33,4.18.4,8.47,1.26,12.54.69,3.25,1.88,7.2,5.13,8.76,2.88,1.4,6.4.32,7.32-2.92s-.86-6.86-2.78-9.45c-2.71-3.65-6.02-6.9-9.08-10.26-.85-.94-2.24.46-1.39,1.39h0Z"/>
    <path class="cls-3" d="M125.49,196.73s.19.15.08.06.05.04.07.06c.1.08.19.15.28.23.18.15.35.3.52.46.35.32.68.67.99,1.03.15.18.3.36.44.54.09.11-.14-.19,0,0,.04.05.07.1.11.15.06.09.13.18.19.27.28.4.53.82.77,1.25.25.45.91.63,1.34.35s.62-.86.35-1.34c-1.02-1.87-2.45-3.47-4.16-4.74-.41-.31-1.12-.08-1.34.35-.27.52-.09,1.01.35,1.34h0Z"/>
    <path class="cls-3" d="M137.53,206.53l2.93,6.48c.28.61,1.12.58,1.54.2,1.57-1.41,2.13-3.42,2.7-5.38.09-.3.19-1.21.45-1.4.34-.25,1.5.2,1.86.28,1.34.29,2.68.57,4.03.86.9.19,1.73-.94.96-1.64-1.12-1-1.87-2.2-2.26-3.65l-.69,1.21c2.77-.66,5.38-1.83,7.7-3.49.41-.3.66-.87.35-1.34-.92-1.42-2.16-2.38-3.74-2.96l.43,1.64c.56-.71,1.13-1.43,1.69-2.14.38-.48.81-.95.82-1.6.01-.69-.42-1.13-.86-1.61-.66-.73-1.34-1.44-2.01-2.17-.86-.93-2.25.46-1.39,1.39.38.41.76.83,1.15,1.24.19.21.38.41.57.62.1.11.59.8.57.51-.02-.23-.29.27-.37.38-.16.21-.32.41-.48.61-.36.46-.72.92-1.09,1.38-.47.6-.31,1.37.43,1.64,1.07.4,1.94,1.11,2.56,2.06l.35-1.34c-2.19,1.57-4.6,2.67-7.23,3.29-.52.12-.82.71-.69,1.21.48,1.76,1.41,3.3,2.77,4.51l.96-1.64c-1.54-.33-3.09-.66-4.63-.99-1.15-.24-2.5-.68-3.31.46-.63.9-.82,2.23-1.13,3.26-.39,1.29-.85,2.49-1.87,3.41l1.54.2-2.93-6.48c-.52-1.15-2.21-.15-1.7.99h0Z"/>
    <path class="cls-3" d="M146.48,197.07c-1.55,2.02-3.66,4.02-6.32,4.27s-4.64-1.5-5.58-3.84c-.5-1.24-.7-2.58-.22-3.86.43-1.16,1.31-2.14,2.33-2.82,1.88-1.25,5.25-2.54,7.35-1.1,1.12.77,1.57,2.2,1.85,3.46.36,1.59.47,3.22-.02,4.79-.38,1.21,1.52,1.73,1.89.52.56-1.79.46-3.66.09-5.48-.31-1.51-.83-3.06-1.89-4.21-2.38-2.58-6.46-1.66-9.22-.28-3.06,1.53-5.15,4.59-4.47,8.09.6,3.12,2.99,6.14,6.25,6.63,4.07.61,7.35-2.17,9.67-5.18.33-.42.06-1.1-.35-1.34-.5-.3-1.02-.07-1.34.35h0Z"/>
    <path class="cls-3" d="M140.65,195.46c-.03.11-.08.22-.11.33.06-.18-.06.13-.08.17-.05.1-.11.21-.18.31-.03.05-.07.1-.1.15.08-.11.01-.02-.04.04-.07.08-.14.15-.21.22-.04.04-.09.08-.13.11.14-.11.02-.02-.01,0-.1.06-.2.12-.3.17.18-.09.06-.02.01-.01-.06.02-.13.04-.19.05-.03,0-.2.03-.07.02s-.04,0-.07,0c-.05,0-.11,0-.16,0-.03,0-.2-.02-.07,0s-.03,0-.06-.02c-.05-.01-.1-.03-.15-.04-.04-.01-.07-.03-.11-.04.22.09,0-.02-.04-.04-.05-.03-.12-.11.01.02-.04-.04-.08-.07-.11-.11s-.09-.13,0,0c-.03-.05-.06-.1-.09-.15,0,0-.07-.14-.03-.05.05.11-.02-.07-.03-.09-.04-.13-.07-.27-.09-.4.03.18,0,.02,0-.01,0-.06,0-.12-.01-.19,0-.13-.01-.25-.01-.38,0-.29,0-.57.03-.86,0-.02.02-.23.01-.12-.01.1.01-.07.01-.07.02-.13.05-.26.08-.39s.07-.26.12-.38c-.05.13.01-.02.02-.04.04-.07.07-.14.11-.2.01-.02.11-.18.05-.08s.04-.05.06-.07c.08-.09.17-.17.25-.25.11-.1-.12.06.01,0,.04-.02.07-.05.11-.07.05-.03.1-.05.15-.08-.17.09.04-.01.09-.02.05-.02.11-.03.17-.04-.05.01-.19,0,0,0,.06,0,.11,0,.17,0-.02,0-.15-.04-.05,0,.05.02.11.03.16.04.13.02-.13-.08-.01,0,.05.03.1.05.14.08.08.05.13.1.03.01.09.08.17.17.26.26.1.1-.07-.12,0,0,.03.06.08.12.11.18.03.05.05.1.08.15.12.23-.05-.17.03.07.04.12.07.24.1.37.01.07.03.14.04.21-.02-.14,0,.17,0,.17,0,.16,0,.33,0,.49,0,.35-.04.69-.08,1.03-.05.51.49,1,.98.98.58-.03.93-.43.98-.98.15-1.49.14-3.18-1.07-4.27-.55-.5-1.27-.81-2.02-.74s-1.48.42-2,.99c-1.05,1.12-1.22,2.82-1.07,4.28.08.75.29,1.52.86,2.06.53.5,1.27.76,2,.75,1.73-.02,2.94-1.44,3.42-2.99.15-.49-.18-1.09-.69-1.21-.53-.12-1.05.16-1.21.69h0Z"/>
    <path class="cls-3" d="M137.76,184.94c2.95-.42,5.94.93,8.8-.36,2.32-1.04,4.16-3.27,5.29-5.5,2.23-4.39,2.25-9.69-.08-14.03l-.59,1.44c3.4-1.19,5.7-4.27,5.86-7.87.06-1.26-1.91-1.26-1.96,0-.12,2.68-1.88,5.09-4.42,5.98-.61.21-.9.86-.59,1.44,2.04,3.81,1.97,8.56-.08,12.36-1.04,1.93-2.76,4.09-4.98,4.66-2.51.64-5.2-.38-7.77-.01-1.25.18-.72,2.07.52,1.89h0Z"/>
    <path class="cls-3" d="M156.59,158.85c2.18-2.19,2.86-5.31,2.66-8.31-.23-3.45-1.19-6.91-2.16-10.21-.36-1.21-2.26-.69-1.89.52.87,2.93,1.72,5.97,2.04,9.02.28,2.69-.04,5.59-2.03,7.59-.89.9.5,2.29,1.39,1.39h0Z"/>
    <path class="cls-3" d="M149.23,162.32c1.26,0,1.27-1.96,0-1.96s-1.27,1.96,0,1.96h0Z"/>
    <path class="cls-3" d="M149.98,188.45c8.31-4.93,12.51-14.6,10.54-24.04-.26-1.24-2.15-.71-1.89.52,1.79,8.58-2.12,17.36-9.64,21.82-1.09.64-.1,2.34.99,1.7h0Z"/>
    <path class="cls-3" d="M157.2,131.95c3.35,1.08,5.9,4.27,6.19,7.79s-2.22,7.15-.23,10.39c.93,1.51,2.61,2.1,3.76,3.37,1.54,1.7.57,4.17-.4,5.9-1.79,3.19-4.21,6.46-2.13,10.15,1.04,1.85,2.84,3.12,3.94,4.91.61.99,1.11,2.22.61,3.35s-1.72,1.66-2.8,2.04c-1.18.42-.67,2.32.52,1.89,1.77-.62,3.55-1.59,4.21-3.46.7-1.99-.22-4.07-1.42-5.66s-3.04-2.89-3.72-4.83c-.85-2.41.88-4.75,2.07-6.71,1.08-1.77,2.05-3.83,1.86-5.96-.17-1.97-1.41-3.21-2.93-4.31-.87-.62-1.8-1.24-2.17-2.3s-.16-2.33.06-3.44c.41-1.99.94-3.91.67-5.96-.55-4.19-3.55-7.79-7.57-9.08-1.21-.39-1.72,1.51-.52,1.89h0Z"/>
    <path class="cls-3" d="M165.48,180.31c-1.36,1.25-1.92,3.18-1.56,4.98.1.5.73.84,1.21.69.54-.17.79-.67.69-1.21-.02-.08-.03-.16-.04-.24.06.3,0,0,0-.07-.01-.17,0-.35,0-.52,0-.08.02-.16.02-.24,0,.04-.03.21,0,.08,0-.05.02-.1.03-.15.03-.17.08-.34.13-.5.03-.08.05-.15.08-.23.05-.12,0,.03-.03.06.02-.03.03-.08.05-.11.07-.16.16-.31.25-.46.05-.08.1-.15.15-.23.07-.11-.01.02-.04.05.03-.03.05-.06.08-.1.12-.14.25-.27.38-.4.38-.35.38-1.04,0-1.39-.41-.37-.98-.37-1.39,0h0Z"/>
    <path class="cls-3" d="M166.98,188.04l.86,1.67c.11.21.36.39.59.45s.55.04.76-.1.39-.34.45-.59c.06-.27.03-.51-.1-.76l-.86-1.67c-.11-.21-.36-.39-.59-.45s-.55-.04-.76.1-.39.34-.45.59c-.06.27-.03.51.1.76h0Z"/>
    <path class="cls-3" d="M170.97,184.25c.33.08.66.18.97.32l-.23-.1c.47.2.91.46,1.32.77.19.14.54.16.76.1.23-.06.47-.24.59-.45.12-.23.18-.5.1-.76l-.1-.23c-.09-.15-.2-.27-.35-.35-.74-.57-1.62-.97-2.52-1.19-.25-.06-.53-.03-.76.1-.2.12-.4.35-.45.59-.06.25-.04.53.1.76.14.21.34.39.59.45h0Z"/>
    <path class="cls-3" d="M174.99,176.56h2.51c.51,0,1.01-.45.98-.98s-.43-.98-.98-.98h-2.51c-.51,0-1.01.45-.98.98s.43.98.98.98h0Z"/>
    <path class="cls-3" d="M170.6,164.41h1.89c.25,0,.52-.11.69-.29s.3-.45.29-.69-.09-.52-.29-.69-.43-.29-.69-.29h-1.89c-.25,0-.52.11-.69.29s-.3.45-.29.69.09.52.29.69.43.29.69.29h0Z"/>
    <path class="cls-3" d="M145.15,224.09c2.48-2.5,4.58-5.38,6.12-8.55.34-.69.65-1.4.94-2.12.31-.75.52-2.03,1.1-2.63.48-.51,1.34-.64,1.95-.94.69-.34,1.32-.81,1.88-1.33,2.44-2.26,3.81-5.7,4.88-8.77,1.25-3.59,1.94-7.36,2.12-11.16.06-1.26-1.91-1.26-1.96,0-.17,3.63-.85,7.2-2.05,10.64-1.05,3-2.5,6.92-5.37,8.66-1.16.71-2.55.87-3.3,2.13-.79,1.32-1.13,2.95-1.8,4.35-1.49,3.1-3.48,5.9-5.91,8.34-.89.9.5,2.29,1.39,1.39h0Z"/>
    <path class="cls-3" d="M189.82,194.73c.16.04.32.09.47.15l-.23-.1c.21.09.41.2.59.34l-.2-.15c.07.05.13.1.19.16.19.18.43.29.69.29.14,0,.26-.02.38-.08.12-.04.23-.11.32-.2.17-.19.3-.43.29-.69s-.1-.52-.29-.69c-.14-.13-.3-.25-.46-.37-.1-.07-.21-.14-.32-.19-.18-.09-.36-.17-.55-.24-.12-.04-.24-.08-.36-.1-.26-.06-.53-.04-.76.1-.11.06-.21.15-.28.25-.09.09-.15.21-.18.33-.06.25-.04.53.1.76.13.21.34.4.59.45h0Z"/>
    <path class="cls-3" d="M168.21,228.82c2.51-4.09,3.88-8.84,3.83-13.65s-1.97-9.87-1.61-14.9c.16-2.16.77-4.42,2.18-6.12,1.54-1.86,3.96-2.8,6.08-3.82,2.54-1.22,5.11-2.4,7.69-3.53,2.18-.95,4.81-1.66,6.67-3.19s2.79-4.37,3.2-6.7c.48-2.69.32-5.42-.46-8.03-.36-1.21-2.26-.69-1.89.52.72,2.41.89,4.94.38,7.41s-1.35,4.85-3.61,6.01-4.72,2.02-7.04,3.06-4.84,2.21-7.23,3.38c-1.94.95-3.9,1.93-5.29,3.63-1.23,1.51-2,3.34-2.37,5.25-.91,4.69.51,9.26,1.11,13.89.72,5.53-.42,11.04-3.34,15.79-.66,1.08,1.04,2.07,1.7.99h0Z"/>
    <path class="cls-3" d="M187.75,190.21c-3.4-.45-6.79,1.07-9.1,3.54-2.45,2.63-3.57,6.18-3.89,9.71-.36,4.09.44,8.17,1.15,12.18.58,3.27,1.45,7.54-1.23,10.13-.91.88.48,2.27,1.39,1.39,2.22-2.15,2.58-5.28,2.31-8.22-.35-3.87-1.43-7.64-1.68-11.53s.18-7.73,2.3-10.94c1.91-2.9,5.24-4.75,8.74-4.28,1.25.16,1.24-1.8,0-1.96h0Z"/>
    <path class="cls-3" d="M174.37,168.93c4.02.16,7.85,1.42,11.2,3.64.64.42,1.47-.14,1.48-.85.07-5.69-.12-11.37-.58-17.04l-1.48.85c3.08,1.89,6.16,3.79,9.24,5.68.66.41,1.44-.13,1.48-.85.2-4.07.24-8.15.14-12.23-.03-1.26-2-1.27-1.96,0,.1,4.08.06,8.15-.14,12.23l1.48-.85c-3.08-1.89-6.16-3.79-9.24-5.68-.6-.37-1.54.1-1.48.85.46,5.67.65,11.35.58,17.04l1.48-.85c-3.64-2.41-7.84-3.74-12.19-3.91-1.26-.05-1.26,1.92,0,1.96h0Z"/>
    <path class="cls-3" d="M205.27,159.65c.38-3.66-.34-7.3-1.46-10.78-.97-3-2.42-6.14-5.31-7.74-2.58-1.43-5.58-1.15-7.8.81-2.46,2.17-3.07,5.6-2.67,8.72l1.24-.95c-3.51-.9-8.29-1.56-10.33,2.3-.94,1.78-1.19,4.03-1.33,6.01-.15,2.26.06,4.51.55,6.72.27,1.23,2.16.71,1.89-.52-.73-3.34-.76-6.94.21-10.24,1.16-3.91,5.4-3.16,8.48-2.37.55.14,1.33-.29,1.24-.95-.33-2.55-.05-5.37,1.96-7.21,2.11-1.93,4.96-1.49,6.94.4s2.77,4.56,3.48,7.05c.81,2.86,1.24,5.77.93,8.74-.13,1.26,1.84,1.25,1.96,0h0Z"/>
    <path class="cls-3" d="M172.06,147.65c1.26,0,1.27-1.96,0-1.96s-1.27,1.96,0,1.96h0Z"/>
    <path class="cls-3" d="M180.65,146.81c1.26,0,1.27-1.96,0-1.96s-1.27,1.96,0,1.96h0Z"/>
    <path class="cls-3" d="M187.24,143.37c2.04-1.07,3.92-2.42,5.6-4,.37-.35.38-1.04,0-1.39s-.99-.38-1.39,0-.79.73-1.21,1.07c-.11.09-.22.18-.33.27-.05.04-.1.08-.15.12-.13.1.1-.08-.03.02-.23.17-.46.34-.69.51-.89.63-1.83,1.2-2.79,1.71-.46.24-.63.91-.35,1.34.3.46.86.61,1.34.35h0Z"/>
    <path class="cls-3" d="M201.63,117.76c.13,2.36.12,4.72-.05,7.07-.14,1.99-.03,4.77-2.14,5.75-1.88.87-3.94.11-5.49-1.07-1.28-.96-2.47-3.13-4.31-2.87-1.5.21-2.29,1.81-2.67,3.11-.55,1.87-.95,3.75-1.97,5.44-2.31,3.83-6.88,3.94-10.79,3.01-1.23-.29-1.75,1.6-.52,1.89,3.11.74,6.53.96,9.47-.52s4.35-4.49,5.22-7.49c.25-.87.8-4.41,2.18-3.06,1.27,1.24,2.48,2.46,4.13,3.21,2.51,1.14,5.94.9,7.61-1.55,1.12-1.64,1.13-3.95,1.26-5.85.17-2.36.17-4.72.05-7.07-.07-1.26-2.03-1.27-1.96,0h0Z"/>
    <path class="cls-3" d="M170.53,133.27c-2.88-1.82-4.89-5.13-4.46-8.62.2-1.61.9-3.2,2.01-4.39,1.29-1.37,3.03-2.05,4.86-2.37,3.43-.6,7.46-.19,8.74,3.57.58,1.7.84,3.66.71,5.45-.15,2.03-1.24,3.59-2.69,4.95-2.56,2.39-7.54,4.56-10.21,1.03-.75-1-2.46-.02-1.7.99,2.81,3.73,7.91,3.32,11.44.87,1.84-1.28,3.61-2.97,4.5-5.07.94-2.21.72-4.75.28-7.06-.39-2.08-1.26-4.12-3.01-5.4s-4.06-1.61-6.19-1.5c-2.3.11-4.74.58-6.67,1.91-1.71,1.18-2.93,2.91-3.59,4.87-1.61,4.8.86,9.86,4.98,12.47,1.07.68,2.06-1.02.99-1.7h0Z"/>
    <path class="cls-3" d="M160.75,121.04c2.59-7.73,12.81-8.88,19.72-8.02,4.03.5,6.94,3.46,10.8,4.38s7.66-.19,11.06-1.87c1.13-.56.14-2.26-.99-1.7-4.14,2.05-8.45,2.66-12.64.43-1.69-.9-3.31-1.94-5.14-2.57-2.05-.7-4.27-.8-6.42-.81-7.19-.02-15.71,1.96-18.28,9.62-.4,1.2,1.49,1.72,1.89.52h0Z"/>
    <path class="cls-3" d="M160.08,126.98c.06-4.1-1.93-7.88-5.26-10.24l.35,1.34c1.19-2.51,2.18-5.23,2.54-8,.13-1.01-.04-1.93-.85-2.6s-1.9-.82-2.8-1.29c-3.91-2.03-5.97-6.87-4.74-11.09.11-.39-.07-.92-.45-1.11-.8-.4-1.6-.55-2.5-.53s-2,.31-2.92.03c-1.58-.48-1.79-2.69-2.4-3.97-1.93-4.07-6.62-3.09-9.98-1.69-1.15.48-.65,2.38.52,1.89,1.8-.75,3.94-1.71,5.91-1,1.76.64,2.03,2.38,2.66,3.91.53,1.28,1.37,2.38,2.77,2.76,1.59.43,3.46-.44,4.95.3l-.45-1.11c-1.14,3.91.05,8.2,2.82,11.14.66.7,1.43,1.33,2.25,1.83s1.82.7,2.66,1.18c1.25.72.27,2.95-.06,4.09-.42,1.46-.96,2.88-1.61,4.26-.24.51-.11,1.01.35,1.34,2.76,1.96,4.33,5.17,4.28,8.54-.02,1.26,1.95,1.27,1.96,0h0Z"/>
    <path class="cls-3" d="M138.79,104.94c3.35,3.09,6.5,6.38,9.44,9.86.34.41,1.04.35,1.39,0,.4-.4.34-.98,0-1.39-2.93-3.48-6.09-6.78-9.44-9.86-.93-.86-2.32.53-1.39,1.39h0Z"/>
    <path class="cls-3" d="M142.09,112.33c-3.99-4.34-8.88-7.7-14.31-9.95l.59,1.44c.42-.66,1.1-1.05,1.75-1.46.72-.45,1.45-.9,2.17-1.35,1.54-.96,3.08-1.91,4.62-2.87.18-.11.36-.22.54-.34l.27-.17c.19-.07.18-.12-.04-.14-.37-.28.09.19.14.24.14.13.28.27.42.4.59.57,1.15,1.17,1.69,1.79,1.08,1.25,2.03,2.61,2.88,4.03.64,1.09,2.34.1,1.7-.99-.98-1.65-2.11-3.21-3.37-4.65-.64-.72-1.31-1.42-2.02-2.07-.76-.7-1.44-.86-2.37-.31-1.83,1.08-3.62,2.25-5.43,3.37-1.6.99-3.59,1.88-4.63,3.52-.38.59.03,1.21.59,1.44,5.12,2.12,9.7,5.37,13.45,9.45.86.93,2.24-.46,1.39-1.39h0Z"/>
    <path class="cls-3" d="M115.07,108.94c-5.46-.35-11.17-.67-16.34,1.47-4.31,1.78-7.89,5.02-10.12,9.11-.61,1.11,1.09,2.1,1.7.99,2.09-3.83,5.49-6.92,9.59-8.46,4.84-1.82,10.12-1.47,15.17-1.14,1.26.08,1.26-1.88,0-1.96h0Z"/>
    <path class="cls-3" d="M84.57,114.16c-.74-2.02-1.53-4.22-.81-6.36.52-1.56,1.97-2.41,3.58-2.18s2.87,1.48,3.23,3.1c.39,1.72-.19,3.61-1.43,4.85s-3.61,1.77-4.75.09c-.7-1.04-2.4-.06-1.7.99,1.45,2.16,4.36,2.58,6.54,1.31s3.49-3.87,3.4-6.39-1.46-4.7-3.82-5.58c-2.22-.84-4.74-.23-6.16,1.7-1.97,2.68-1.03,6.16.01,8.99.18.5.67.84,1.21.69.48-.13.87-.71.69-1.21h0Z"/>
    <path class="cls-3" d="M93.75,101.21c.05,1.82.22,3.64.55,5.44.22,1.24.44,2.96,2.09,2.86,1.45-.09,3.04-1.26,4.36-1.81,1.74-.73,3.52-1.33,5.37-1.71,3.44-.71,7.11-.91,10.63-.93,3.15-.02,6.49.37,8.99,2.47.96.81,2.36-.58,1.39-1.39-4.68-3.92-11.35-3.18-17.01-2.67-3.48.31-6.78,1.04-10.01,2.38-.71.3-1.42.61-2.12.93-.37.17-.89.56-1.28.6-.37.03-.22.22-.32-.32-.36-1.94-.6-3.87-.66-5.85-.03-1.26-2-1.27-1.96,0h0Z"/>
    <path class="cls-3" d="M116.13,98.97c-3.06-.18-6.16.27-9.05,1.31-.5.18-.83.67-.69,1.21.13.48.71.87,1.21.69,2.74-.99,5.62-1.41,8.53-1.24.53.03.98-.47.98-.98,0-.56-.45-.95-.98-.98h0Z"/>
    <path class="cls-3" d="M102.84,100.8c.54-2.33,1.25-4.61,2.15-6.83.44-1.1.94-2.18,1.48-3.23.15-.3.46-1.26.81-1.4.15-.06.74.14.89.17.31.07.61.14.92.22,2.2.57,4.48,1.25,6.56,2.16.44.19.89.42,1.28.71.23.17.9.7.86,1.03.02-.19-.37.34-.38.36-.2.2-.42.4-.64.57-.46.36-.97.65-1.5.9-1.14.55-.14,2.25.99,1.7,1.19-.58,2.82-1.57,3.36-2.85.49-1.16-.45-2.39-1.31-3.1-.96-.79-2.13-1.23-3.28-1.63-1.54-.54-3.09-1.08-4.66-1.52-1.23-.35-3.11-1.14-4.28-.3-.5.36-.76.93-1.04,1.46-.38.72-.74,1.45-1.07,2.19-1.31,2.86-2.32,5.83-3.03,8.89-.29,1.23,1.61,1.76,1.89.52h0Z"/>
    <path class="cls-3" d="M123.24,98.36c-.5-.71-1.06-1.46-1.23-2.34-.1-.5-.04-1.16.4-1.51.27-.21.6-.31.92-.42.45-.16.9-.34,1.34-.53.67-.29,1.43-.64,2.15-.56,1.21.14,2.26,1.39,2.29,2.59.03,1.33-.88,2.58-2.09,3.16-1.6.76-3.49.24-4.86-.75-.43-.31-1.09-.07-1.34.35-.29.5-.08,1.03.35,1.34,1.75,1.27,4.19,1.79,6.25,1s3.47-2.59,3.64-4.72-1.29-4.1-3.25-4.75c-1.07-.35-2.18-.17-3.2.24-.47.19-.93.41-1.41.59-.54.2-1.1.35-1.6.64-1.09.62-1.65,1.84-1.59,3.07.07,1.35.78,2.49,1.53,3.57.3.43.86.64,1.34.35.43-.25.66-.91.35-1.34h0Z"/>
    <path class="cls-3" d="M99.78,101.78c-.35-2.25-1.17-4.43-2.36-6.38-.27-.44-.89-.64-1.34-.35s-.64.87-.35,1.34c1.12,1.84,1.82,3.74,2.16,5.91.08.51.74.84,1.21.69.55-.18.77-.66.69-1.21h0Z"/>
    <path class="cls-3" d="M95.96,95.17c-4.64.84-9.12,2.42-13.27,4.66-1.11.6-.12,2.3.99,1.7,4.01-2.16,8.32-3.66,12.8-4.46,1.24-.22.72-2.12-.52-1.89h0Z"/>
    <path class="cls-3" d="M79.05,107.43c1.26,0,1.27-1.96,0-1.96s-1.27,1.96,0,1.96h0Z"/>
    <path class="cls-3" d="M76.33,104.92c1.26,0,1.27-1.96,0-1.96s-1.27,1.96,0,1.96h0Z"/>
    <path class="cls-3" d="M69.21,102.82c1.26,0,1.27-1.96,0-1.96s-1.27,1.96,0,1.96h0Z"/>
    <path class="cls-3" d="M64.62,93.27c.45,1.75,2.29,2.66,3.99,2.58,1.12-.05,2.17-.44,3.23-.74.44-.13,1.13-.4,1.58-.18.4.2.6.74.72,1.13.3.99.4,2.04,1.02,2.91.46.64,1.08,1.12,1.8,1.43,1.58.68,3.32.46,4.66-.61.99-.79-.41-2.17-1.39-1.39-.9.71-2.34.51-3.16-.22-.57-.51-.7-1.27-.87-1.99-.2-.84-.46-1.64-1.03-2.31-1.33-1.57-3.26-.83-4.93-.34-1.1.32-3.33.8-3.74-.8-.31-1.22-2.21-.71-1.89.52h0Z"/>
    <path class="cls-3" d="M162.54,113.73c.52-2.42,2.36-4.27,3.83-6.17s2.96-3.94,4.05-6.15c1.82-3.7,3.13-9.12.46-12.76-1.09-1.49-3.03-2.44-4.87-1.94s-3.07,2.2-3.7,3.88c-1.31,3.51-.06,7.7,2.74,10.11,6.17,5.31,16.06,2.59,20.04-4.05,1.61-2.68,3.13-8.29-1.1-9.43-1.53-.41-3.27.07-4.47,1.08-1.57,1.33-2.13,3.44-2.35,5.4-.27,2.38-.3,4.97.68,7.21.85,1.94,2.36,3.51,4.12,4.65,4.5,2.93,10.07,2.56,15.18,2.12,1.25-.11,1.26-2.07,0-1.96-3.76.33-7.7.7-11.35-.49-2.82-.92-5.57-2.96-6.44-5.9-.49-1.66-.42-3.52-.25-5.23s.58-3.7,2.14-4.61c1.23-.72,3.08-.66,3.48.97s-.38,3.54-1.15,4.9c-3,5.35-10.34,7.99-15.83,4.85-2.61-1.49-4.25-4.33-3.95-7.37.14-1.46.82-3.14,2.1-3.96,1.99-1.27,3.76,1,4.21,2.72,1.05,4.01-.8,8.25-2.96,11.55-1.19,1.83-2.57,3.52-3.91,5.24-1.15,1.47-2.2,2.97-2.59,4.82-.27,1.23,1.63,1.76,1.89.52h0Z"/>
    <path class="cls-3" d="M188.26,98.1c1.96,2.97,5.51,4.78,9.08,4.49.53-.04.98-.42.98-.98,0-.5-.45-1.03-.98-.98-2.86.23-5.78-1.08-7.38-3.52-.29-.44-.87-.63-1.34-.35-.44.26-.65.9-.35,1.34h0Z"/>
    <path class="cls-3" d="M160.41,101.36s0,.09-.02.14l.04-.26c-.05.34-.14.67-.27.99l.1-.23c-.1.23-.22.45-.36.66-.03.05-.07.1-.11.15-.1.14.15-.19.04-.05-.08.09-.16.19-.25.28s-.18.17-.28.25c-.06.05-.2.13.05-.04-.05.03-.1.07-.15.11-.21.14-.43.26-.66.36l.23-.1-.04.02c-.25.1-.45.21-.59.45-.12.21-.18.52-.1.76s.22.47.45.59.52.2.76.1c.49-.2.91-.44,1.32-.76.35-.27.62-.59.89-.95.54-.71.82-1.57.9-2.45.02-.24-.13-.53-.29-.69-.17-.17-.45-.3-.69-.29s-.52.09-.69.29-.26.42-.29.69h0Z"/>
    <path class="cls-3" d="M158.3,99.41c.19-2.41-.22-4.84.05-7.25s1.57-4.26,3.1-6.01c.83-.95-.55-2.34-1.39-1.39-1.7,1.94-3.18,4.04-3.58,6.64s.06,5.34-.15,8.01c-.1,1.26,1.87,1.25,1.96,0h0Z"/>
    <path class="cls-3" d="M189.47,83.45c3.49,2.9,5.27,7.65,4.36,12.13-.25,1.23,1.64,1.76,1.89.52,1.04-5.13-.82-10.68-4.86-14.04-.97-.8-2.36.58-1.39,1.39h0Z"/>
    <path class="cls-3" d="M188.12,79.11c.48-2.38,1.28-4.63,2.42-6.77.28-.53.06-1.3-.59-1.44-9.9-2.24-19.96-3.69-30.08-4.34-1.26-.08-1.26,1.88,0,1.96,9.95.64,19.83,2.06,29.56,4.27l-.59-1.44c-1.21,2.29-2.1,4.7-2.61,7.24-.25,1.23,1.64,1.76,1.89.52h0Z"/>
    <path class="cls-3" d="M159.27,66.49c-1.32-.1-2.62.11-3.85.59-.66.26-1.29.57-1.9.93-.3.18-.59.37-.87.57-.07.05-.59.52-.52.51.04.25-.03.15-.19-.29l-.2-.39c-.17-.33-.35-.65-.54-.97-.38-.64-.78-1.26-1.21-1.86-.6-.82-1.29-1.69-2.4-1.13-.58.29-1.11.88-1.62,1.27-.59.44-1.19.87-1.81,1.27s-1.25.79-1.89,1.15-1.04.82-1.61.3c-1.06-.97-1.64-2.39-2.73-3.35-.93-.83-1.99-1.32-3.24-1.37s-1.26,1.92,0,1.96c1.73.06,2.71,1.72,3.63,2.96.67.91,1.49,2.18,2.75,2.12s2.68-1.2,3.7-1.85c.62-.4,1.23-.81,1.83-1.25.52-.38,1.39-1.36,2.01-1.49l-.76-.1c.49.24.89,1.12,1.19,1.58.36.56.7,1.14,1.01,1.72.48.92.95,2.06,2.22,1.73,1.06-.27,1.98-1.32,2.98-1.82,1.28-.65,2.6-.96,4.03-.85,1.26.09,1.26-1.87,0-1.96h0Z"/>
    <path class="cls-3" d="M134.39,63.7c-4.44.09-7.86,3.41-12.16,4.01l1.24.95c-.2-2.65.2-5.62-2.28-7.34-1.04-.72-2.03.98-.99,1.7,1.69,1.17,1.18,3.91,1.31,5.64.05.7.58,1.04,1.24.95,4.11-.57,7.44-3.86,11.64-3.94,1.26-.02,1.27-1.99,0-1.96h0Z"/>
    <path class="cls-3" d="M118.74,72.01c.52,4.32,1.58,9.81,6.53,11.06,2.02.51,4.04-.15,5.5-1.6,1.83-1.82,2.43-4.38,2.81-6.85l-1.93-.26c.44,4.12,1.67,9.37,6.44,10.37s7.26-4.04,8.22-7.92h-1.89c.53,2.06.12,4.38,1.28,6.26,1.03,1.67,3.02,2.5,4.94,2.37,5.03-.33,7.06-5.62,9-9.45.57-1.13-1.12-2.12-1.7-.99-1.53,3.02-3.05,7.69-6.89,8.42-1.69.32-3.44-.4-4-2.11-.53-1.61-.31-3.38-.73-5.03-.24-.93-1.66-.94-1.89,0-.7,2.82-2.29,7.57-6.16,6.46-3.56-1.02-4.3-5.24-4.64-8.39-.11-1-1.74-1.45-1.93-.26-.48,3.04-1.99,8.43-6.24,6.98-3.71-1.27-4.34-5.72-4.74-9.07-.15-1.24-2.12-1.25-1.96,0h0Z"/>
    <path class="cls-3" d="M166.15,78.66c.86-.19,1.8.51,2.56.84.68.3,1.37.57,2.07.8,1.58.52,3.23.85,4.9.93,3.06.15,6.17-.64,8.68-2.42,1.02-.73.04-2.43-.99-1.7-2.53,1.8-5.6,2.43-8.66,2.08-1.59-.18-3.15-.63-4.63-1.23s-2.8-1.57-4.44-1.2c-1.23.28-.71,2.17.52,1.89h0Z"/>
    <path class="cls-3" d="M172.46,74.91c1.26,0,1.27-1.96,0-1.96s-1.27,1.96,0,1.96h0Z"/>
    <path class="cls-3" d="M151.33,79.55c1.26,0,1.27-1.96,0-1.96s-1.27,1.96,0,1.96h0Z"/>
    <path class="cls-3" d="M139.79,77.9c1.26,0,1.27-1.96,0-1.96s-1.27,1.96,0,1.96h0Z"/>
    <path class="cls-3" d="M125.39,75.21c1.26,0,1.27-1.96,0-1.96s-1.27,1.96,0,1.96h0Z"/>
    <path class="cls-3" d="M162.27,62.16c1.26,0,1.27-1.96,0-1.96s-1.27,1.96,0,1.96h0Z"/>
    <path class="cls-3" d="M169.02,64.26c1.26,0,1.27-1.96,0-1.96s-1.27,1.96,0,1.96h0Z"/>
    <path class="cls-3" d="M177.86,65.91c1.26,0,1.27-1.96,0-1.96s-1.27,1.96,0,1.96h0Z"/>
    <path class="cls-3" d="M187,67.56c1.26,0,1.27-1.96,0-1.96s-1.27,1.96,0,1.96h0Z"/>
    <path class="cls-3" d="M177.6,53.76l3.02,4.24c.89,1.24,1.71,2.71,2.86,3.73s2.51,1.19,4.01,1.22c1.73.04,3.47.07,5.2.11,1.26.03,1.26-1.94,0-1.96-1.51-.03-3.01-.06-4.52-.09-1.35-.03-2.62.09-3.62-.96s-1.69-2.25-2.49-3.38l-2.77-3.9c-.73-1.02-2.43-.04-1.7.99h0Z"/>
    <path class="cls-3" d="M195.42,55.12c-3.15-4.17-6.31-8.34-9.46-12.51l-.85,1.48c4.82.44,9.64.89,14.46,1.33.24.02.99-.03,1.19.17.13.13-.37.93-.5,1.21-.53,1.07-1.06,2.14-1.6,3.2-1.08,2.13-2.18,4.25-3.29,6.36l1.54-.2c-.58-.59-1.16-1.19-1.75-1.78-.89-.9-2.28.49-1.39,1.39.58.59,1.16,1.19,1.75,1.78.43.44,1.25.36,1.54-.2,1.32-2.49,2.61-5,3.88-7.52.82-1.64,3.27-5,.51-6.07-1.07-.41-2.38-.36-3.52-.46-1.42-.13-2.85-.26-4.27-.39-2.85-.26-5.69-.52-8.54-.79-.7-.06-1.28.9-.85,1.48,3.15,4.17,6.31,8.34,9.46,12.51.75,1,2.46.02,1.7-.99h0Z"/>
    <path class="cls-3" d="M189.11,57.12c-4.37-4.92-9.13-9.53-14.29-13.62-.92-.73-2.08-1.5-3.29-.97s-1.84,2.33-2.38,3.44c-.69,1.43-1.28,2.91-1.76,4.42-.44,1.37-1.01,2.98-1.01,4.43,0,1.7,1.89,2.26,3.14,2.9,1.8.91,3.62,1.79,5.44,2.65,1.14.54,2.14-1.16.99-1.7-1.64-.77-3.28-1.56-4.9-2.38-.67-.33-1.79-.68-2.34-1.19-.62-.58-.14-1.61.05-2.39.41-1.61.94-3.2,1.6-4.73.3-.69.63-1.36.98-2.03.2-.37.42-1.03.73-1.31s.42-.31.87-.09c.71.35,1.35,1.05,1.96,1.55.64.53,1.27,1.07,1.9,1.61,1.26,1.09,2.49,2.21,3.7,3.35,2.51,2.37,4.91,4.86,7.2,7.45.84.95,2.23-.45,1.39-1.39h0Z"/>
    <path class="cls-3" d="M163.17,52.12c-1.41-.05-2.83-.1-4.24-.15-1.19-.04-2.76-.31-3.63.72-.34.4-.4.99,0,1.39.35.35,1.04.41,1.39,0,.04-.05.08-.1.13-.14-.07.06-.06.06.04,0-.15.01.1-.02.14-.03.19-.05-.04-.02.15-.02.14,0,.28,0,.41,0,.6.01,1.2.04,1.8.06,1.27.05,2.54.09,3.82.14.53.02.98-.46.98-.98,0-.55-.45-.96-.98-.98h0Z"/>
    <path class="cls-3" d="M156.13,49.08l4.24.11,2.08.05c.19,0,.37,0,.56.01.03,0,.31.03.15,0,.01,0,.3.08.3.08-.03.05-.18-.16-.18-.18.33,1.22,2.23.7,1.89-.52-.45-1.66-2.69-1.35-4-1.39l-5.04-.13c-1.26-.03-1.26,1.93,0,1.96h0Z"/>
    <path class="cls-3" d="M156.16,44.1c2.1.31,3.94-.45,5.94-.93,1.3-.31,2.95-.46,3.97.58.89.9,2.28-.49,1.39-1.39-1.31-1.34-3.21-1.52-4.98-1.26-1.91.28-3.83,1.4-5.79,1.11-.52-.08-1.06.13-1.21.69-.13.46.16,1.13.69,1.21h0Z"/>
    <path class="cls-3" d="M149.82,56.09c2.83-2.37,4.31-5.86,4.72-9.47s-.03-8.02-2.99-10.31c-1-.77-1.98.93-.99,1.7,1.26.98,1.68,2.74,1.92,4.23s.27,3.12.06,4.65c-.41,3.02-1.75,5.84-4.11,7.81-.97.81.43,2.2,1.39,1.39h0Z"/>
    <path class="cls-3" d="M141.03,42.23c2.25.58,4.08,2.53,4.39,4.85s-.96,4.62-2.93,5.75c-1.25.71-2.73.84-4.15.77s-2.81-.31-3.78-1.4c-1.72-1.93-1.97-5.01-.73-7.24.65-1.17,1.63-2.11,2.82-2.72,1.12-.58,2.88-1.04,3.98-.17.42.33.98.4,1.39,0,.35-.34.41-1.06,0-1.39-2.78-2.21-6.87-.53-8.92,1.92-2.23,2.66-2.62,6.47-.95,9.53.86,1.59,2.23,2.76,4.02,3.17s3.82.45,5.6-.05c3.17-.87,5.48-3.84,5.66-7.11.2-3.58-2.44-6.92-5.86-7.8-1.23-.31-1.75,1.58-.52,1.89h0Z"/>
    <path class="cls-3" d="M139.03,61.67c2.88-.54,5.8-.76,8.73-.79,1.91-.02,5.49.07,5.69,2.7.1,1.25,2.06,1.26,1.96,0-.25-3.23-3.4-4.53-6.25-4.65-3.54-.15-7.18.2-10.66.85-1.24.23-.72,2.13.52,1.89h0Z"/>
    <path class="cls-3" d="M131.49,57.86c-3.09-.62-5.91-2.19-9.03-2.66-2.72-.4-5.41.08-7.48,1.99-1.82,1.67-2.89,4.06-3.61,6.38-.89,2.9-1.26,6.04-.25,8.95.41,1.19,2.31.68,1.89-.52-.91-2.6-.55-5.32.25-7.91.62-2.02,1.52-4.07,3.1-5.52,4.16-3.82,10.12.27,14.6,1.17,1.23.25,1.76-1.64.52-1.89h0Z"/>
    <path class="cls-3" d="M129.65,51.95c-2.51-4.07-3.69-9.82.13-13.53.91-.88-.48-2.27-1.39-1.39-1.98,1.92-3,4.62-3.06,7.36-.07,3.04,1.05,5.99,2.62,8.55.66,1.07,2.36.09,1.7-.99h0Z"/>
    <path class="cls-3" d="M124.04,86.4c-1.22.11-2.44.12-3.65-.02-.53-.06-1.17-.1-1.67-.3-.58-.23-.59-.67-.69-1.24-.45-2.5-.88-4.99-1.31-7.49-.12-.67-.93-.84-1.44-.59-3.32,1.65-6.65,3.3-9.97,4.96-1.13.56-.14,2.26.99,1.7,3.32-1.65,6.65-3.3,9.97-4.96l-1.44-.59c.26,1.51.53,3.02.79,4.53.24,1.34.28,2.98.87,4.22s1.92,1.45,3.15,1.63c1.47.21,2.93.26,4.41.12,1.25-.11,1.26-2.08,0-1.96h0Z"/>
    <path class="cls-3" d="M100.71,93.71c-3.16-2.57-6.06-5.48-8.52-8.73-1.3-1.72-2-3.47-.46-5.31,1.11-1.33,3.27-2.34,4.93-1.42s1.9,3.07,1.9,4.7c.01,2.05-.55,4.09-1.6,5.85-1.94,3.26-5.52,5.29-9.29,5.42-2.4.08-4.74-.48-7.02-1.18-2.05-.64-4.69-1.2-6.23-2.77-.89-.91-2.27.48-1.39,1.39,1.67,1.71,4.22,2.34,6.43,3.07,2.64.86,5.41,1.57,8.21,1.47,4.67-.16,9.09-2.77,11.29-6.94,1.82-3.44,2.8-9.72-.87-12.4s-9.12.84-9.27,5.01c-.1,2.66,2.28,4.99,3.9,6.86,2.01,2.32,4.22,4.45,6.61,6.38.97.79,2.37-.59,1.39-1.39h0Z"/>
    <path class="cls-3" d="M74.12,89.94c-.66-.47-1.32-.95-1.97-1.44-.16-.12-.32-.25-.48-.37-.09-.07-.08-.06.02.01-.04-.03-.08-.06-.12-.09-.08-.06-.16-.12-.24-.19-.32-.25-.64-.5-.95-.76-.21-.17-.42-.29-.69-.29-.24,0-.53.11-.69.29-.33.36-.43,1.04,0,1.39,1.35,1.09,2.73,2.14,4.14,3.14.42.3,1.11.09,1.34-.35.27-.5.1-1.03-.35-1.34h0Z"/>
    <path class="cls-3" d="M72.79,83.52c4.65.38,8.74,2.91,12.61,5.3.72.44,1.69-.29,1.44-1.11-.89-2.88-1.77-5.77-2.66-8.65l-1.33-4.33c-.35-1.13-.57-2.74-1.44-3.61-2.19-2.2-4.12,2.06-5.03,3.43-1.56,2.34-3.29,4.56-5.17,6.66-.84.94.54,2.33,1.39,1.39,1.56-1.74,3.03-3.57,4.39-5.48.68-.96,1.34-1.94,1.97-2.94.28-.45.53-.99.88-1.39.08-.11.18-.2.29-.27l-.07.03c.16.1.23.53.28.7,1.56,4.99,3.07,9.99,4.61,14.99l1.44-1.11c-4.21-2.6-8.57-5.16-13.61-5.57-1.26-.1-1.25,1.86,0,1.96h0Z"/>
    <path class="cls-3" d="M81.04,68.83l3.63,3.95c.83.91,1.6,1.94,2.97,1.61,2.83-.69,4.71-3.57,7.79-3.7,1.46-.06,2.83.66,3.86,1.65s1.46,2.23,2.26,3.36c.63.89,1.59,1.47,2.71,1.21,1.65-.39,3.3-1.41,4.85-2.09,1.15-.51.16-2.2-.99-1.7-.74.33-1.47.65-2.21.98-.47.21-1.76,1.04-2.23.92-.57-.15-.85-1.02-1.09-1.48-.29-.55-.62-1.07-1-1.56-1.43-1.85-3.58-3.24-5.98-3.25-2.54-.01-4.65,1.53-6.71,2.81-.42.26-1.17.9-1.68.89-.46,0-1.16-1.04-1.48-1.39l-3.32-3.6c-.86-.93-2.24.46-1.39,1.39h0Z"/>
    <path class="cls-3" d="M122.72,42.86c-.77-.95-1.55-1.88-2.36-2.8-.56-.64-1.21-1.63-2.16-1.64-1,0-1.91,1.15-2.65,1.7-.3.23-1.03.95-1.4.97.03.1,0,.1-.08,0-.12-.09-.24-.18-.36-.28-.23-.17-.46-.35-.68-.53-.95-.73-1.87-1.56-2.87-2.21s-1.76-.14-2.42.69c-1.58,2-3.15,4-4.73,6-.77.98.61,2.38,1.39,1.39.88-1.12,1.76-2.23,2.64-3.35.44-.56.88-1.12,1.32-1.67.35-.45.82-1.32,1.33-1.56l-.76.1c.6.13,1.39,1,1.87,1.36.55.42,1.09.84,1.64,1.26.45.35.89.77,1.5.82.69.05,1.23-.35,1.77-.72s1.06-.76,1.58-1.16c.25-.2.77-.48.93-.76.21-.15.17-.16-.13-.04.15.16.3.33.45.49.96,1.07,1.9,2.17,2.8,3.29.79.98,2.18-.41,1.39-1.39h0Z"/>
    <path class="cls-3" d="M100.22,45.29c.32-1.46-.58-2.79-1.98-3.26-1.71-.56-3.84,0-5.6.09-4.1.24-8.22.14-12.31-.25-1.26-.12-1.25,1.85,0,1.96,3.22.31,6.46.43,9.7.35,1.62-.04,3.23-.13,4.85-.27.63-.05,3.76-.59,3.45.84-.27,1.23,1.62,1.76,1.89.52h0Z"/>
    <path class="cls-3" d="M122.5,48.79c-1.23-1.27-2.59-2.37-4.1-3.29-.44-.27-1.09-.1-1.34.35-.71,1.28-1.49,2.5-2.39,3.66h1.39c-1.04-.95-2.08-1.9-3.11-2.85-.44-.4-1.24-.39-1.54.2s-.59,1.17-.89,1.75c-.27.53-.5,1.3-.89,1.75-.68.81-2.49-.11-3.4-.4-2.51-.79-5-1.62-7.54-2.29-4.95-1.3-10-2.18-15.09-2.68-1.26-.12-1.25,1.84,0,1.96,5.87.58,11.68,1.71,17.33,3.38,1.37.41,2.73.86,4.09,1.3,1.25.4,2.59.94,3.9,1.1.94.11,1.65-.22,2.18-1,.79-1.19,1.35-2.62,1.99-3.89l-1.54.2c1.04.95,2.08,1.9,3.11,2.85.35.32,1.05.43,1.39,0,1-1.29,1.9-2.63,2.7-4.06l-1.34.35c1.37.85,2.58,1.83,3.7,2.99.88.91,2.27-.48,1.39-1.39h0Z"/>
    <path class="cls-3" d="M82.37,46.33c.1,6.62,5.08,11.35,7.4,17.19.46,1.16,2.36.66,1.89-.52-2.21-5.57-7.23-10.4-7.33-16.67-.02-1.26-1.98-1.27-1.96,0h0Z"/>
    <path class="cls-3" d="M90.65,54.69c4.02,5.39,8.3,10.58,12.85,15.54.41.45,1.27.36,1.54-.2,1.17-2.35,2.19-4.77,3.04-7.26.37-1.08.93-2.32,1-3.47s-.73-1.84-1.74-2.13c-1.29-.37-2.66-.56-3.97-.84s-2.64-.55-3.96-.82c-2.75-.57-5.5-1.14-8.25-1.71-1.23-.26-1.76,1.64-.52,1.89,4.67.97,9.35,1.94,14.02,2.91.55.11,1.1.22,1.65.34.47.1.87.05.73.58-.28,1.07-.64,2.13-1.01,3.18-.76,2.17-1.66,4.28-2.68,6.34l1.54-.2c-4.43-4.84-8.62-9.89-12.54-15.14-.75-1-2.45-.02-1.7.99h0Z"/>
    <path class="cls-3" d="M75.08,47.42c-1.6,3.05-2.99,6.3-3.52,9.73-.42,2.71-.82,6.87,1.55,8.85s5.63,1.18,7.88-.56c1.32-1.02,1.99-2.14,1.95-3.83-.04-1.56-.36-3.13-.87-4.6-1.2-3.49-3.35-6.54-5.51-9.5-.74-1.01-2.44-.03-1.7.99,1.54,2.11,3.07,4.25,4.25,6.58.59,1.16,1.08,2.36,1.41,3.62.3,1.14.66,2.6.4,3.78s-1.92,2.08-2.96,2.46c-1.1.4-2.37.42-3.37-.26s-1.21-2.02-1.3-3.18c-.1-1.38-.03-2.78.2-4.15.54-3.15,1.79-6.12,3.27-8.93.59-1.12-1.11-2.11-1.7-.99h0Z"/>
    <path class="cls-3" d="M68.59,68.72c-1.02-3.91-2.07-7.89-2.02-11.97.02-1.81.27-3.6.81-5.33.37-1.17,1.5-4.54,3.03-4.59,1.26-.04,1.27-2,0-1.96-2.1.06-3.28,2.18-4.08,3.87-.91,1.93-1.41,3.99-1.63,6.11-.49,4.87.77,9.71,1.98,14.38.32,1.22,2.21.7,1.89-.52h0Z"/>
    <path class="cls-3" d="M64.44,44.93c-.1,0-.2-.02-.3-.03l.26.04c-.38-.05-.75-.15-1.1-.3l.23.1c-.35-.15-.68-.34-.99-.58l.2.15c-.06-.04-.11-.09-.16-.13-.2-.17-.42-.29-.69-.29-.24,0-.53.11-.69.29s-.3.43-.29.69.09.53.29.69c.49.42,1.01.73,1.61.97.52.21,1.08.32,1.64.36.24.02.53-.12.69-.29s.3-.45.29-.69-.09-.52-.29-.69-.42-.27-.69-.29h0Z"/>
    <path class="cls-3" d="M61.85,51.36h-2.91c-.51,0-1.01.45-.98.98s.43.98.98.98h2.91c.51,0,1.01-.45.98-.98s-.43-.98-.98-.98h0Z"/>
    <path class="cls-3" d="M60.72,59.11h-2.42c-.25,0-.52.11-.69.29s-.3.45-.29.69c.02.53.43.98.98.98h2.42c.25,0,.52-.11.69-.29s.3-.45.29-.69c-.02-.53-.43-.98-.98-.98h0Z"/>
    <path class="cls-3" d="M61.37,65.56c-.58.07-1.14.17-1.69.37s-1.07.43-1.56.73c-.44.27-.65.89-.35,1.34s.88.64,1.34.35c.3-.19.61-.35.94-.49l-.23.1c.55-.23,1.12-.39,1.71-.47l-.26.04s.06,0,.1-.01c.27-.03.49-.09.69-.29.17-.17.3-.45.29-.69s-.09-.52-.29-.69c-.18-.16-.44-.32-.69-.29h0Z"/>
    <path class="cls-3" d="M55.38,83.18c.35-2.88-.79-6.21,1.35-8.62,1.93-2.16,5.19-2.55,7.72-1.24s4.06,3.92,4,6.77c-.03,1.38-.42,2.97-1.43,3.97s-2.58,1.46-3.96,1.74c-3.08.61-6.58-.31-7.95-3.37-.52-1.15-2.21-.15-1.7.99,1.46,3.27,5.17,4.77,8.58,4.49,1.81-.15,3.75-.62,5.3-1.59s2.5-2.57,2.89-4.36c.78-3.55-.54-7.27-3.43-9.48s-6.95-2.59-9.97-.56c-1.59,1.07-2.79,2.72-3.18,4.61-.45,2.2.07,4.44-.2,6.65-.06.53.5.98.98.98.58,0,.92-.46.98-.98h0Z"/>
    <path class="cls-3" d="M52.58,88.7c-.76-2.46-1.64-4.93-1.94-7.5-.14-1.15-.17-2.33-.02-3.48.08-.62.21-1.23.4-1.82.08-.25.17-.51.27-.75.07-.17.15-.33.23-.49.21-.25.16-.32-.14-.2,1.24-.14,1.26-2.1,0-1.96-1.44.16-1.92,1.8-2.28,3.01-.43,1.45-.57,2.99-.5,4.5.14,3.18,1.17,6.21,2.11,9.23.37,1.2,2.27.69,1.89-.52h0Z"/>
    <path class="cls-3" d="M53.74,67.74c-1.86.21-3.54-1.41-2.68-3.31.5-1.1,1.7-1.8,2.52-2.64,1.82-1.86,1.69-4.01.05-5.94-.7-.82-1.91-1.71-2.04-2.85-.2-1.68,1.96-2.65,3.08-3.46s2.05-1.79,2.43-3.19c.29-1.04.33-4.73,2.22-4.05,1.19.43,1.71-1.47.52-1.89-1.71-.61-3.32.66-3.95,2.21-.34.85-.38,1.76-.56,2.65-.24,1.23-.81,1.97-1.81,2.69-1.4,1.01-3.05,1.87-3.68,3.59-.57,1.54.02,2.94,1,4.14.83,1,2.66,2.29,2.04,3.79-.55,1.31-2.18,2.11-3.04,3.22-2.33,3.03.03,7.43,3.89,7.01,1.24-.14,1.26-2.1,0-1.96h0Z"/>
    <path class="cls-3" d="M40.06,86.71c-4.76.98-9.33,2.7-13.57,5.08-.62.35-.65,1.35,0,1.7,2.11,1.11,4.23,2.23,6.34,3.34,1.06.56,2.11,1.11,3.17,1.67.83.44,1.78,1.18,2.72,1.34.86.15,1.39-.47,1.91-1.06.8-.9,1.6-1.81,2.41-2.71,1.65-1.86,3.3-3.72,4.95-5.58.84-.94-.55-2.34-1.39-1.39-1.43,1.61-2.85,3.21-4.28,4.82-.71.8-1.43,1.61-2.14,2.41-.31.35-.88.79-1.07,1.21-.37.23-.37.36,0,.38l-.53-.28c-3.7-1.95-7.4-3.9-11.1-5.84v1.7c4.1-2.31,8.5-3.94,13.1-4.89,1.24-.25.71-2.15-.52-1.89h0Z"/>
    <path class="cls-3" d="M42.04,92.29c.84-1,1.65-2.03,2.41-3.09.36-.5.78-1,1.02-1.57.26-.61.21-1.19.03-1.81-.69-2.34-1.86-4.57-3.27-6.55-.28-.4-.88-.69-1.34-.35-2.9,2.11-6.09,3.78-9.5,4.93-1.19.4-.68,2.3.52,1.89,3.56-1.2,6.92-2.92,9.96-5.13l-1.34-.35c1.19,1.67,2.18,3.49,2.86,5.43.13.38.39.85.25,1.24-.17.45-.6.89-.88,1.28-.67.92-1.37,1.82-2.1,2.69-.81.96.57,2.36,1.39,1.39h0Z"/>
    <path class="cls-3" d="M40.62,77.29c.04-.1.11-.26.2-.44.08-.17.17-.35.27-.51.19-.34.39-.67.62-.98.21-.3.38-.51.67-.83.26-.29.53-.56.82-.82,1.09-.97,2.45-1.71,3.87-2.11.51-.14.83-.7.69-1.21s-.7-.83-1.21-.69c-3.56.99-6.44,3.66-7.82,7.07-.2.49.22,1.08.69,1.21.56.15,1.01-.19,1.21-.69h0Z"/>
    <path class="cls-3" d="M30.6,79.39c.47-1.59,1.59-2.81,2.75-3.95,1.31-1.28,2.66-2.52,4.05-3.71s2.79-2.31,4.24-3.4,2.9-2.27,4.72-2.31c1.26-.03,1.27-1.99,0-1.96-2,.05-3.65,1.07-5.22,2.22-1.68,1.23-3.31,2.52-4.9,3.87s-3.05,2.67-4.48,4.1c-1.33,1.33-2.53,2.79-3.06,4.63-.36,1.22,1.54,1.73,1.89.52h0Z"/>
    <path class="cls-3" d="M20.06,91.54c-1.68-2.04-.68-5.58,1.02-7.29.37-.37,1.03-.94,1.6-.9.52.04.67,1.12.76,1.51.38,1.53.44,3.24-.12,4.73-.5,1.35-1.86,2.6-3.4,2.26-1.23-.28-1.76,1.62-.52,1.89,2.12.48,4.23-.66,5.3-2.5s1.17-4.33.74-6.45c-.2-1-.49-2.22-1.3-2.91-.93-.79-2.19-.53-3.18,0-1.72.91-2.83,2.85-3.35,4.67-.63,2.19-.42,4.57,1.06,6.37.34.41,1.04.35,1.39,0,.41-.41.34-.98,0-1.39h0Z"/>
    <path class="cls-3" d="M15.46,94.57l-1.9.88c-.21.1-.39.37-.45.59-.06.24-.04.55.1.76s.34.39.59.45l.26.04c.18,0,.34-.05.5-.13l1.9-.88c.21-.1.39-.37.45-.59.06-.24.04-.55-.1-.76s-.34-.39-.59-.45l-.26-.04c-.18,0-.34.05-.5.13h0Z"/>
    <path class="cls-3" d="M13.94,92.24s-.08.01-.12.02l.26-.04c-.31.04-.63.04-.94,0l.26.04c-.19-.03-.38-.07-.56-.12-.24-.07-.54-.03-.76.1-.2.12-.4.35-.45.59-.06.25-.04.53.1.76s.34.38.59.45c.35.1.71.16,1.07.18s.72-.02,1.08-.08c.13-.03.24-.09.33-.18.11-.07.19-.16.25-.28.12-.21.18-.52.1-.76s-.22-.47-.45-.59l-.23-.1c-.17-.05-.35-.05-.52,0h0Z"/>
    <path class="cls-3" d="M14.04,88.17c-.57.06-1.15.06-1.72-.02l.26.04c-.18-.03-.37-.06-.55-.1-.26-.06-.52-.04-.76.1-.2.12-.4.35-.45.59-.06.25-.04.53.1.76.13.21.34.4.59.45.83.18,1.68.24,2.53.15.27-.03.5-.09.69-.29.17-.17.3-.45.29-.69s-.09-.52-.29-.69c-.18-.16-.44-.32-.69-.29h0Z"/>
    <path class="cls-3" d="M15.9,85.1l-1.05-1.73c-.13-.21-.34-.38-.59-.45s-.55-.04-.76.1-.39.34-.45.59-.04.53.1.76l1.05,1.73c.13.21.34.38.59.45s.55.04.76-.1.39-.34.45-.59.04-.53-.1-.76h0Z"/>
    <path class="cls-3" d="M18.41,81.58c.03-.28.03-.55,0-.83-.04-.35-.09-.71-.19-1.05-.07-.24-.23-.46-.45-.59s-.52-.18-.76-.1-.47.22-.59.45-.18.5-.1.76c.06.21.11.43.14.65l-.04-.26c.04.32.05.64.01.97,0,.14.02.26.08.38.04.12.11.23.2.32.17.17.45.3.69.29s.52-.09.69-.29l.15-.2c.09-.15.13-.32.13-.5h0Z"/>
    <path class="cls-3" d="M15.26,101.37c-2.56-.44-4.39-3.69-5.27-5.9-.95-2.37-1.31-5-.95-7.54.71-4.99,4.23-9.39,8.89-11.29,1.16-.47.65-2.37-.52-1.89-5.51,2.25-9.61,7.28-10.34,13.24-.38,3.05.16,6.16,1.43,8.95,1.15,2.52,3.29,5.83,6.24,6.33,1.24.21,1.77-1.68.52-1.89h0Z"/>
    <path class="cls-3" d="M4.2,96.42c.65-8.39,2.86-16.61,6.52-24.19.55-1.13-1.15-2.13-1.7-.99-3.81,7.91-6.1,16.43-6.78,25.19-.1,1.26,1.87,1.25,1.96,0h0Z"/>
    <path class="cls-3" d="M3.9,103.62c-1.68-3.24-3.37-6.53-4.22-10.09s-.55-7.11.73-10.55,3.16-6.34,5-9.34,3.91-6.12,6.49-8.7l-1.54-.2c1.08,1.97,2.16,3.94,3.23,5.91.61,1.11,2.3.12,1.7-.99-1.08-1.97-2.16-3.94-3.23-5.91-.31-.56-1.11-.64-1.54-.2-2.8,2.8-4.97,6.12-7.03,9.48-1.93,3.15-3.88,6.33-5.11,9.83s-1.48,7.13-.68,10.76c.85,3.89,2.7,7.49,4.52,10.99.58,1.12,2.28.13,1.7-.99h0Z"/>
    <path class="cls-3" d="M19.96,71.07c.25-3.1,1.56-6.05,2.61-8.94,1.13-3.1,2.26-6.21,3.39-9.31.43-1.19-1.46-1.7-1.89-.52-1.17,3.22-2.34,6.44-3.52,9.66-1.08,2.97-2.31,5.93-2.56,9.12-.1,1.26,1.87,1.25,1.96,0h0Z"/>
    <path class="cls-3" d="M25.89,52.61c.68-1.84,1.31-3.88.91-5.86s-1.83-3.32-3.7-3.75c-3.77-.87-8.82,2.34-9.87,6.04-.47,1.64-.04,3.61,1.29,4.74,1.67,1.42,4,.82,5.74-.12,1.98-1.08,3.54-2.75,5.36-4.04,2-1.41,4.25-2.38,6.61-3,5.87-1.54,12.01-.86,17.96-.22,1.26.13,1.25-1.83,0-1.96-7.76-.83-16.03-1.58-23.23,2.08-1.57.8-2.96,1.83-4.31,2.95-1.44,1.19-3.02,2.7-4.9,3.11-2.03.45-3.22-1.33-2.58-3.18.59-1.71,2.37-3.03,3.91-3.84,1.74-.91,4.51-1.26,5.54.87.85,1.75-.01,3.98-.64,5.66-.44,1.19,1.46,1.7,1.89.52h0Z"/>
    <path class="cls-3" d="M31.3,43.07c6.14-1.93,12.67-2.36,19-1.2,1.24.23,1.77-1.67.52-1.89-6.68-1.23-13.56-.84-20.05,1.2-1.2.38-.69,2.27.52,1.89h0Z"/>
    <path class="cls-3" d="M45.4,59.28c-.08-2.85.02-5.68.31-8.52.05-.51-.49-1-.98-.98-1.98.09-3.95.17-5.93.26-1.85.08-3.81,0-5.64.28-1.53.24-2.05,1.36-2.65,2.66-.78,1.71-1.53,3.44-2.25,5.19-2.88,7.02-5.15,14.28-6.81,21.69-.15.65.47,1.51,1.21,1.21,2.38-.97,3.51-3.07,4.77-5.17,1.39-2.33,3.19-4.32,5.21-6.13,4.02-3.61,8.66-6.45,12.57-10.19.92-.87-.47-2.26-1.39-1.39-3.73,3.56-8.11,6.32-12,9.69-1.83,1.59-3.53,3.32-4.95,5.29s-2.38,5.04-4.73,6l1.21,1.21c1.49-6.64,3.47-13.16,5.94-19.51.62-1.6,1.27-3.18,1.96-4.75.34-.79.7-1.57,1.06-2.35.4-.86.55-1.38,1.56-1.54,1.75-.28,3.66-.16,5.43-.24s3.62-.16,5.43-.24l-.98-.98c-.29,2.83-.39,5.67-.31,8.52.04,1.26,2,1.27,1.96,0h0Z"/>
    <path class="cls-3" d="M16.14,62.74c.04.32,0,.02,0-.05,0-.06,0-.12-.01-.19,0-.14-.01-.29,0-.44s.01-.29.02-.43c0-.03.04-.3.01-.12s.01-.08.02-.12c.05-.29.12-.57.21-.84.02-.06.04-.12.06-.18.02-.05.1-.18.09-.23l-.05.12s.03-.08.05-.11c.03-.08.07-.15.11-.22.23-.46.14-1.09-.35-1.34-.45-.24-1.1-.14-1.34.35-.32.63-.57,1.3-.68,2-.13.79-.13,1.53-.02,2.32.03.23.27.48.45.59.21.12.52.18.76.1s.47-.22.59-.45c.13-.25.14-.48.1-.76h0Z"/>
    <path class="cls-3" d="M10.65,60.57c-.35-.34-.68-.71-.98-1.1l.15.2c-.34-.44-.64-.89-.9-1.37-.25-.45-.9-.64-1.34-.35s-.62.86-.35,1.34c.54.98,1.24,1.89,2.04,2.67.37.36,1.03.39,1.39,0s.39-1,0-1.39h0Z"/>
    <path class="cls-3" d="M-.34,67.37c1.26,0,1.27-1.96,0-1.96s-1.27,1.96,0,1.96H-.34Z"/>
  </g>
  <rect class="cls-1" y="1" width="191" height="195"/>
</svg>