<?xml version="1.0" encoding="UTF-8"?>
<svg id="Laag_1" data-name="Laag 1" xmlns="http://www.w3.org/2000/svg" viewBox="0 0 192 180">
  <defs>
    <style>
      .cls-1 {
        opacity: .76;
      }

      .cls-1, .cls-2, .cls-3 {
        stroke-width: 0px;
      }

      .cls-1, .cls-3 {
        fill: #f295aa;
      }

      .cls-2 {
        fill: #fff;
      }
    </style>
  </defs>
  <rect class="cls-3" x="-.08" y="-.31" width="191" height="179"/>
  <g>
    <path class="cls-2" d="M16.46,63c1.27,2.28,2.55,4.6,3.21,7.15.71,2.79.22,5.35-.74,8-.9,2.5-1.74,4.95-2.17,7.59s-.61,5.35-.77,8.04c-.08,1.26,1.89,1.26,1.96,0,.18-2.89.35-5.79.9-8.64s1.71-5.4,2.53-8.15c1.63-5.45-.6-10.28-3.22-14.99-.62-1.1-2.31-.12-1.7.99h0Z"/>
    <path class="cls-2" d="M25.5,84.65c-2.95.21-3.04,3.4-1.88,5.44,1.46,2.56,4.27,5.29,2.25,8.35-.82,1.24-2.18,1.95-3.01,3.18-.71,1.06-.94,2.34-.78,3.59.39,3.08,3.12,4.49,4.24,7.19.48,1.15,2.38.65,1.89-.52-.42-1.03-.9-1.99-1.63-2.83-.89-1.04-1.91-1.85-2.36-3.19-.4-1.22-.32-2.5.55-3.49.81-.92,1.82-1.59,2.55-2.59,1.35-1.86,1.56-4.05.67-6.16-.5-1.19-1.23-2.25-1.94-3.32-.38-.57-2.38-3.54-.57-3.66,1.25-.09,1.26-2.05,0-1.96h0Z"/>
    <path class="cls-2" d="M26.29,112.32c.34.64.04,1.42-.29,2-.44.77-1.04,1.43-1.48,2.2-1.02,1.76-.86,3.75.02,5.53.24.48.91.61,1.34.35.48-.28.59-.87.35-1.34-.36-.73-.58-1.59-.45-2.4s.67-1.54,1.15-2.21c1.08-1.49,2.02-3.31,1.06-5.11-.6-1.12-2.29-.12-1.7.99h0Z"/>
    <path class="cls-2" d="M29.56,121.87c1.26,0,1.27-1.96,0-1.96s-1.27,1.96,0,1.96h0Z"/>
    <path class="cls-2" d="M34.31,125.82c1.26,0,1.27-1.96,0-1.96s-1.27,1.96,0,1.96h0Z"/>
    <path class="cls-2" d="M37.18,128.69c1.26,0,1.27-1.96,0-1.96s-1.27,1.96,0,1.96h0Z"/>
    <path class="cls-2" d="M31.86,113.01c1.19-1.75,2.38-3.56,2.89-5.64s.35-4.09-.06-6.09c-.9-4.43-3.28-8.52-3.11-13.13.05-1.26-1.92-1.26-1.96,0-.16,4.18,1.64,7.94,2.74,11.88.57,2.06.99,4.26.59,6.39s-1.61,3.88-2.78,5.61c-.71,1.05.99,2.03,1.7.99h0Z"/>
    <path class="cls-2" d="M31.4,88.19l.46-1.82c.15-.57.42-1.23.43-1.82.01-.71-.53-1-1.07-1.3-.39-.22-.78-.46-1.13-.73-1.49-1.14-2.61-2.74-3.17-4.53-.38-1.2-2.27-.69-1.89.52.46,1.47,1.21,2.81,2.21,3.98.47.56,1.01,1.05,1.58,1.5.3.23.6.45.92.65.23.15.74.34.87.49l-.29-.69c-.02-.14-.02.15-.04.22l-.09.36-.23.91-.44,1.73c-.31,1.23,1.58,1.75,1.89.52h0Z"/>
    <path class="cls-2" d="M26.82,78.07c-.06-1.02-.39-1.98-.52-2.99-.11-.86-.11-1.76.01-2.62.24-1.75.95-3.38,2-4.79.32-.42.07-1.1-.35-1.34-.5-.29-1.02-.07-1.34.35-1.17,1.56-1.93,3.42-2.21,5.35-.14.95-.19,1.91-.09,2.88.11,1.06.48,2.1.54,3.16.07,1.26,2.04,1.27,1.96,0h0Z"/>
    <path class="cls-2" d="M15.26,71.4c-1.51-1.55-3.08-3.09-5.12-3.91-1.73-.69-4.23-.9-5.56.68-1.2,1.42-.86,3.46-.13,5.01.9,1.9,2.46,3.41,3.96,4.84l1.19-1.54c-1.68-1.26-2.66-3.22-4.45-4.37-1.66-1.06-3.87-1.29-5.4.13-1.3,1.21-1.68,3.21-1.29,4.89.48,2.07,2.05,3.7,3.5,5.16.89.9,2.28-.49,1.39-1.39-1.14-1.16-2.42-2.39-2.91-3.99-.34-1.1-.19-2.61.79-3.37,1.23-.96,2.91.08,3.83.98,1.23,1.19,2.17,2.6,3.55,3.64.9.68,1.99-.79,1.19-1.54-1.12-1.07-2.28-2.14-3.11-3.46-.59-.93-1.44-2.58-.68-3.65.81-1.14,2.97-.46,3.95.03,1.53.77,2.73,2.02,3.91,3.24.88.91,2.27-.48,1.39-1.39h0Z"/>
    <path class="cls-2" d="M3.16,77.67c1.26,0,1.27-1.96,0-1.96s-1.27,1.96,0,1.96h0Z"/>
    <path class="cls-2" d="M9.39,72.33c1.26,0,1.27-1.96,0-1.96s-1.27,1.96,0,1.96h0Z"/>
    <path class="cls-2" d="M3.52,62.87c-2.42.78-4.78,1.72-7.07,2.84-1.05.51-2.22,1.02-3.17,1.7-.87.63-.73,1.36-.44,2.28,1.61,5.17,3.04,10.4,4.28,15.68.29,1.23,2.19.71,1.89-.52-1.09-4.61-2.31-9.18-3.68-13.71-.16-.53-.32-1.05-.48-1.57-.06-.19-.11-.65-.24-.79-.07-.36-.15-.26-.25.27l.34-.19c.99-.33,1.97-1.08,2.92-1.53,2.08-1.01,4.23-1.85,6.42-2.55,1.2-.39.69-2.28-.52-1.89h0Z"/>
    <path class="cls-2" d="M.04,92.37c4.37-5.01,8.87-9.92,13.49-14.71l-1.64-.96c-.89,3.22-1.94,6.45-2.24,9.79s.47,6.57,1.37,9.75l.45-1.11c-1.79.99-3.58,1.99-5.38,2.98-1.11.61-.12,2.31.99,1.7,1.79-.99,3.58-1.99,5.38-2.98.38-.21.57-.7.45-1.11-.86-3.02-1.59-6.06-1.3-9.22s1.33-6.23,2.17-9.27c.26-.93-.96-1.67-1.64-.96-4.62,4.79-9.11,9.69-13.49,14.71-.83.95.56,2.34,1.39,1.39H.04Z"/>
    <path class="cls-2" d="M5.08,91.52c-.61,1.03-1.25,2.04-1.93,3.03-.34.49-.68.98-1.04,1.47-.19.26-.38.51-.57.76-.08.1-.15.2-.23.3-.06.08-.33.26-.1.2s-.08-.08-.16-.11c-.13-.04-.25-.08-.38-.12-.3-.09-.6-.17-.9-.24-.59-.14-1.19-.23-1.8-.29-1.23-.13-2.45-.07-3.68.11-.53.08-.81.74-.69,1.21.15.56.68.76,1.21.69,1.22-.18,2.5-.17,3.71.04.65.11,1.28.29,1.91.48s1.28.25,1.85-.16c.47-.34.8-.9,1.14-1.35.4-.53.79-1.08,1.18-1.63.76-1.1,1.48-2.23,2.17-3.38.65-1.09-1.05-2.08-1.7-.99h0Z"/>
    <path class="cls-2" d="M-5.63,62.9c3.93-.27,7.82-.95,11.61-2.05,1.21-.35.7-2.25-.52-1.89-3.62,1.05-7.33,1.72-11.08,1.98-1.25.09-1.26,2.05,0,1.96h0Z"/>
    <path class="cls-2" d="M6.84,59.88c-.23-5.04.47-10.03,2.07-14.81.31-.91-1-1.69-1.64-.96-2.5,2.88-4.99,5.77-7.49,8.65-2.32,2.69-5.01,5.3-6.8,8.4-.63,1.1,1.06,2.09,1.7.99.84-1.46,1.92-2.72,3.02-3.99,1.23-1.42,2.46-2.84,3.69-4.26,2.42-2.8,4.85-5.6,7.27-8.4l-1.64-.96c-1.66,4.93-2.38,10.14-2.14,15.33.06,1.26,2.02,1.27,1.96,0h0Z"/>
    <path class="cls-2" d="M2.65,45.17c-.33-.95-.77-1.85-1.34-2.68-.15-.21-.33-.38-.59-.45-.24-.06-.55-.04-.76.1s-.39.34-.45.59-.05.54.1.76c.4.58.73,1.19,1.01,1.83l-.1-.23c.08.2.16.41.23.61.08.24.22.45.45.59.21.12.52.18.76.1s.47-.22.59-.45.19-.51.1-.76h0Z"/>
    <path class="cls-2" d="M7.2,40.3c.05-.76.03-1.52-.05-2.28-.03-.27-.09-.5-.29-.69-.17-.17-.45-.3-.69-.29s-.52.09-.69.29c-.17.18-.32.44-.29.69.08.76.1,1.52.05,2.28-.02.24.12.53.29.69s.45.3.69.29.52-.09.69-.29.27-.42.29-.69h0Z"/>
    <path class="cls-2" d="M15.17,32.14c-.53,3.46-2.05,6.73-3.25,9.99s-2.45,6.74-3.61,10.14c-.26.76.53,1.35,1.21,1.21,2.29-.47,3.95-2.39,5.71-3.8,2.07-1.66,4.29-3.06,6.54-4.45.87-.54,1.43-1.17,1.49-2.24.07-1.15-.16-2.32-.11-3.49.11-2.64.84-5.21,2.07-7.54.31-.59-.06-1.57-.85-1.48-2.75.31-5.49.62-8.24.93-1.24.14-1.26,2.11,0,1.96,2.75-.31,5.49-.62,8.24-.93l-.85-1.48c-1.07,2.02-1.81,4.19-2.14,6.45-.16,1.11-.24,2.23-.21,3.36.01.53.08,1.06.11,1.59.05.79-.19.98-.83,1.36-2,1.18-3.92,2.48-5.76,3.9-.92.71-1.82,1.46-2.71,2.22s-1.79,1.49-2.98,1.74l1.21,1.21c1.17-3.39,2.37-6.77,3.61-10.14s2.72-6.53,3.25-9.99c.19-1.24-1.7-1.77-1.89-.52h0Z"/>
    <path class="cls-2" d="M29.48,29.68c-4.83,3.53-6.37,10.02-3.53,15.32.6,1.11,2.29.12,1.7-.99-2.3-4.29-1.12-9.74,2.83-12.63,1.01-.74.03-2.44-.99-1.7h0Z"/>
    <path class="cls-2" d="M35,47.03c-2.63,0-5.27.02-7.86.49-2.05.37-4.75.97-5.93,2.89-1.1,1.8-1.12,4.45-.87,6.48s1,4.03,2.38,5.59,3.33,2.43,4.99.8c1.39-1.37,2.13-4.27,1.82-6.16-.77-4.76-6.87-6.47-10.95-5.38-4.85,1.29-8.35,7.04-9.45,11.62-.29,1.23,1.6,1.75,1.89.52.92-3.85,3.83-8.99,7.9-10.2,2.1-.63,4.85-.28,6.7.92,2.2,1.43,2.25,3.63,1.44,5.9-.21.58-.5,1.53-1.22,1.69-.6.13-1.12-.46-1.49-.84-.71-.74-1.23-1.64-1.57-2.61-.64-1.78-.74-3.78-.42-5.63.22-1.27.66-2.17,1.86-2.73,1.07-.5,2.28-.77,3.44-.98,2.42-.43,4.89-.42,7.34-.42,1.26,0,1.27-1.97,0-1.96h0Z"/>
    <path class="cls-2" d="M32.81,64.92c.05-1.23.39-2.43,1.01-3.5.56-.96,1.37-2,2.48-2.33,2.28-.66,4.91.72,6.43,2.35.86.93,2.25-.46,1.39-1.39-1.06-1.13-2.36-1.98-3.8-2.52s-3.22-.79-4.72-.28c-3.02,1.04-4.64,4.69-4.75,7.67-.05,1.26,1.92,1.26,1.96,0h0Z"/>
    <path class="cls-2" d="M39.06,57.7c-.07-1.59-.12-3.5,1.08-4.73s3.22-.91,4.71-.59c3.08.68,5.87,2.51,7.67,5.12.71,1.03,2.42.05,1.7-.99-2.26-3.27-5.81-5.6-9.77-6.19-2.01-.3-4.29-.27-5.77,1.34s-1.68,3.91-1.59,6.04c.06,1.26,2.02,1.27,1.96,0h0Z"/>
    <path class="cls-2" d="M46.07,46.52c-.88-3.52-2.01-7.11-3.7-10.33-1.45-2.75-3.73-5.13-6.97-5.44-3-.29-5.64,1.62-6.01,4.66-.41,3.32,1.75,6.03,4.29,7.86,3.24,2.33,7.09,3.95,10.93,5,1.22.33,1.74-1.56.52-1.89-3-.82-5.87-2.01-8.56-3.58-2.23-1.31-4.71-3.04-5.2-5.76-.21-1.14,0-2.44.8-3.31.75-.82,1.86-1.08,2.94-1.02,2.65.14,4.43,2.31,5.57,4.49,1.62,3.07,2.66,6.51,3.5,9.86.31,1.23,2.2.71,1.89-.52h0Z"/>
    <path class="cls-2" d="M35.68,29.88c4.59-.94,9.47,1.23,11.89,5.22.44.72,1.56.58,1.8-.23.61-2.12.73-4.31.82-6.5l-1.48.85c.93.62,1.85,1.39,2.85,1.9.53.27,1.06.4,1.59.04.69-.47,1.14-1.44,1.61-2.1.28-.4.57-.8.85-1.2.31-.44.74-1.36,1.23-1.61l-.76.1c.46.11,1.12.97,1.47,1.3.57.53,1.14,1.07,1.7,1.6.5.47,1.16.31,1.54-.2.75-.99,1.5-1.99,2.25-2.98l-1.54.2c1.54,1.38,3.24,2.4,5.18,3.11,1.19.44,1.7-1.46.52-1.89-1.61-.59-3.04-1.46-4.32-2.6-.51-.46-1.15-.32-1.54.2-.75.99-1.5,1.99-2.25,2.98l1.54-.2c-1.04-.98-2.05-2.11-3.19-2.98-.79-.6-1.59-.57-2.26.19-.9,1.02-1.63,2.29-2.42,3.4.05-.07-.71,1.14-.39.88.24.12.23.1-.03-.06l-.61-.41-2.03-1.35c-.65-.43-1.45.15-1.48.85-.08,2.02-.19,4.02-.75,5.98l1.8-.23c-2.9-4.78-8.64-7.24-14.11-6.12-1.24.25-.71,2.15.52,1.89h0Z"/>
    <path class="cls-2" d="M52.01,41.67c2.28,0,2.28-3.54,0-3.54s-2.28,3.54,0,3.54h0Z"/>
    <path class="cls-2" d="M49.34,48.79c2.28,0,2.28-3.54,0-3.54s-2.28,3.54,0,3.54h0Z"/>
    <path class="cls-2" d="M58.93,36.43c2.28,0,2.28-3.54,0-3.54s-2.28,3.54,0,3.54h0Z"/>
    <path class="cls-2" d="M66.15,34.45c2.28,0,2.28-3.54,0-3.54s-2.28,3.54,0,3.54h0Z"/>
    <path class="cls-2" d="M55.71,45.54c1.75-2.19,3.98-4.08,6.71-4.88,2.46-.72,5.85-.56,7.81,1.32.56.54.47,1.53.55,2.25.09.83.18,1.66.27,2.49.19,1.61.39,3.22.61,4.82.46,3.31,1,6.61,1.61,9.9.23,1.24,2.13.72,1.89-.52-.73-3.89-1.35-7.79-1.85-11.71-.25-1.93-.46-3.87-.66-5.81-.17-1.64-.62-2.64-2.04-3.56-5.63-3.63-12.53-.4-16.3,4.31-.78.98.6,2.38,1.39,1.39h0Z"/>
    <path class="cls-2" d="M66,44.47c-2.56-.57-5.19.33-6.86,2.35s-2.33,4.73-2.83,7.34c-.1.52.15,1.06.69,1.21.48.13,1.11-.16,1.21-.69.42-2.19.84-4.52,2.22-6.34,1.19-1.56,3.1-2.41,5.05-1.98.52.12,1.06-.16,1.21-.69.14-.49-.17-1.09-.69-1.21h0Z"/>
    <path class="cls-2" d="M66.05,51.38c-2.58-.22-4.76,1.94-6,3.98s-1.82,4.57-1.53,6.98c.06.53.41.98.98.98.48,0,1.05-.45.98-.98-.24-1.98.12-3.98,1.1-5.72.89-1.57,2.47-3.45,4.46-3.28.53.04.98-.48.98-.98,0-.57-.45-.94-.98-.98h0Z"/>
    <path class="cls-2" d="M66.06,60.79s0-.13-.03-.15c0,0,.03.23.02.14,0-.03,0-.05,0-.08,0-.12-.01-.23,0-.35,0-.05,0-.1.01-.15.01-.17-.04.23,0,.06.02-.11.04-.21.07-.32.03-.1.06-.19.09-.29,0,0,.03-.07.03-.07,0,0-.09.2-.05.12.03-.05.05-.11.08-.16.05-.1.11-.19.17-.28.03-.04.06-.08.09-.12.05-.08-.07.1-.08.1,0,0,.06-.07.06-.08.07-.08.13-.15.21-.22.04-.03.07-.07.11-.1.03-.03.19-.16.06-.05s.03-.02.06-.04c.04-.03.08-.05.13-.08s.09-.05.13-.07c.04-.02.23-.1.07-.03s-.05.02-.02.01l-.44-.18c-.26.01-.42-.07-.48-.26-.08-.18,0,.05.02.09.05.15.09.29.14.44.09.29.19.59.28.88.21.66.42,1.31.64,1.97.16.49.69.85,1.21.69.49-.16.86-.68.69-1.21-.22-.68-.44-1.36-.66-2.03-.11-.35-.23-.7-.34-1.05-.17-.51-.34-1.09-.94-1.23-.74-.18-1.56.4-2.06.89-.47.46-.8,1.02-1.02,1.64-.24.68-.26,1.41-.12,2.11.1.5.73.84,1.21.69.53-.17.8-.67.69-1.21h0Z"/>
    <path class="cls-2" d="M39.66,66.19c-1.83-.75-3.78-1.38-5.77-.97-1.61.33-3.02,1.37-4.02,2.65-2.05,2.63-2.37,6.35-.84,9.3.79,1.53,2.03,3.15,3.43,4.16,1.49,1.08,3.35,1.15,5.1.8,3.26-.66,6.2-2.89,6.67-6.34.54-3.99-1.13-8.36-5.07-9.88-1.18-.46-1.69,1.44-.52,1.89,2.67,1.03,3.75,4.03,3.73,6.69,0,1.32-.31,2.6-1.22,3.59-.83.91-1.94,1.53-3.11,1.89-1.25.39-2.75.65-3.97.04s-2.13-1.91-2.83-2.98c-1.43-2.19-1.63-4.94-.31-7.24.69-1.2,1.8-2.24,3.15-2.61,1.71-.47,3.5.25,5.06.89.49.2,1.07-.22,1.21-.69.16-.56-.2-1.01-.69-1.21h0Z"/>
    <path class="cls-2" d="M53.21,60.13c-2.25.13-4.62.35-6.58,1.59-1.79,1.12-2.95,2.89-3.04,5.02-.1,2.29,1.02,4.38,2.08,6.33s2.3,4.58-.02,6.17c-1.03.71-.05,2.42.99,1.7,1.58-1.09,2.5-2.84,2.3-4.78-.23-2.21-1.69-4.06-2.59-6.02s-1.3-4.41.44-6.08,4.19-1.83,6.41-1.96c1.26-.08,1.27-2.04,0-1.96h0Z"/>
    <path class="cls-2" d="M45.41,79.36c-2.91,2.82-8.79,3.27-10,7.65-.64,2.32-.23,4.92.32,7.21.26,1.1.55,2.21,1.02,3.25.23.5.49.95.82,1.38.54.71.54,1.11.32,2-.3,1.23,1.6,1.75,1.89.52.24-1,.41-2.07-.14-3s-1.17-1.67-1.51-2.75c-.73-2.31-1.31-4.89-.98-7.32s2.41-3.36,4.33-4.29,3.79-1.78,5.32-3.26c.91-.88-.48-2.27-1.39-1.39h0Z"/>
    <path class="cls-2" d="M71.17,63.24c-3.68.42-7.36.86-11.05,1.24-1.96.2-3.93.37-5.9.43-.9.03-1.8.03-2.7,0-.83-.02-1.79-.23-2.61-.12-1.41.19-1.41,1.39-1.31,2.54.15,1.77.49,3.52.78,5.27.63,3.8,1.26,7.6,1.89,11.4l.95-1.24c-1.67-.04-3.35.2-4.92.78s-2.96,1.62-4.63,1.92c-1.24.23-.72,2.12.52,1.89,1.49-.27,2.71-1.08,4.07-1.69,1.57-.71,3.25-.99,4.96-.95.69.02,1.05-.64.95-1.24-.54-3.23-1.07-6.47-1.61-9.7-.27-1.6-.55-3.2-.79-4.81-.12-.81-.35-1.76-.27-2.59-.3.31-.28.44.05.39.25.02.49.04.74.05.41.03.82.04,1.23.06,6.55.2,13.16-.93,19.65-1.67,1.24-.14,1.26-2.11,0-1.96h0Z"/>
    <path class="cls-2" d="M40.73,86.43c.34,4.68.87,9.35,1.58,14,.08.53.74.81,1.21.69.56-.15.77-.69.69-1.21-.68-4.47-1.18-8.96-1.51-13.47-.09-1.25-2.06-1.26-1.96,0h0Z"/>
    <path class="cls-2" d="M42.69,100.1c-3.37,3.74-5.71,8.34-6.67,13.29-.24,1.24,1.65,1.76,1.89.52.89-4.62,3.01-8.93,6.16-12.42.85-.94-.54-2.33-1.39-1.39h0Z"/>
    <path class="cls-2" d="M18.79,114.21l-3.56-6.75-1.78-3.38c-.41-.78-.75-1.86-1.65-2.2-.84-.33-1.73.2-2.47.55-1.03.48-2.03,1.02-3,1.6-1.9,1.14-3.67,2.48-5.32,3.95l1.68.69c.03-1.8.05-3.59.08-5.39.02-1.14.2-2.63-.86-3.4-1.13-.81-2.56.17-3.59.66-1.69.81-3.39,1.61-5.08,2.42-1.14.54-.15,2.24.99,1.7s2.26-1.07,3.39-1.61c.58-.27,2.56-1.57,3.08-1.33.4.19.09,2.73.08,3.2-.02,1.25-.04,2.5-.05,3.75-.01.89,1.06,1.24,1.68.69,1.42-1.27,2.94-2.41,4.56-3.42.78-.49,1.59-.94,2.41-1.36.44-.22.89-.45,1.34-.65.51-.22.37-.31.59.28.73,1.88,1.95,3.7,2.89,5.48l2.89,5.48c.59,1.12,2.29.13,1.7-.99h0Z"/>
    <path class="cls-2" d="M18.67,103.15c-1.4-1.85-3.32-3.22-5.56-3.85-.49-.14-1.09.17-1.21.69s.16,1.06.69,1.21c.24.07.48.14.71.23.11.04.22.08.33.13-.12-.05-.08-.03.02,0,.05.02.1.04.14.07.45.21.89.46,1.3.74.1.07.19.13.29.2.04.03.08.06.13.09-.17-.13-.02-.01.02.02.19.16.38.32.56.49.17.16.34.33.5.51.09.1.17.2.26.3.03.04.07.08.1.12.17.2-.12-.16.04.05.31.41.86.66,1.34.35.4-.26.68-.91.35-1.34h0Z"/>
    <path class="cls-2" d="M18.14,98.75l3.62-2.65c.21-.16.38-.32.45-.59.06-.24.04-.55-.1-.76-.26-.41-.9-.68-1.34-.35-1.21.88-2.41,1.76-3.62,2.65-.21.16-.38.32-.45.59-.06.24-.04.55.1.76.26.41.9.68,1.34.35h0Z"/>
    <path class="cls-2" d="M13.41,134.34c4.06-1.44,5.89-5.67,5.61-9.77s-2.39-8.16-6.57-8.98c-1.84-.36-3.75.11-5.17,1.35s-2.22,3.32-1.38,5.06c1.7,3.55,7.13,3.16,10.07,1.76,4.17-1.99,6.27-6.71,5.9-11.18-.1-1.25-2.07-1.26-1.96,0,.24,2.94-.62,5.97-2.8,8.04-2,1.9-5.13,2.77-7.77,1.81-1.5-.55-2.32-1.83-1.37-3.3.76-1.18,2.23-1.81,3.61-1.69,3.2.29,4.99,3.47,5.41,6.34.48,3.35-.59,7.42-4.09,8.66-1.18.42-.67,2.32.52,1.89h0Z"/>
    <path class="cls-2" d="M.47,112.81c-.76,5.48.76,10.99,4.26,15.29.8.98,2.18-.42,1.39-1.39-3-3.69-4.41-8.67-3.75-13.38.07-.53-.13-1.05-.69-1.21-.46-.13-1.14.16-1.21.69H.47Z"/>
    <path class="cls-2" d="M6.58,113.53s.13-.18.04-.06c-.09.11,0,0,.02-.03.06-.07.13-.15.19-.22.13-.14.28-.27.42-.39.17-.14-.13.09-.02.02.04-.02.07-.05.1-.08.08-.06.16-.11.24-.16.18-.11.36-.19.54-.28.12-.06-.18.07-.06.02.05-.02.1-.04.15-.06.09-.03.18-.06.28-.09.19-.05.38-.09.56-.13.13-.03-.2.02-.07,0,.05,0,.11-.01.16-.02.1,0,.19-.01.29-.01.2,0,.41,0,.61.03.51.06,1-.49.98-.98-.03-.58-.43-.92-.98-.98-2.01-.23-4.01.78-5.17,2.41-.3.42-.09,1.11.35,1.34.51.27,1.03.1,1.34-.35h0Z"/>
    <path class="cls-2" d="M-.7,128.07c1.33,2.39,2.82,4.69,4.45,6.89l.15-1.19c-3.44,3.65-6.3,7.79-8.47,12.31l1.83.5c-.29-3.59-.58-7.18-.87-10.77l-.21-2.6c-.04-.5-.08-.99-.12-1.49,0-.09,0-.75-.11-.55.13-.24.9-.5,1.14-.63.31-.17.62-.34.94-.51.83-.46,1.67-.91,2.5-1.37,1.11-.61.12-2.31-.99-1.7-.83.46-1.67.91-2.5,1.37-.74.41-1.6.75-2.26,1.28-.57.46-.73,1.03-.71,1.74.03,1.05.17,2.11.26,3.16.33,4.02.65,8.05.98,12.07.07.88,1.37,1.45,1.83.5,2.1-4.37,4.83-8.39,8.16-11.92.27-.29.41-.84.15-1.19-1.64-2.2-3.12-4.5-4.45-6.89-.62-1.11-2.31-.12-1.7.99h0Z"/>
    <path class="cls-2" d="M9,129.67c.41,2.05-.74,3.97-1.82,5.62s-2.25,3.3-2.63,5.25c-.65,3.33.89,6.78,3.75,8.58,1.07.68,2.06-1.02.99-1.7-2.88-1.82-3.63-5.48-2.1-8.43,1.66-3.19,4.49-5.95,3.7-9.85-.25-1.24-2.14-.71-1.89.52h0Z"/>
    <path class="cls-2" d="M26.33,124.91c1.25,1.86,2.62,3.63,4.14,5.28.78.84,1.59,1.65,2.43,2.42.4.36.8.72,1.21,1.07.38.32,1.12.73,1.33,1.2.19.43.06,1.15.08,1.62.02.58.06,1.15.11,1.73.11,1.16.28,2.32.51,3.47.5,2.42,1.31,4.75,2.36,6.99.53,1.14,2.23.15,1.7-.99-1.06-2.28-1.83-4.68-2.28-7.15-.23-1.26-.37-2.54-.42-3.82-.04-.94.11-2.04-.38-2.9-.46-.8-1.39-1.33-2.07-1.92-.86-.75-1.7-1.54-2.49-2.36-1.68-1.73-3.18-3.61-4.53-5.61-.7-1.05-2.4-.06-1.7.99h0Z"/>
    <path class="cls-2" d="M30.75,138.16c-.93-1.38-2.11-2.56-3.49-3.49-.69-.46-1.43-.84-2.2-1.15-.34-.14-.69-.27-1.05-.38s-.78-.16-1.14-.31l.43.25.03.02.13.5c-.02-.36.1-.75.16-1.11.07-.44.14-.89.22-1.33.14-.89.29-1.78.43-2.67.09-.52-.14-1.06-.69-1.21-.47-.13-1.12.16-1.21.69-.25,1.51-.49,3.01-.74,4.52-.11.69-.33,1.45.27,1.98.45.41,1.23.45,1.8.63,2.16.71,4.07,2.16,5.34,4.04.7,1.04,2.41.06,1.7-.99h0Z"/>
    <path class="cls-2" d="M26.7,132.33c1.26,0,1.27-1.96,0-1.96s-1.27,1.96,0,1.96h0Z"/>
    <path class="cls-2" d="M29.5,134.97c1.26,0,1.27-1.96,0-1.96s-1.27,1.96,0,1.96h0Z"/>
    <path class="cls-2" d="M32.47,137.61c1.26,0,1.27-1.96,0-1.96s-1.27,1.96,0,1.96h0Z"/>
    <path class="cls-2" d="M34.15,149.87c-.43-2.23-.94-4.54-2.35-6.38s-3.42-2.83-5.63-2.92-4.38.86-5.81,2.49c-1.54,1.75-2.08,4.06-2.22,6.33-.12,1.96.32,4.21,2.57,4.65,2.06.39,3.77-1.09,4.56-2.86,1.01-2.25,1.4-5,1.49-7.45.08-2.14-.32-4.42-1.91-5.98-4.11-4.03-9.95-.66-14.26.97-1.17.44-.66,2.34.52,1.89,3.1-1.17,6.37-3.3,9.82-2.67,3.93.71,4.12,4.59,3.66,7.85-.24,1.7-.5,3.86-1.52,5.3-.43.62-1.2,1.17-2,1.03-.94-.17-1.02-1.25-1.01-2.04,0-3.42,1.52-7.24,5.42-7.55,1.95-.15,3.88.82,4.97,2.43s1.44,3.57,1.8,5.43c.24,1.24,2.14.71,1.89-.52h0Z"/>
    <path class="cls-2" d="M75.32,35.11c-.76.05-1.53.05-2.29-.03-.09,0-.18-.02-.26-.03-.24-.03.13.02-.09-.01-.2-.03-.41-.07-.61-.11-.37-.07-.74-.17-1.11-.27-.49-.14-1.09.17-1.21.69s.16,1.06.69,1.21c1.58.45,3.24.63,4.88.52.51-.04,1.01-.43.98-.98-.02-.5-.43-1.02-.98-.98h0Z"/>
    <path class="cls-2" d="M80.3,30.15c-.53-.84-1.29-1.55-2.18-1.99-.24-.12-.49-.17-.76-.1-.23.06-.47.24-.59.45-.12.23-.18.5-.1.76.08.23.22.48.45.59.27.13.53.3.78.48l-.2-.15c.3.24.58.51.81.81l-.15-.2c.08.11.16.22.24.34.14.21.34.38.59.45s.55.04.76-.1.39-.34.45-.59.04-.53-.1-.76h0Z"/>
    <path class="cls-2" d="M87.69,28.84c0-1.38-.35-2.73-.99-3.95-.24-.46-.91-.63-1.34-.35-.46.3-.61.86-.35,1.34.1.18.18.37.27.56-.12-.27.01.03.04.11.04.11.08.21.11.32.13.4.22.82.28,1.24l-.04-.26c.04.33.06.66.07.99,0,.51.45,1.01.98.98s.98-.43.98-.98h0Z"/>
    <path class="cls-2" d="M92.7,30.24c.93-.8,1.7-1.79,2.24-2.89.12-.24.17-.49.1-.76-.06-.23-.24-.47-.45-.59-.44-.23-1.1-.14-1.34.35s-.55.98-.9,1.43l.15-.2c-.36.46-.76.88-1.19,1.26-.18.16-.29.46-.29.69s.11.53.29.69.43.3.69.29.49-.11.69-.29h0Z"/>
    <path class="cls-2" d="M95.92,36.4c1.14.09,2.27.03,3.4-.14.23-.03.48-.26.59-.45.12-.21.18-.52.1-.76s-.22-.47-.45-.59c-.25-.13-.48-.14-.76-.1-.08.01-.16.02-.24.03l.26-.04c-.96.13-1.93.15-2.9.07-.24-.02-.53.12-.69.29s-.3.45-.29.69c.03.57.43.94.98.98h0Z"/>
    <path class="cls-2" d="M92.62,44.18c.88-.08,1.76-.06,2.63.06l-.26-.04c.11.02.23.03.34.05.27.04.51.04.76-.1.2-.12.4-.35.45-.59.06-.25.04-.53-.1-.76-.13-.2-.34-.41-.59-.45-1.07-.17-2.15-.24-3.23-.14-.27.02-.5.09-.69.29-.17.17-.3.45-.29.69.02.49.43,1.03.98.98h0Z"/>
    <path class="cls-2" d="M88.34,49.77h3.3c.51,0,1.01-.45.98-.98s-.43-.98-.98-.98h-3.3c-.51,0-1.01.45-.98.98s.43.98.98.98h0Z"/>
    <path class="cls-2" d="M79.07,56.34c2.96-3.77,6.21-7.23,9.53-10.68,2.56-2.66,5.46-6.16,4.89-10.14-.6-4.17-6.74-4.87-10.07-4.26-4.12.75-6.28,5.1-7.11,8.82-1.16,5.23-.08,10.57,1.28,15.65.33,1.22,2.22.7,1.89-.52-1.03-3.84-1.92-7.78-1.67-11.79.21-3.31,1.3-7.87,4.42-9.67,1.62-.94,3.71-.78,5.48-.45,1.93.36,3.93.92,3.87,3.25-.08,3.39-2.8,6.12-5.03,8.39-3.13,3.19-6.12,6.5-8.88,10.01-.77.98.61,2.38,1.39,1.39h0Z"/>
    <path class="cls-2" d="M70.9,27.33c6.6-3.19,13.8-6.61,21.34-5.23,1.24.23,1.77-1.67.52-1.89-8.12-1.48-15.71,1.98-22.85,5.43-1.14.55-.14,2.24.99,1.7h0Z"/>
    <path class="cls-2" d="M99.05,22.37c1.77.02,3.3,1.34,4.49,2.53s2.22,2.63,2.98,4.19c.37.75.66,1.53.9,2.34s.32,1.66.53,2.48c.2.77.7,1.37,1.43,1.7.65.29,1.4.34,2.02.69,1.1.62,2.09-1.07.99-1.7-.67-.38-1.4-.44-2.09-.73s-.58-1.28-.72-1.9c-.38-1.77-1.07-3.49-2-5.04s-2.05-2.93-3.38-4.1c-1.46-1.28-3.15-2.41-5.16-2.42-1.26-.01-1.27,1.95,0,1.96h0Z"/>
    <path class="cls-2" d="M97.66,27.38c5.53,2.78,7.79,9.49,4.91,15.02-.35.68.09,1.44.85,1.48,3.34.18,6.28,2.21,7.74,5.19.56,1.14,2.25.14,1.7-.99-1.77-3.61-5.44-5.95-9.44-6.17l.85,1.48c3.36-6.43.9-14.43-5.61-17.71-1.13-.57-2.12,1.13-.99,1.7h0Z"/>
    <path class="cls-2" d="M107.95,39.72c1.86-.18,3.6.48,4.84,1.87.55.61,1.74.15,1.68-.69-.13-1.76.46-3.51,1.7-4.78,1.42-1.46,3.46-1.9,5.38-2.32,1.23-.27.71-2.17-.52-1.89-2.33.51-4.72,1.15-6.39,2.97-1.49,1.62-2.3,3.83-2.14,6.03l1.68-.69c-1.55-1.74-3.91-2.67-6.23-2.45-1.25.12-1.26,2.09,0,1.96h0Z"/>
    <path class="cls-2" d="M99.19,48.9c3.57-.94,6.9,1.19,9.1,3.85,1.09,1.31,1.98,2.78,2.84,4.24,1.03,1.77,2.03,3.55,2.64,5.51.26.84,1.32.93,1.8.23,2.22-3.25,6.5-4.26,9.98-2.47,3.68,1.9,5.58,5.77,6.73,9.57.37,1.21,2.26.69,1.89-.52-1.4-4.61-3.88-9.25-8.56-11.17-4.29-1.77-9.14-.2-11.73,3.6l1.8.23c-.7-2.26-1.85-4.31-3.05-6.33-1.02-1.72-2.12-3.42-3.47-4.9-2.65-2.88-6.54-4.78-10.48-3.74-1.22.32-.7,2.22.52,1.89h0Z"/>
    <path class="cls-2" d="M107.14,60.25c-1.46-2.79-3.54-5.31-6.23-6.98-3.05-1.89-6.33-2.02-9.8-1.47s-7.08,1.29-9.79,3.88c-2.38,2.28-3.85,5.32-5.22,8.25-.53,1.14,1.16,2.14,1.7.99,1.2-2.56,2.44-5.23,4.39-7.32,2.3-2.47,5.29-3.2,8.51-3.75s6.3-.69,9.22,1.11c2.42,1.49,4.22,3.78,5.53,6.27.59,1.12,2.28.13,1.7-.99h0Z"/>
    <path class="cls-2" d="M86.19,56.67c-2.58,1.61-3.3,5.41-2.58,8.2.41,1.6,1.49,2.77,3.07,3.26.85.26,1.74.32,2.6.51.98.22,1.93.55,2.9.79,1.73.42,3.62.56,5.23-.31,1.31-.7,2.16-2.01,2.61-3.4,1.01-3.17.26-6.77-2.53-8.74-3.32-2.34-8.39-1.75-11.87-.08-1.14.55-.14,2.24.99,1.7,2.51-1.2,6.05-1.69,8.67-.6,1.03.43,1.99,1.16,2.55,2.14.64,1.11.72,2.53.57,3.78-.12,1.05-.48,2.16-1.23,2.93-.9.92-2.21,1.06-3.42.9-1.53-.21-2.98-.84-4.5-1.11-1.19-.22-2.67-.23-3.39-1.37-.64-1.02-.62-2.44-.45-3.59.18-1.26.63-2.6,1.76-3.3s.08-2.37-.99-1.7h0Z"/>
    <path class="cls-2" d="M81.38,68.2l-1.81,1.81c-.18.18-.29.44-.29.69s.11.53.29.69.43.3.69.29.51-.1.69-.29l1.81-1.81c.18-.18.29-.44.29-.69s-.11-.53-.29-.69-.43-.3-.69-.29-.51.1-.69.29h0Z"/>
    <path class="cls-2" d="M97.11,74.7c1.08-1.08,2.06-2.26,2.94-3.51.14-.2.16-.53.1-.76s-.24-.47-.45-.59c-.5-.27-1.03-.1-1.34.35-.1.14-.2.28-.3.42-.05.07-.11.15-.16.22-.02.03-.05.06-.07.1-.01.01-.14.18-.03.05.09-.12,0,0-.02.02-.03.04-.06.08-.09.12-.05.06-.1.13-.15.19-.11.14-.23.28-.35.42-.46.54-.94,1.07-1.45,1.57-.36.36-.39,1.03,0,1.39s1,.39,1.39,0h0Z"/>
    <path class="cls-2" d="M106.93,70.04c.22-1.8.06-3.64-.45-5.38-.14-.49-.7-.85-1.21-.69s-.84.68-.69,1.21c.12.4.22.8.29,1.21.02.13.05.25.07.38,0,.04.04.31.02.12.03.21.05.41.06.62.07.84.04,1.69-.06,2.53-.06.51.5,1,.98.98.59-.03.91-.43.98-.98h0Z"/>
    <path class="cls-2" d="M67.19,89c0-2.55,1.74-4.6,2.89-6.75s2.01-4.58,2.49-7.04l-1.64.43c1.88,2.29,3.4,4.84,4.56,7.56.16.36.74.59,1.11.45,4.68-1.76,8.62-4.9,11.36-9.09h-1.7c1.81,2.6,4.13,4.8,6.9,6.36,1.05.59,2.75,1.67,4.01,1.56,1.45-.13,2.66-2.09,3.59-3.03,1.38-1.39,2.8-2.74,4.26-4.04.34-.3.68-.68,1.06-.93.55-.36.4-.4,1.01,0,.78.52,1.44,1.35,2.13,1.99,2.96,2.77,5.91,5.54,8.87,8.31.92.86,2.31-.52,1.39-1.39-2.84-2.66-5.68-5.32-8.51-7.98-.71-.66-1.42-1.33-2.13-1.99-.48-.45-.96-1.02-1.59-1.26-1.42-.54-2.68,1.02-3.62,1.85-1.4,1.25-2.77,2.54-4.1,3.88-.65.65-1.25,1.45-1.96,2.03-.44.37-.57.54-1.19.37-.41-.11-.82-.34-1.19-.53-2.9-1.41-5.39-3.55-7.23-6.19-.43-.62-1.27-.65-1.7,0-2.44,3.73-6,6.62-10.18,8.19l1.11.45c-1.24-2.89-2.88-5.53-4.87-7.96-.46-.56-1.51-.26-1.64.43-.54,2.73-1.51,5.28-2.92,7.67-1.23,2.08-2.54,4.13-2.53,6.64,0,1.26,1.97,1.27,1.96,0h0Z"/>
    <path class="cls-2" d="M77.56,74.05c-2.64-5.22-9.03-7.49-14.33-4.99-2.62,1.23-4.63,3.48-5.61,6.19-1.14,3.14-.82,6.58-.23,9.79l.95-1.24c-5.73-.49-9.38,4.82-10.03,9.93-.33,2.59,0,5.41,1.58,7.56,1.42,1.94,3.73,3.19,6.16,2.95,1.25-.12,1.26-2.09,0-1.96-4.74.48-6.32-4.85-5.76-8.62.61-4.1,3.44-8.29,8.05-7.9.69.06,1.05-.67.95-1.24-.94-5.11-.57-10.96,4.62-13.6,4.44-2.26,9.77-.23,11.97,4.13.57,1.13,2.27.14,1.7-.99h0Z"/>
    <path class="cls-2" d="M55.02,102.59c-3.82,1.97-7.23,5.23-7.18,9.82.05,4.23,2.9,8.03,7.08,8.94,2.37.52,4.87.17,6.95-1.09,1.08-.65.1-2.35-.99-1.7-3.86,2.32-9.18.63-10.65-3.72-.69-2.03-.55-4.27.55-6.13,1.19-2.02,3.19-3.38,5.23-4.43,1.12-.58.13-2.28-.99-1.7h0Z"/>
    <path class="cls-2" d="M60.86,115.26c3.05-2.99,6.26-6.23,7.31-10.52.9-3.67-.12-7.7-3.33-9.9-1.04-.72-2.03.98-.99,1.7,2.78,1.91,3.15,5.63,2.16,8.62-1.18,3.52-3.95,6.19-6.53,8.72-.9.89.49,2.28,1.39,1.39h0Z"/>
    <path class="cls-2" d="M61,88.25c-2.09.12-3.99,1.32-5.05,3.12-1.13,1.93-1.18,4.41-.32,6.45.21.49.65.84,1.21.69.46-.13.89-.72.69-1.21-.64-1.53-.77-3.34.06-4.83.7-1.26,2.02-2.18,3.41-2.26.53-.03.98-.43.98-.98,0-.51-.45-1.01-.98-.98h0Z"/>
    <path class="cls-2" d="M74.84,89.64c1.7,7.51-.22,15.3-2.99,22.32-.69,1.75-1.51,3.47-2.57,5.03s-2.36,2.77-3.6,4.1c-2.26,2.42-4.36,5.3-4.1,8.78.09,1.25,2.06,1.26,1.96,0-.29-3.95,2.91-6.66,5.34-9.31s4.06-5.88,5.33-9.31c2.59-7.05,4.21-14.68,2.52-22.13-.28-1.23-2.17-.71-1.89.52h0Z"/>
    <path class="cls-2" d="M61.47,130.46c.36,2.09,1.77,3.97,3.63,4.97,1.98,1.06,4.27,1.05,6.28.06s3.45-2.92,3.8-5.13c.39-2.45-.15-5.29-1.34-7.47-1.26-2.31-3.82-3.93-6.49-3.24-1.22.32-.7,2.21.52,1.89,2.38-.62,4.15,1.6,4.81,3.61.73,2.2,1.14,4.99-.31,6.99-1.14,1.58-3.26,2.49-5.18,2.01-2.01-.5-3.5-2.2-3.84-4.22-.21-1.24-2.11-.72-1.89.52h0Z"/>
    <path class="cls-2" d="M44.04,105.17c-2.34,5.2-4.18,11.48-1.03,16.78,2.9,4.87,8.83,5.7,14.01,5.09,1.24-.15,1.26-2.11,0-1.96-4.44.53-9.78.14-12.31-4.12-2.76-4.64-1.01-10.26,1.03-14.79.52-1.14-1.18-2.14-1.7-.99h0Z"/>
    <path class="cls-2" d="M56.2,126.66c-.81,5.33,1.16,10.27,3.36,15.02,1.15,2.48,2.35,4.95,3.13,7.57.42,1.41.8,2.93.08,4.31-.55,1.04-1.57,1.83-2.63,2.3-1.63.72-4.63.82-5.29-1.29-.82-2.62,2.4-4.78,4.18-6.02,2.1-1.46,4.36-2.69,6.74-3.62s4.73-1.46,7.04-2.36c4.86-1.9,8.36-5.82,8.48-11.22.03-1.26-1.94-1.26-1.96,0-.06,2.75-1.23,5.37-3.31,7.18s-4.97,2.61-7.61,3.43-5.22,1.82-7.64,3.18-4.91,2.91-6.59,5.03c-1.37,1.73-1.97,4.23-.61,6.16,1.15,1.62,3.3,2.13,5.19,1.91,2.19-.25,4.33-1.5,5.53-3.37,1.56-2.45.65-5.36-.27-7.87-2.34-6.39-6.99-12.69-5.91-19.82.19-1.24-1.71-1.77-1.89-.52h0Z"/>
    <path class="cls-2" d="M50.11,129.87c-.06,5.85,2.09,11.56,5.97,15.93.84.95,2.23-.45,1.39-1.39-3.53-3.99-5.45-9.22-5.39-14.54.01-1.26-1.95-1.27-1.96,0h0Z"/>
    <path class="cls-2" d="M47.8,128.71c-1.09.08-2.18.05-3.26-.1l.26.04c-.07,0-.13-.02-.2-.03-.27-.04-.51-.05-.76.1-.2.12-.4.35-.45.59-.06.25-.04.53.1.76.13.2.34.42.59.45,1.24.18,2.48.25,3.73.16.51-.04,1.01-.43.98-.98-.02-.5-.43-1.02-.98-.98h0Z"/>
    <path class="cls-2" d="M47.47,132.47c-1.37.04-2.74.31-4.01.82-.25.1-.45.21-.59.45-.12.21-.18.52-.1.76.15.46.7.89,1.21.69.59-.24,1.19-.42,1.81-.55.15-.03.3-.06.45-.09.08-.01.16-.03.24-.04.24-.04-.23.02.02,0,.33-.03.65-.06.98-.07.51-.02,1.01-.44.98-.98s-.43-1-.98-.98h0Z"/>
    <path class="cls-2" d="M48.13,136.13c-1.54-.12-3.09.24-4.45.96-.45.24-.63.91-.35,1.34.3.46.86.61,1.34.35.14-.08.29-.15.44-.22.04-.02.08-.04.13-.06-.13.05-.14.06-.04.02.07-.02.13-.05.19-.07.32-.11.64-.21.97-.27.08-.02.16-.03.24-.05.03,0,.31-.05.14-.02s.12-.01.15-.01c.08,0,.16-.01.24-.02.34-.02.67-.02,1.01,0,.51.04,1-.48.98-.98-.03-.57-.43-.94-.98-.98h0Z"/>
    <path class="cls-2" d="M49.11,140.38c-1.21.55-2.37,1.22-3.45,2-.21.15-.38.33-.45.59-.06.24-.04.55.1.76.27.41.9.67,1.34.35,1.08-.78,2.23-1.45,3.45-2,.21-.1.39-.37.45-.59.06-.24.04-.55-.1-.76s-.34-.39-.59-.45c-.27-.06-.5-.02-.76.1h0Z"/>
    <path class="cls-2" d="M50.96,144.57l-2.6,2.67c-.36.37-.39,1.03,0,1.39s1.01.39,1.39,0c.87-.89,1.74-1.78,2.6-2.67.36-.37.39-1.03,0-1.39s-1.01-.39-1.39,0h0Z"/>
    <path class="cls-2" d="M31.07,116.71c2.42,4.23,6.03,7.66,10.4,9.82l-.45-1.11c-3.4,10.02,1.23,20.19,7.27,28.12.76.99,2.46.02,1.7-.99-5.73-7.52-10.31-17.06-7.07-26.6.13-.38-.08-.93-.45-1.11-4.09-2.02-7.43-5.16-9.7-9.12-.63-1.1-2.33-.11-1.7.99h0Z"/>
    <path class="cls-2" d="M81.9,93.29c2.07-.05,3.9,1.06,5.89,1.46s4.04.28,5.93-.39c3.59-1.28,6.28-4.37,7.1-8.09.27-1.23-1.62-1.76-1.89-.52-.74,3.37-3.21,6.11-6.58,6.98-1.74.45-3.5.35-5.2-.18s-3.39-1.27-5.24-1.23c-1.26.03-1.27,1.99,0,1.96h0Z"/>
    <path class="cls-2" d="M86.12,82.5l.25,3.14c.02.26.1.5.29.69.17.17.45.3.69.29.5-.02,1.03-.43.98-.98l-.25-3.14c-.02-.26-.1-.5-.29-.69-.17-.17-.45-.3-.69-.29-.5.02-1.03.43-.98.98h0Z"/>
    <path class="cls-2" d="M81.55,84.39v2.3c0,.25.11.52.29.69s.45.3.69.29c.53-.02.98-.43.98-.98v-2.3c0-.25-.11-.52-.29-.69s-.45-.3-.69-.29c-.53.02-.98.43-.98.98h0Z"/>
    <path class="cls-2" d="M108.06,82.46c-3.03,2.61-4.93,6.88-3.71,10.86,1.1,3.6,4.52,6.33,8.36,5.95,2.2-.22,4.24-1.22,6.13-2.31s3.6-2.3,4.92-3.96,2.06-3.71,2.35-5.85c.3-2.26.41-4.66-.2-6.88-1.14-4.17-5.16-7.06-9.45-7-1.26.02-1.27,1.98,0,1.96,3.04-.04,6,1.74,7.22,4.57.71,1.65.76,3.5.66,5.26-.1,1.88-.36,3.82-1.28,5.49-1.62,2.93-5.11,4.99-8.16,6.16-3.28,1.26-6.61.32-8.25-2.91-1.78-3.52.01-7.56,2.79-9.96.96-.83-.44-2.21-1.39-1.39h0Z"/>
    <path class="cls-2" d="M111.17,88.47c.67,1.31,2,2.34,3.45,2.6,1.62.29,3.27-.2,4.45-1.35.38-.37.37-1.02,0-1.39s-1.01-.37-1.39,0c-.35.34-.76.59-1.21.72-.14.04-.29.08-.43.11-.06.01-.14.02-.03.01-.08.01-.16.02-.25.02-.15,0-.3,0-.44,0-.07,0-.13,0-.2-.02.14.02-.02,0-.07-.02-.12-.03-.24-.06-.36-.09-.07-.02-.15-.05-.22-.08-.06-.02-.12-.05-.03,0-.25-.12-.5-.26-.73-.43.08.06.02.02-.02-.02-.06-.05-.12-.1-.17-.16-.09-.09-.18-.18-.26-.27-.04-.04-.13-.17-.05-.06-.04-.05-.07-.1-.11-.15-.09-.13-.16-.27-.23-.41-.24-.47-.9-.61-1.34-.35-.48.28-.59.87-.35,1.34h0Z"/>
    <path class="cls-2" d="M116.2,68.81c-.5-2.8,1.43-5.51,4.28-5.81,2.67-.28,4.58,1.55,5.67,3.79s1.23,4.85,2.32,7.09,3.31,3.05,5.6,2.73c1.13-.16,2.19-.61,3.16-1.22,1.2-.75,2.13-1.87,3.32-2.61,2.76-1.7,3.61,5.34,3.64,6.9s-.18,3.03-.6,4.5c-.4,1.39-.93,2.74-1.11,4.18-.27,2.05.31,4.48,2.19,5.64,1.42.87,2.81.26,4.31.57s1.95,2.81,2.17,4.05c.54,3.07-.21,6.19-1.97,8.74-.72,1.04.98,2.02,1.7.99,1.67-2.41,2.52-5.34,2.4-8.27-.1-2.32-.78-6.27-3.28-7.24-1.37-.53-3.09.26-4.33-.53-1.32-.85-1.43-2.74-1.17-4.12.3-1.62.99-3.15,1.32-4.77s.44-3.36.27-5.04c-.25-2.44-.94-6.37-3.43-7.6-2.73-1.35-5.12,2.38-7.29,3.41-1.27.6-2.92.83-4.15.02-1.36-.9-1.52-2.89-1.91-4.33-.67-2.46-1.55-5.08-3.44-6.88-2.16-2.07-5.42-2.58-8.09-1.2s-4.01,4.57-3.47,7.54c.22,1.24,2.12.72,1.89-.52h0Z"/>
    <path class="cls-2" d="M136.89,79.08c-2.26,5.19-3.37,11.06-1.83,16.61,1.29,4.64,4.4,8.82,8.79,10.91,1.14.54,2.13-1.15.99-1.7-3.96-1.88-6.73-5.54-7.89-9.73-1.39-5.02-.42-10.41,1.63-15.1.5-1.15-1.19-2.15-1.7-.99h0Z"/>
    <path class="cls-2" d="M125.45,103.51c1.48-.65,2.79-1.58,3.91-2.74l-1.64-.43c.36,1.26.72,2.53,1.07,3.79.31,1.1.5,2.39,1.03,3.41.47.9,1.31,1.06,2.23.86,1.24-.28,2.46-.67,3.68-1l-1.24-.95c-.02,1.21.11,2.43.41,3.61.22.87.49,2.02,1.27,2.57.89.63,1.95.27,2.9.02,1.27-.34,2.55-.69,3.82-1.03l-1.24-.95c.19,2.34.37,4.68.56,7.02.1,1.25,2.07,1.26,1.96,0-.19-2.34-.37-4.68-.56-7.02-.05-.63-.59-1.12-1.24-.95-.81.22-1.62.44-2.43.65-.46.12-.93.25-1.39.37-.3.08-.8.32-1.11.26-.47-.09-.67-1.52-.76-1.97-.18-.86-.24-1.72-.23-2.59,0-.64-.63-1.11-1.24-.95-.89.24-1.79.48-2.68.73-.12.03-1.03.34-1,.35-.14-.05-.31-1.08-.36-1.25-.52-1.84-1.04-3.68-1.56-5.52-.2-.7-1.12-.97-1.64-.43-1.02,1.05-2.18,1.84-3.52,2.43-1.15.51-.16,2.2.99,1.7h0Z"/>
    <path class="cls-2" d="M153.92,111.49c-2.08-.55-5.21-.68-5.78,2.04-.25,1.2.52,2.26,1.1,3.24.75,1.28,1.5,2.56,2.25,3.84l.85-1.48c-1.72.04-3.43.27-5.1.71-1.21.32-3.2.72-3.97,1.79-.95,1.33.47,2.76,1.18,3.81.49.73.96,1.46,1.41,2.21.23.37.45.75.66,1.13.17.3.62.86.59,1.21l.29-.69.17-.08c-.17,0-.34.02-.51.02-.29,0-.57.02-.86.02-.51,0-1.03,0-1.54-.03-1.11-.05-2.22-.15-3.32-.32-.85-.13-1.9-.54-2.76-.26s-1.22,1.1-1.03,1.92c.29,1.23,2.18.71,1.89-.52-.15.37-.09.55.19.55.17.03.34.07.5.1.28.05.56.1.85.14.54.08,1.08.15,1.62.21,1.19.13,2.39.19,3.59.18.85,0,2.09.16,2.66-.63.65-.9-.2-2.01-.64-2.8-.54-.95-1.11-1.88-1.71-2.8-.33-.5-.67-1-1.01-1.49-.09-.13-.44-.46-.44-.64,0-.27.08-.23.36-.34,2.19-.91,4.56-1.37,6.93-1.43.74-.02,1.23-.82.85-1.48-.94-1.61-1.92-3.21-2.83-4.84-.37-.66-.38-1.21.39-1.56.82-.38,1.85-.04,2.67.17,1.22.32,1.75-1.57.52-1.89h0Z"/>
    <path class="cls-2" d="M135.39,124.48c1.05-5.48-1.44-10.87-5.3-14.69-4.22-4.17-9.84-6.47-15.16-8.87-1.14-.51-2.14,1.18-.99,1.7,4.85,2.18,9.96,4.25,13.98,7.83,3.74,3.33,6.56,8.38,5.57,13.51-.24,1.24,1.66,1.76,1.89.52h0Z"/>
    <path class="cls-2" d="M102.93,97.09s-.05-.06-.07-.09l.15.2c-.55-.71-1-1.49-1.36-2.32l.1.23c-.1-.24-.19-.48-.27-.72-.16-.49-.68-.86-1.21-.69-.48.16-.86.69-.69,1.21.44,1.31,1.1,2.48,1.95,3.56.15.18.47.29.69.29.24,0,.53-.11.69-.29s.3-.43.29-.69c-.01-.28-.12-.48-.29-.69h0Z"/>
    <path class="cls-2" d="M91.73,97.66c-3.2,2.3-6.92,3.64-10.86,3.84-.58.03-.92.43-.98.98-.7,5.86-1.49,11.93-4.73,17-.68,1.07,1.02,2.05,1.7.99,3.44-5.38,4.26-11.79,5-17.99l-.98.98c4.27-.21,8.38-1.61,11.85-4.11,1.02-.73.04-2.44-.99-1.7h0Z"/>
    <path class="cls-2" d="M82.03,126.96c3.04-6.14,6.05-12.57,5.06-19.6-.18-1.25-2.07-.72-1.89.52.9,6.42-2.09,12.51-4.86,18.09-.56,1.13,1.13,2.13,1.7.99h0Z"/>
    <path class="cls-2" d="M93.11,105.14c-.4,5.98-.8,11.96-1.19,17.95-.15,2.27-.24,4.74,1.21,6.65,1.25,1.64,3.27,2.37,5.21,2.82,3.94.9,9.1,1.47,10.95-3.06,1.85-4.51.57-9.86-1.79-13.92-2.9-4.99-7.63-8.54-12.26-11.81-1.03-.73-2.02.97-.99,1.7,6.76,4.78,15.01,11.49,13.83,20.82-.25,2.02-.95,4.16-3.12,4.76-1.8.5-3.79.11-5.58-.27s-3.84-.85-4.88-2.47c-1.17-1.82-.68-4.41-.55-6.44l1.11-16.72c.08-1.26-1.88-1.26-1.96,0h0Z"/>
    <path class="cls-2" d="M108.5,102.74c4.74,6.51,10.1,12.53,16.05,17.96l.96-1.64c-4.93-.98-9.9-1.74-14.9-2.3-.73-.08-1.24.9-.85,1.48,4.61,6.86,9.38,13.61,14.29,20.25l1.11-1.44c-5.07-1.79-10.29-3.11-15.6-3.94-1.24-.19-1.77,1.7-.52,1.89,5.32.83,10.53,2.14,15.6,3.94.77.27,1.62-.76,1.11-1.44-4.92-6.64-9.68-13.39-14.29-20.25l-.85,1.48c4.82.54,9.62,1.28,14.38,2.23.9.18,1.73-.93.96-1.64-5.83-5.31-11.11-11.19-15.75-17.56-.74-1.01-2.44-.03-1.7.99h0Z"/>
    <path class="cls-2" d="M120.4,126.12c2.95.47,5.94-.39,8.15-2.41.39-.36.36-1.03,0-1.39-.39-.39-1-.36-1.39,0-1.66,1.52-4.09,2.25-6.24,1.91-.52-.08-1.06.13-1.21.69-.13.47.16,1.13.69,1.21h0Z"/>
    <path class="cls-2" d="M124.41,131.14c2.66.3,5.35-.6,7.38-2.32.41-.34.35-1.04,0-1.39-.4-.4-.98-.34-1.39,0-1.63,1.38-3.8,1.99-5.99,1.74-.53-.06-.98.49-.98.98,0,.58.45.92.98.98h0Z"/>
    <path class="cls-2" d="M128.82,137.29c3.52.13,7.43,0,10.13-2.56.92-.87-.47-2.26-1.39-1.39-2.29,2.17-5.8,2.1-8.74,1.99-1.26-.05-1.26,1.92,0,1.96h0Z"/>
    <path class="cls-2" d="M116.32,57.84c2.78-3.05,5.71-6.02,8.29-9.25,2.07-2.6,4.12-5.86,3.77-9.34s-3.21-5.34-6.45-4.46c-3.44.94-5.04,4.56-5.86,7.72-.56,2.18-.92,4.43-1.23,6.65-.35,2.44-.56,4.89-.36,7.35.1,1.25,2.07,1.26,1.96,0-.28-3.55.28-7.07.91-10.55.52-2.84,1.12-6.37,3.43-8.36,1-.86,2.46-1.33,3.75-.91,1.36.45,1.9,1.83,1.92,3.16.06,3.02-1.92,5.81-3.78,8.02-2.48,2.94-5.16,5.73-7.74,8.58-.85.93.54,2.33,1.39,1.39h0Z"/>
    <path class="cls-2" d="M126.19,54.88c1.71-1.27,3.14-2.87,4.16-4.74.25-.45.13-1.09-.35-1.34s-1.08-.13-1.34.35c-.23.42-.48.82-.75,1.22-.06.09-.13.18-.19.27-.04.06-.09.12-.13.18-.07.09-.02.03.02-.02-.13.2-.31.39-.46.57-.3.35-.63.69-.96,1-.18.17-.36.33-.55.49-.08.07-.17.14-.25.21-.05.04-.09.08-.14.11l.08-.06s-.08.06-.12.09c-.21.16-.38.32-.45.59-.06.24-.04.55.1.76.26.41.9.68,1.34.35h0Z"/>
    <path class="cls-2" d="M132.69,45.65c.45-4.94-.69-10.74-5.52-13.21-1.12-.57-2.12,1.12-.99,1.7,4.22,2.16,4.93,7.25,4.54,11.51-.05.53.49.98.98.98.57,0,.93-.45.98-.98h0Z"/>
    <path class="cls-2" d="M112.92,27.49c4.75-.37,9.89-.8,14.31,1.34,3.97,1.92,6.83,5.46,9.22,9.06.7,1.05,2.4.07,1.7-.99-2.57-3.87-5.66-7.69-9.92-9.77-4.77-2.32-10.16-2.01-15.3-1.61-1.25.1-1.26,2.06,0,1.96h0Z"/>
    <path class="cls-2" d="M114.37,23.11c2.02,0,2.03-3.14,0-3.14s-2.03,3.14,0,3.14h0Z"/>
    <path class="cls-2" d="M120.24,22.27c2.02,0,2.03-3.14,0-3.14s-2.03,3.14,0,3.14h0Z"/>
    <path class="cls-2" d="M127.99,23.32c2.02,0,2.03-3.14,0-3.14s-2.03,3.14,0,3.14h0Z"/>
    <path class="cls-2" d="M135.53,27.09c2.02,0,2.03-3.14,0-3.14s-2.03,3.14,0,3.14h0Z"/>
    <path class="cls-2" d="M139.72,31.7c2.02,0,2.03-3.14,0-3.14s-2.03,3.14,0,3.14h0Z"/>
    <path class="cls-2" d="M144.33,36.31c2.02,0,2.03-3.14,0-3.14s-2.03,3.14,0,3.14h0Z"/>
    <path class="cls-2" d="M138.93,44.37l2.93-6.48-1.54.2c.98.88,1.44,2.02,1.83,3.25.33,1.08.51,2.48,1.18,3.42.77,1.09,2,.74,3.11.51,1.61-.34,3.22-.69,4.83-1.03l-.96-1.64c-1.36,1.22-2.29,2.76-2.77,4.51-.14.5.17,1.09.69,1.21,2.62.62,5.03,1.73,7.23,3.29l-.35-1.34c-.62.96-1.49,1.67-2.56,2.06-.74.27-.91,1.04-.43,1.64l.97,1.22c.16.2.32.41.48.61.1.13.47.8.49.53.02-.24-.35.27-.43.36-.19.21-.38.41-.57.62-.43.46-.86.93-1.29,1.39-.86.93.53,2.32,1.39,1.39.67-.72,1.34-1.44,2.01-2.17.43-.48.87-.92.86-1.61s-.44-1.12-.82-1.6c-.56-.72-1.13-1.43-1.69-2.14l-.43,1.64c1.58-.58,2.82-1.55,3.74-2.96.31-.47.06-1.05-.35-1.34-2.32-1.66-4.92-2.83-7.7-3.49l.69,1.21c.39-1.45,1.14-2.64,2.26-3.65.78-.7-.06-1.83-.96-1.64-1.34.29-2.68.57-4.03.86-.42.09-1.36.5-1.73.31-.32-.16-.47-1.08-.57-1.43-.58-1.96-1.13-3.97-2.7-5.38-.42-.38-1.27-.41-1.54.2l-2.93,6.48c-.52,1.14,1.18,2.14,1.7.99h0Z"/>
    <path class="cls-2" d="M147.88,51.84c-2.05-2.67-4.72-5.07-8.25-5.26s-6.06,2.25-7.25,5.3c-.64,1.64-.79,3.45-.15,5.11.59,1.51,1.65,2.73,2.96,3.65,2.48,1.75,6.65,3.03,9.44,1.3,1.54-.96,2.35-2.67,2.77-4.38.5-2.01.68-4.15.06-6.15-.38-1.2-2.28-.69-1.89.52.43,1.37.4,2.79.14,4.19-.22,1.18-.52,2.47-1.3,3.43-1.67,2.07-4.97,1.14-6.98.13-2.32-1.16-4.15-3.38-3.52-6.11.55-2.37,2.31-4.81,4.91-5.02,3.1-.25,5.6,1.98,7.37,4.28.33.42.84.64,1.34.35.42-.24.68-.92.35-1.34h0Z"/>
    <path class="cls-2" d="M142.25,53.93c-.41-1.33-1.38-2.67-2.83-2.92-1.53-.27-3.01.55-3.35,2.12-.15.71-.17,1.47-.1,2.19.07.78.25,1.59.7,2.25.86,1.25,2.56,1.95,3.94,1.07.69-.44,1.16-1.13,1.4-1.9.28-.88.21-1.82.12-2.72-.05-.51-.42-1.01-.98-.98-.49.02-1.04.43-.98.98s.11,1.24.06,1.71c-.01.14-.1.43-.16.64.06-.19-.04.08-.08.14-.03.05-.06.09-.09.14-.13.21.07-.06-.02.03-.08.08-.16.16-.23.23-.09.1.13-.07,0,0-.05.02-.09.06-.14.08-.03.02-.18.08-.07.04s-.04,0-.07.02c-.04.01-.08.02-.12.03.2-.05-.03-.01-.08,0-.06,0-.17-.04,0,0-.06-.01-.11-.02-.17-.04s-.11-.03-.16-.05c.04.02.15.08,0,0-.04-.02-.08-.04-.11-.07-.02-.01-.18-.11-.08-.05s-.05-.04-.07-.06c-.05-.05-.11-.1-.16-.15-.04-.04-.08-.09-.12-.13.11.14.02.01,0-.01-.06-.11-.13-.21-.18-.33.06.14-.07-.2-.08-.23-.04-.14-.08-.29-.1-.44,0-.02-.03-.23-.02-.12.01.1,0-.07,0-.07-.01-.13-.02-.27-.03-.4,0-.28,0-.56,0-.84,0-.06,0-.12.01-.18,0-.03.02-.22,0-.1s.01-.07.02-.1c.01-.06.03-.12.04-.18s.12-.29.04-.15c.03-.05.06-.11.09-.16.11-.21-.1.07.05-.07.04-.04.07-.07.11-.11-.03.03-.16.1-.01.02.04-.02.1-.05.14-.08,0,0-.16.05-.06.02s.2-.06.3-.08c.14-.04-.17,0-.02,0,.07,0,.13,0,.2,0,.05,0,.11,0,.16,0-.2,0-.05,0,.02,0,.05.01.1.03.16.04.1.03.15.06.03,0,.13.06.25.14.37.21-.03-.02-.13-.12,0,0,.04.04.09.08.13.12s.08.08.12.13c.02.02.17.24.07.07.07.11.15.22.21.33s.13.23.18.36c-.02-.04-.06-.17,0,.01.03.08.06.17.08.25.15.49.69.85,1.21.69s.85-.68.69-1.21h0Z"/>
    <path class="cls-2" d="M136.95,66.87c2.52.36,5.08-.56,7.56-.06,2.32.47,4.12,2.72,5.19,4.7,2.05,3.8,2.13,8.55.08,12.36-.32.59-.02,1.23.59,1.44,2.54.89,4.3,3.3,4.42,5.98.06,1.26,2.02,1.27,1.96,0-.16-3.6-2.46-6.68-5.86-7.87l.59,1.44c2.33-4.34,2.3-9.65.08-14.03-1.1-2.17-2.87-4.35-5.11-5.42-2.93-1.39-5.95,0-8.99-.44-1.24-.18-1.77,1.72-.52,1.89h0Z"/>
    <path class="cls-2" d="M154.91,92.45c1.99,2,2.31,4.9,2.03,7.59-.32,3.04-1.17,6.09-2.04,9.02-.36,1.21,1.54,1.73,1.89.52.98-3.3,1.93-6.76,2.16-10.21.2-3-.48-6.12-2.66-8.31-.89-.9-2.28.49-1.39,1.39h0Z"/>
    <path class="cls-2" d="M148.93,89.56c1.26,0,1.27-1.96,0-1.96s-1.27,1.96,0,1.96h0Z"/>
    <path class="cls-2" d="M148.7,63.16c7.52,4.46,11.42,13.25,9.64,21.82-.26,1.23,1.64,1.76,1.89.52,1.97-9.44-2.23-19.12-10.54-24.04-1.09-.65-2.08,1.05-.99,1.7h0Z"/>
    <path class="cls-2" d="M157.43,119.85c3.57-1.14,6.34-4.1,7.31-7.72.5-1.85.38-3.68-.01-5.53-.44-2.09-1.39-4.73.36-6.47,1.39-1.38,3.25-2.05,3.98-4.01s.15-3.95-.67-5.7c-1-2.11-2.79-4-3.13-6.38s1.51-4.06,2.98-5.68,2.85-3.66,2.53-5.94-2.36-3.56-4.4-4.27c-1.2-.42-1.71,1.48-.52,1.89,2.15.76,3.68,2.25,2.61,4.61-.81,1.79-2.42,3.04-3.6,4.57-1.01,1.32-1.71,2.84-1.6,4.53.12,1.94,1.11,3.68,2.1,5.3s2.39,3.72,2.02,5.8c-.34,1.93-2.44,2.63-3.69,3.86-2.91,2.86-.87,6.64-.59,10.04.32,4.02-2.37,7.95-6.19,9.18-1.2.39-.69,2.28.52,1.89h0Z"/>
    <path class="cls-2" d="M166.58,68.21c-.13-.12-.25-.24-.36-.37-.03-.03-.05-.06-.08-.09-.08-.1.11.16.04.05-.05-.08-.11-.15-.16-.23-.09-.15-.18-.3-.25-.46-.02-.04-.03-.07-.05-.11-.06-.12.07.19.03.06-.03-.09-.07-.17-.09-.26-.05-.16-.09-.31-.13-.47-.01-.05-.02-.1-.03-.15,0-.03-.03-.18,0-.02s0,.01,0-.02c0-.04,0-.08-.01-.12-.01-.17-.01-.35,0-.52,0-.04,0-.08,0-.12,0-.04.03-.22,0-.05-.02.16,0,.01,0-.02,0-.05.02-.1.03-.15.1-.5-.14-1.08-.69-1.21-.49-.11-1.1.15-1.21.69-.36,1.8.2,3.72,1.56,4.98.38.35,1.02.4,1.39,0,.35-.38.4-1.02,0-1.39h0Z"/>
    <path class="cls-2" d="M168.38,62.86l.86-1.67c.12-.23.17-.5.1-.76-.06-.23-.24-.47-.45-.59-.23-.12-.5-.18-.76-.1-.24.08-.47.22-.59.45l-.86,1.67c-.12.23-.17.5-.1.76.06.23.24.47.45.59.23.12.5.18.76.1.24-.08.47-.22.59-.45h0Z"/>
    <path class="cls-2" d="M171.2,67.56c.91-.21,1.79-.62,2.52-1.19.11-.06.21-.15.28-.25.09-.09.15-.21.18-.33.06-.24.04-.55-.1-.76s-.34-.39-.59-.45-.55-.06-.76.1c-.41.31-.85.57-1.32.77l.23-.1c-.31.13-.64.24-.97.32-.5.12-.85.72-.69,1.21.17.52.67.81,1.21.69h0Z"/>
    <path class="cls-2" d="M174.7,75.31h2.51c.51,0,1.01-.45.98-.98s-.43-.98-.98-.98h-2.51c-.51,0-1.01.45-.98.98s.43.98.98.98h0Z"/>
    <path class="cls-2" d="M170.3,87.46h1.89c.25,0,.52-.11.69-.29s.3-.45.29-.69-.09-.52-.29-.69-.43-.29-.69-.29h-1.89c-.25,0-.52.11-.69.29s-.3.45-.29.69.09.52.29.69.43.29.69.29h0Z"/>
    <path class="cls-2" d="M143.47,27.21c2.37,2.39,4.34,5.13,5.82,8.16.69,1.41,1.05,3.02,1.8,4.39s2.15,1.53,3.39,2.28c2.81,1.71,4.25,5.5,5.29,8.45,1.24,3.5,1.95,7.14,2.12,10.85.06,1.26,2.02,1.27,1.96,0-.18-3.8-.86-7.57-2.12-11.16-1.08-3.07-2.44-6.51-4.88-8.77-.56-.52-1.19-.99-1.88-1.33-.62-.31-1.45-.44-1.95-.94-.55-.55-.74-1.74-1.02-2.44-.31-.78-.65-1.55-1.02-2.31-1.55-3.17-3.64-6.05-6.12-8.55-.89-.9-2.28.49-1.39,1.39h0Z"/>
    <path class="cls-2" d="M164.27,27.41c.08,1.12.2,2.34-.33,3.38-.48.95-1.42,1.63-2.4,2.01-2.25.87-5.01.7-7.35.36-1-.14-1.85,1.25-.76,1.8,4.23,2.1,7.63,5.48,9.75,9.7.38.76,1.6.56,1.8-.23.74-2.97,1.38-5.97,1.92-8.98.22-1.24-1.67-1.77-1.89-.52-.54,3.02-1.18,6.01-1.92,8.98l1.8-.23c-2.26-4.48-5.96-8.17-10.46-10.41l-.76,1.8c2.97.43,6.35.63,9.14-.67,1.16-.54,2.22-1.46,2.83-2.6.72-1.36.7-2.88.59-4.37-.09-1.25-2.05-1.26-1.96,0h0Z"/>
    <path class="cls-2" d="M161.29,21.61h-3.98c-.51,0-1.01.45-.98.98s.43.98.98.98h3.98c.51,0,1.01-.45.98-.98s-.43-.98-.98-.98h0Z"/>
    <path class="cls-2" d="M166.49,18.82c-.01-1.41-.36-2.79-1-4.05-.23-.46-.92-.63-1.34-.35-.47.3-.6.85-.35,1.34.07.13.13.27.19.4.04.1.03.08-.02-.06.02.04.03.08.05.12.02.06.05.12.07.18.1.28.19.56.26.85.04.14.07.29.09.44.01.06.02.13.03.19,0,.04.01.08.02.13-.02-.16-.02-.18-.01-.07.03.3.05.59.05.89,0,.51.45,1.01.98.98s.99-.43.98-.98h0Z"/>
    <path class="cls-2" d="M173.26,20.16l1.27-1.66c.07-.11.11-.23.12-.37.03-.13.02-.26-.02-.39-.06-.23-.24-.47-.45-.59-.23-.12-.5-.18-.76-.1l-.23.1c-.15.09-.27.2-.35.35l-1.27,1.66c-.07.11-.11.23-.12.37-.03.13-.02.26.02.39.06.23.24.47.45.59.23.12.5.18.76.1l.23-.1c.15-.09.27-.2.35-.35h0Z"/>
    <path class="cls-2" d="M178.05,23.55c1.42.12,2.84.05,4.25-.17.23-.03.48-.26.59-.45.12-.21.18-.52.1-.76s-.22-.47-.45-.59c-.25-.13-.48-.14-.76-.1-.03,0-.32.05-.17.03s-.11.01-.14.02c-.17.02-.33.04-.5.05-.32.03-.64.05-.96.06-.65.02-1.31,0-1.96-.05-.51-.04-1,.48-.98.98.03.57.43.94.98.98h0Z"/>
    <path class="cls-2" d="M180.36,35.93h2.09c.25,0,.52-.11.69-.29s.3-.45.29-.69c-.02-.53-.43-.98-.98-.98h-2.09c-.25,0-.52.11-.69.29s-.3.45-.29.69c.02.53.43.98.98.98h0Z"/>
    <path class="cls-2" d="M180.92,48.98c-.02-.19-.02-.38,0-.57l-.04.26c.03-.21.08-.42.16-.61l-.1.23c.08-.19.18-.36.3-.52l-.15.2c.11-.14.24-.27.38-.39.18-.15.29-.47.29-.69,0-.24-.11-.53-.29-.69s-.43-.3-.69-.29l-.26.04c-.17.05-.31.13-.43.25-.44.36-.73.84-.94,1.36-.08.19-.13.38-.16.58-.04.29-.07.56-.04.85,0,.14.02.26.08.38.04.12.11.23.2.32.17.17.45.3.69.29s.52-.09.69-.29c.16-.18.32-.44.29-.69h0Z"/>
    <path class="cls-2" d="M182.4,54.11c.82.17,1.62.06,2.39-.27.67-.29,1.25-.81,1.63-1.44.27-.44.11-1.1-.35-1.34s-1.05-.11-1.34.35c-.05.08-.11.16-.17.24l.15-.2c-.14.17-.3.33-.47.47l.2-.15c-.2.15-.41.28-.64.38l.23-.1c-.23.1-.47.16-.72.2l.26-.04c-.25.03-.5.03-.75,0l.26.04c-.05,0-.11-.02-.16-.03-.26-.05-.52-.04-.76.1-.2.12-.4.35-.45.59-.11.49.15,1.1.69,1.21h0Z"/>
    <path class="cls-2" d="M190.05,57.07c.31-.07.62-.19.9-.34.11-.06.21-.12.31-.19.16-.12.32-.24.47-.38.1-.09.16-.19.2-.32.06-.12.09-.24.08-.38,0-.14-.02-.26-.08-.38-.04-.12-.11-.23-.2-.32-.19-.17-.43-.3-.69-.29l-.26.04c-.17.05-.31.13-.43.25-.06.06-.12.11-.19.16l.2-.15c-.18.14-.38.25-.59.34l.23-.1c-.15.06-.31.11-.47.15-.13.03-.24.09-.33.18-.11.07-.19.16-.25.28-.07.11-.11.23-.12.37-.03.13-.02.26.02.39.08.24.22.47.45.59l.23.1c.17.05.35.05.52,0h0Z"/>
    <path class="cls-2" d="M166.22,22.08c2.56,4.18,3.83,9.04,3.52,13.95s-2.04,9.49-1.49,14.35c.48,4.25,2.54,7.49,6.34,9.49,4.56,2.4,9.34,4.46,14.09,6.45,1.26.53,2.64,1.02,3.49,2.15.77,1.02,1.23,2.34,1.57,3.56.77,2.79.7,5.7-.13,8.47-.36,1.21,1.53,1.73,1.89.52,1.28-4.29,1.04-9.77-1.64-13.54-1.37-1.93-3.68-2.63-5.77-3.52-2.52-1.07-5.03-2.19-7.51-3.36-2.25-1.06-4.71-2.02-6.75-3.46-1.87-1.32-2.93-3.35-3.41-5.55-1.09-4.96.78-9.95,1.23-14.88.49-5.46-.87-10.97-3.73-15.63-.66-1.08-2.36-.09-1.7.99h0Z"/>
    <path class="cls-2" d="M187.46,57.74c-3.5.46-6.82-1.39-8.74-4.28-2.12-3.2-2.55-7.2-2.3-10.94.25-3.89,1.32-7.66,1.68-11.53.27-2.94-.09-6.07-2.31-8.22-.91-.88-2.3.51-1.39,1.39,2.68,2.59,1.81,6.86,1.23,10.13-.71,4.01-1.52,8.09-1.15,12.18.31,3.53,1.43,7.07,3.89,9.71,2.3,2.47,5.7,3.99,9.1,3.54,1.24-.16,1.25-2.13,0-1.96h0Z"/>
    <path class="cls-2" d="M174.08,82.95c4.36-.17,8.56-1.5,12.19-3.91l-1.48-.85c.07,5.69-.12,11.37-.58,17.04-.06.75.88,1.22,1.48.85,3.08-1.89,6.16-3.79,9.24-5.68l-1.48-.85c.2,4.07.24,8.15.14,12.23-.03,1.26,1.93,1.26,1.96,0,.1-4.08.06-8.15-.14-12.23-.03-.72-.82-1.26-1.48-.85-3.08,1.89-6.16,3.79-9.24,5.68l1.48.85c.46-5.67.65-11.35.58-17.04,0-.71-.84-1.27-1.48-.85-3.35,2.22-7.18,3.48-11.2,3.64-1.26.05-1.27,2.01,0,1.96h0Z"/>
    <path class="cls-2" d="M203.01,90.25c.3,2.89-.1,5.73-.87,8.52-.71,2.55-1.56,5.39-3.54,7.27s-4.7,2.34-6.81.52-2.43-4.72-2.09-7.33c.08-.66-.69-1.09-1.24-.95-3.08.79-7.32,1.54-8.48-2.37-.97-3.3-.94-6.9-.21-10.24.27-1.23-1.62-1.76-1.89-.52-.48,2.21-.7,4.46-.55,6.72.13,1.99.39,4.23,1.33,6.01,2.04,3.86,6.82,3.19,10.33,2.3l-1.24-.95c-.39,3.06.18,6.41,2.53,8.59,2.21,2.05,5.3,2.42,7.94.94,2.82-1.58,4.27-4.59,5.24-7.54,1.17-3.53,1.91-7.25,1.53-10.97-.13-1.25-2.09-1.26-1.96,0h0Z"/>
    <path class="cls-2" d="M171.77,104.22c1.26,0,1.27-1.96,0-1.96s-1.27,1.96,0,1.96h0Z"/>
    <path class="cls-2" d="M180.36,105.06c1.26,0,1.27-1.96,0-1.96s-1.27,1.96,0,1.96h0Z"/>
    <path class="cls-2" d="M185.96,108.23c.97.51,1.9,1.07,2.79,1.71.22.16.44.32.65.48.05.03.11.08.03.02.05.04.1.08.15.12.11.09.22.18.33.27.43.35.84.72,1.25,1.1.37.35,1.02.4,1.39,0s.4-1.01,0-1.39c-1.67-1.58-3.56-2.93-5.6-4-.46-.24-1.09-.13-1.34.35-.24.45-.13,1.09.35,1.34h0Z"/>
    <path class="cls-2" d="M203.3,132.15c.11-2.04.12-4.09.01-6.13-.1-1.85-.11-3.98-.78-5.73-1.07-2.76-4.26-3.81-6.97-3.05-1.59.45-2.98,1.41-4.18,2.52-.37.34-1.32,1.71-1.9,1.5-.64-.23-.9-1.61-1.04-2.14-.8-3.01-1.84-6.19-4.47-8.1-3.04-2.21-7.09-2.03-10.57-1.2-1.23.29-.71,2.19.52,1.89,3.83-.91,8.36-.85,10.7,2.85,1.05,1.67,1.49,3.57,2.03,5.45.38,1.34,1.15,3.03,2.71,3.26,1.77.25,2.89-1.74,4.1-2.7,1.54-1.23,3.56-2.09,5.52-1.32,2.23.89,2.16,3.56,2.32,5.59.18,2.43.19,4.87.06,7.31-.07,1.26,1.9,1.26,1.96,0h0Z"/>
    <path class="cls-2" d="M169.25,114.95c-3.69,2.33-6.06,6.57-5.35,10.98.34,2.07,1.35,4.08,2.89,5.51,1.68,1.56,3.85,2.3,6.09,2.6s4.38.29,6.39-.55,3.38-2.57,4.06-4.65c.72-2.2,1.01-4.84.57-7.11s-1.96-4.12-3.68-5.58c-1.89-1.61-4.2-2.87-6.74-2.93-2.35-.06-4.57.93-5.98,2.81-.76,1.01.94,1.99,1.7.99,2.28-3.03,6.61-1.81,9.14.12,1.4,1.06,2.8,2.45,3.41,4.13.67,1.84.4,4.05,0,5.92-.38,1.72-1.11,3.37-2.72,4.26-1.48.81-3.28.88-4.93.75-3.68-.28-6.99-1.96-8.06-5.71s.93-7.78,4.2-9.85c1.07-.67.08-2.37-.99-1.7h0Z"/>
    <path class="cls-2" d="M158.56,129.39c2.57,7.66,11.1,9.64,18.28,9.62,2.15,0,4.37-.11,6.42-.81,1.82-.62,3.45-1.67,5.14-2.57,4.19-2.22,8.49-1.62,12.64.43,1.13.56,2.13-1.14.99-1.7-3.34-1.65-7.12-2.73-10.85-1.92-3.96.85-6.92,3.92-11.02,4.43-6.91.86-17.13-.28-19.72-8.02-.4-1.19-2.3-.68-1.89.52h0Z"/>
    <path class="cls-2" d="M157.82,122.93c.05,3.37-1.52,6.58-4.28,8.54-.46.33-.6.83-.35,1.34.62,1.31,1.14,2.65,1.55,4.04.3,1.01,1.34,3.53.3,4.22-.78.52-1.86.69-2.7,1.18-.88.52-1.69,1.18-2.39,1.92-2.77,2.94-3.96,7.24-2.82,11.14l.45-1.11c-1.49.74-3.36-.14-4.95.3-1.39.38-2.24,1.48-2.77,2.76-.63,1.52-.91,3.29-2.66,3.91-1.98.7-4.1-.25-5.91-1-1.17-.48-1.68,1.42-.52,1.89,3.37,1.4,8.05,2.38,9.98-1.69.61-1.28.82-3.49,2.4-3.97.92-.28,1.98.02,2.92.03s1.7-.13,2.5-.53c.38-.19.57-.71.45-1.11-1.23-4.21.83-9.06,4.74-11.09,1.79-.93,3.97-1.19,3.67-3.76-.33-2.81-1.35-5.58-2.55-8.13l-.35,1.34c3.33-2.36,5.31-6.14,5.26-10.24-.02-1.26-1.98-1.27-1.96,0h0Z"/>
    <path class="cls-2" d="M139.89,146.36c3.35-3.09,6.5-6.38,9.44-9.86.34-.41.4-.99,0-1.39-.35-.35-1.05-.41-1.39,0-2.93,3.48-6.09,6.78-9.44,9.86-.93.86.46,2.25,1.39,1.39h0Z"/>
    <path class="cls-2" d="M140.4,136.19c-3.74,4.07-8.33,7.33-13.45,9.45-.56.23-.96.85-.59,1.44,1.02,1.6,2.93,2.46,4.5,3.43,1.85,1.15,3.69,2.35,5.57,3.46.86.5,1.53.45,2.27-.21s1.39-1.34,2.03-2.06c1.31-1.47,2.47-3.07,3.47-4.76.65-1.09-1.05-2.08-1.7-.99-.82,1.38-1.74,2.7-2.78,3.92-.53.62-1.09,1.23-1.68,1.8-.07.07-.84.8-.84.8l.36-.11-.27-.17c-.17-.18-.47-.29-.68-.42-1.49-.93-2.99-1.86-4.48-2.78-.72-.45-1.45-.9-2.17-1.35s-1.44-.84-1.89-1.55l-.59,1.44c5.44-2.25,10.33-5.61,14.31-9.95.85-.93-.53-2.32-1.39-1.39h0Z"/>
    <path class="cls-2" d="M114.78,139c-5.06.33-10.34.68-15.17-1.14-4.11-1.54-7.5-4.63-9.59-8.46-.61-1.11-2.3-.12-1.7.99,2.24,4.09,5.81,7.33,10.12,9.11,5.17,2.14,10.88,1.82,16.34,1.47,1.26-.08,1.26-2.05,0-1.96h0Z"/>
    <path class="cls-2" d="M82.38,135.23c-.97,2.64-1.77,5.52-.48,8.21,1.08,2.25,3.55,3.23,5.93,2.7s4.06-2.51,4.42-4.86c.38-2.48-.51-5.13-2.48-6.73-1.08-.88-2.44-1.43-3.85-1.3s-2.71.82-3.52,2.02c-.71,1.05.99,2.04,1.7.99.96-1.43,2.99-1.27,4.24-.36,1.46,1.07,2.19,2.97,2.03,4.74-.15,1.62-1.15,3.05-2.74,3.52s-3.1-.01-3.89-1.44c-1.22-2.18-.25-4.82.54-6.96.18-.5-.21-1.08-.69-1.21-.55-.15-1.02.19-1.21.69h0Z"/>
    <path class="cls-2" d="M95.43,148.69c.05-1.89.23-3.76.61-5.61.03-.13.23-.72.12-.67.16-.08,1.08.5,1.32.61.77.36,1.55.7,2.33,1.03,3.23,1.35,6.53,2.07,10.01,2.38,5.66.51,12.33,1.25,17.01-2.67.97-.81-.43-2.2-1.39-1.39-2.5,2.1-5.84,2.48-8.99,2.47-3.51-.02-7.18-.22-10.63-.93-1.74-.36-3.42-.91-5.06-1.58-.91-.37-1.81-.78-2.7-1.2-.61-.29-1.27-.7-1.96-.74-1.64-.1-1.87,1.62-2.09,2.86-.32,1.8-.5,3.61-.55,5.44-.03,1.26,1.93,1.26,1.96,0h0Z"/>
    <path class="cls-2" d="M115.84,148.97c-2.91.17-5.79-.25-8.53-1.24-.5-.18-1.08.2-1.21.69-.15.55.19,1.03.69,1.21,2.89,1.04,5.99,1.49,9.05,1.31.53-.03.98-.43.98-.98,0-.51-.45-1.01-.98-.98h0Z"/>
    <path class="cls-2" d="M100.65,149.63c.71,3.06,1.72,6.03,3.03,8.89.34.74.7,1.47,1.07,2.19.28.53.54,1.1,1.04,1.46,1.17.84,3.05.05,4.28-.3,1.57-.44,3.12-.98,4.66-1.52,1.15-.41,2.32-.85,3.28-1.63.86-.71,1.81-1.94,1.31-3.1-.54-1.28-2.17-2.27-3.36-2.85s-2.13,1.14-.99,1.7c.52.25,1.04.54,1.5.9.22.17.44.37.64.57.04.04.4.47.38.36.03.31-.65.86-.86,1.03-.35.27-.76.47-1.16.66-2.1.95-4.45,1.63-6.68,2.21-.33.09-1.49.55-1.81.39s-.59-.97-.74-1.26c-.54-1.06-1.04-2.13-1.49-3.23-.93-2.26-1.65-4.59-2.2-6.97-.29-1.23-2.18-.71-1.89.52h0Z"/>
    <path class="cls-2" d="M121.25,150.56c-.65.93-1.3,1.92-1.47,3.06s.06,2.26.85,3.07,1.92.99,2.89,1.41c1.1.48,2.17.9,3.39.71,2.07-.31,3.67-2.2,3.85-4.25s-1.11-4.06-2.87-5.02c-2.21-1.21-5.02-.79-7.01.66-.43.31-.64.85-.35,1.34.25.42.91.67,1.34.35,1.27-.92,2.88-1.39,4.41-.91,1.26.39,2.3,1.53,2.5,2.82.2,1.22-.61,2.56-1.8,2.97-.7.24-1.38.07-2.08-.21-.4-.16-.79-.34-1.19-.51s-.82-.26-1.21-.44c-1.77-.81-.3-3.01.44-4.07.3-.44.08-1.09-.35-1.34-.49-.29-1.04-.08-1.34.35h0Z"/>
    <path class="cls-2" d="M97.59,147.61c-.34,2.17-1.04,4.07-2.16,5.91-.27.44-.11,1.1.35,1.34s1.06.12,1.34-.35c1.19-1.95,2-4.13,2.36-6.38.08-.51-.13-1.08-.69-1.21-.47-.11-1.12.14-1.21.69h0Z"/>
    <path class="cls-2" d="M96.18,152.85c-4.48-.81-8.8-2.3-12.8-4.46-1.11-.6-2.11,1.1-.99,1.7,4.15,2.24,8.63,3.82,13.27,4.66,1.24.22,1.77-1.67.52-1.89h0Z"/>
    <path class="cls-2" d="M78.76,144.44c1.26,0,1.27-1.96,0-1.96s-1.27,1.96,0,1.96h0Z"/>
    <path class="cls-2" d="M76.03,146.96c1.26,0,1.27-1.96,0-1.96s-1.27,1.96,0,1.96h0Z"/>
    <path class="cls-2" d="M68.91,149.05c1.26,0,1.27-1.96,0-1.96s-1.27,1.96,0,1.96h0Z"/>
    <path class="cls-2" d="M66.22,157.16c.41-1.6,2.63-1.12,3.74-.8,1.67.49,3.6,1.23,4.93-.34.53-.63.8-1.39.99-2.18s.29-1.58.9-2.12c.82-.73,2.26-.93,3.16-.22.98.78,2.38-.6,1.39-1.39-1.34-1.07-3.08-1.29-4.66-.61-.72.31-1.34.79-1.8,1.43-.62.86-.72,1.92-1.02,2.91-.11.38-.29.85-.65,1.08-.46.29-1.18,0-1.65-.13-1.07-.3-2.11-.69-3.23-.74-1.71-.08-3.55.84-3.99,2.58-.31,1.23,1.58,1.75,1.89.52h0Z"/>
    <path class="cls-2" d="M160.35,136.7c.75,3.47,3.76,6.12,5.74,8.92,2.12,3.01,3.95,6.45,3.99,10.23.02,1.64-.25,3.64-1.56,4.79-1.73,1.51-3.57.31-4.43-1.45-1.35-2.77-.42-6.31,1.79-8.35,4.75-4.38,12.6-2.56,16.37,2.16,1.22,1.52,4.22,7.4.6,7.85-3.89.48-4.18-5.03-4.14-7.62.06-3.8,2.26-6.63,5.69-8.14,3.88-1.71,8.35-1.26,12.45-.9,1.26.11,1.25-1.86,0-1.96-4.61-.4-9.48-.75-13.77,1.32-3.69,1.79-6.15,5.08-6.33,9.22-.15,3.61.34,8.89,4.6,9.91,1.57.37,3.3.01,4.3-1.32,1.21-1.6.86-3.87.27-5.65-2.51-7.48-11.69-11.48-18.83-8.05-3.45,1.66-5.75,5.2-5.59,9.06.15,3.46,2.94,7.92,6.94,6.23,4.78-2.02,3.94-8.98,2.4-12.84-1.01-2.53-2.5-4.79-4.14-6.95s-3.88-4.26-4.46-6.99c-.27-1.24-2.16-.71-1.89.52h0Z"/>
    <path class="cls-2" d="M189.67,152.8c1.61-2.43,4.53-3.75,7.38-3.52.53.04.98-.48.98-.98,0-.57-.45-.94-.98-.98-3.57-.29-7.12,1.52-9.08,4.49-.29.44-.09,1.09.35,1.34.48.28,1.05.09,1.34-.35h0Z"/>
    <path class="cls-2" d="M162.08,148.55c-.08-.88-.37-1.74-.9-2.45-.27-.35-.54-.67-.89-.95-.42-.33-.83-.56-1.32-.76-.22-.09-.56-.02-.76.1s-.4.35-.45.59c-.06.25-.04.53.1.76s.34.35.59.45l.04.02-.23-.1c.23.1.45.22.66.36.05.03.11.07.15.11l-.12-.1s.05.04.07.06c.1.08.19.16.28.25s.17.18.25.28c.12.14-.14-.2-.04-.05.04.05.07.1.11.15.14.21.26.43.36.66l-.1-.23c.13.32.23.65.27.99l-.04-.26s.01.09.02.14c.03.27.09.5.29.69.17.17.45.3.69.29.49-.02,1.04-.43.98-.98h0Z"/>
    <path class="cls-2" d="M156.04,150.5c.21,2.67-.26,5.35.15,8.01s1.88,4.71,3.58,6.64c.83.95,2.22-.44,1.39-1.39-1.53-1.75-2.83-3.64-3.1-6.01s.14-4.83-.05-7.25c-.1-1.25-2.06-1.26-1.96,0h0Z"/>
    <path class="cls-2" d="M190.56,167.85c4.05-3.36,5.9-8.91,4.86-14.04-.25-1.24-2.14-.71-1.89.52.91,4.48-.86,9.22-4.36,12.13-.97.81.42,2.19,1.39,1.39h0Z"/>
    <path class="cls-2" d="M193.71,172.72c1.42,1.77,2.65,3.89,2.48,6.23-.15,2.14-1.71,3.89-3.92,3.85-1.26-.02-1.26,1.94,0,1.96,3.06.06,5.4-2.26,5.82-5.21.44-3.11-1.11-5.89-2.98-8.23-.33-.41-1.04-.35-1.39,0-.41.41-.33.97,0,1.39h0Z"/>
    <path class="cls-2" d="M185.93,171.32c.52,2.54,1.4,4.95,2.61,7.24l.59-1.44c-9.73,2.2-19.61,3.63-29.56,4.27-1.26.08-1.26,2.05,0,1.96,10.13-.65,20.19-2.1,30.08-4.34.64-.15.87-.91.59-1.44-1.14-2.14-1.93-4.4-2.42-6.77-.25-1.24-2.15-.71-1.89.52h0Z"/>
    <path class="cls-2" d="M158.98,181.45c-1.35.1-2.63-.16-3.84-.76-1.06-.52-2.04-1.63-3.16-1.92s-1.67.66-2.12,1.54c-.3.59-.63,1.17-.99,1.73-.32.51-.75,1.49-1.31,1.77l.76-.1c-.59-.13-1.35-1-1.83-1.36-.65-.48-1.32-.94-2-1.38-1.03-.65-2.45-1.8-3.7-1.85s-2.08,1.22-2.75,2.12c-.92,1.24-1.9,2.9-3.63,2.96-1.26.05-1.27,2.01,0,1.96,2.95-.11,4.11-2.6,5.83-4.56.62-.71.78-.39,1.56.04.64.36,1.28.74,1.9,1.14.68.44,1.35.9,2,1.39.53.4,1.03.97,1.62,1.27,1.02.51,1.7-.18,2.27-.95.44-.59.85-1.21,1.23-1.84.15-.26.86-1.92,1.05-1.95-.21.04,1.04.97,1.21,1.07.6.38,1.23.69,1.89.96,1.29.53,2.64.78,4.04.67,1.25-.09,1.26-2.06,0-1.96h0Z"/>
    <path class="cls-2" d="M120.41,177.9c.4-3.32,1.03-7.83,4.74-9.07,4.26-1.42,5.76,3.91,6.24,6.98.18,1.18,1.82.74,1.93-.26.34-3.15,1.08-7.37,4.64-8.39,3.87-1.11,5.46,3.64,6.16,6.46.23.94,1.65.93,1.89,0,.41-1.59.22-3.29.68-4.85.53-1.8,2.26-2.62,4.06-2.28,3.84.72,5.36,5.39,6.89,8.42.57,1.13,2.27.13,1.7-.99-1.94-3.83-3.97-9.11-9-9.45-1.84-.12-3.8.64-4.84,2.21-1.27,1.92-.83,4.3-1.37,6.42h1.89c-.97-3.89-3.3-8.96-8.22-7.92s-5.99,6.25-6.44,10.37l1.93-.26c-.38-2.4-.95-4.9-2.68-6.72-1.46-1.54-3.55-2.26-5.63-1.74-4.95,1.25-6.01,6.74-6.53,11.06-.15,1.25,1.82,1.24,1.96,0h0Z"/>
    <path class="cls-2" d="M165.34,173.14c1.65.37,2.98-.61,4.44-1.2s3.04-1.05,4.63-1.23c3.06-.35,6.14.28,8.66,2.08,1.03.73,2.01-.97.99-1.7-2.51-1.78-5.62-2.57-8.68-2.42-1.61.08-3.21.38-4.74.88-.76.24-1.5.53-2.23.85s-1.7,1.04-2.56.84c-1.23-.28-1.76,1.62-.52,1.89h0Z"/>
    <path class="cls-2" d="M172.17,176.97c1.26,0,1.27-1.96,0-1.96s-1.27,1.96,0,1.96h0Z"/>
    <path class="cls-2" d="M151.03,172.32c1.26,0,1.27-1.96,0-1.96s-1.27,1.96,0,1.96h0Z"/>
    <path class="cls-2" d="M139.49,173.97c1.26,0,1.27-1.96,0-1.96s-1.27,1.96,0,1.96h0Z"/>
    <path class="cls-2" d="M125.1,176.67c1.26,0,1.27-1.96,0-1.96s-1.27,1.96,0,1.96h0Z"/>
    <path class="cls-2" d="M130.68,190.15c-4.48.9-10.44,4.99-14.6,1.17-1.58-1.45-2.48-3.5-3.1-5.52-.8-2.59-1.16-5.31-.25-7.91.42-1.2-1.48-1.71-1.89-.52-1.02,2.91-.65,6.06.25,8.95.72,2.33,1.79,4.71,3.61,6.38,2.07,1.9,4.76,2.4,7.48,1.99,3.12-.47,5.94-2.03,9.03-2.66,1.24-.25.71-2.14-.52-1.89h0Z"/>
    <path class="cls-2" d="M123.75,161.55c-1.42-.13-2.83-.1-4.24.1-1.27.18-2.7.36-3.31,1.65-.57,1.19-.61,2.76-.84,4.05-.28,1.57-.55,3.14-.83,4.7l1.44-.59c-3.32-1.65-6.65-3.3-9.97-4.96-1.13-.56-2.13,1.13-.99,1.7,3.32,1.65,6.65,3.3,9.97,4.96.52.26,1.33.08,1.44-.59.44-2.5.87-4.99,1.31-7.49.08-.46.09-.95.53-1.18.5-.27,1.28-.3,1.83-.36,1.21-.14,2.44-.13,3.65-.02s1.25-1.85,0-1.96h0Z"/>
    <path class="cls-2" d="M99.02,154.81c-2.1,1.7-4.07,3.55-5.88,5.56-1.56,1.73-3.7,3.83-4.41,6.11-1.32,4.23,3.67,8.55,7.73,7.27,4.54-1.43,4.26-7.98,2.91-11.52-1.65-4.32-5.55-7.57-10.13-8.31-3.02-.49-6.06.06-8.95.93-2.52.76-5.65,1.47-7.55,3.42-.88.9.5,2.3,1.39,1.39,1.32-1.35,3.37-1.83,5.12-2.41,2.12-.71,4.3-1.35,6.53-1.51,3.82-.27,7.54,1.1,10,4.1,2.19,2.68,3.7,7.73,1.6,10.88-1.13,1.69-3.32,1.52-4.86.5-1.75-1.17-2.57-3.19-1.45-5.07s2.72-3.59,4.22-5.17c1.6-1.7,3.32-3.28,5.14-4.75.98-.8-.42-2.18-1.39-1.39h0Z"/>
    <path class="cls-2" d="M72.84,158.27c-1.42,1-2.8,2.05-4.14,3.14-.4.33-.36,1.06,0,1.39.43.39.96.35,1.39,0,.32-.26.63-.51.95-.76.08-.06.16-.13.24-.19.04-.03.08-.06.12-.09-.1.08-.1.08-.02.01.16-.12.32-.25.48-.37.65-.49,1.3-.97,1.97-1.44.42-.3.66-.87.35-1.34-.27-.42-.9-.67-1.34-.35h0Z"/>
    <path class="cls-2" d="M72.49,168.36c5.03-.41,9.4-2.98,13.61-5.57l-1.44-1.11c-1.54,5-3.05,10-4.61,14.99-.06.19-.1.45-.23.61-.08.07-.07.11.02.12-.08-.05-.15-.11-.21-.18-.34-.41-.6-.9-.88-1.36-.62-1-1.28-1.98-1.96-2.94-1.38-1.95-2.88-3.82-4.48-5.6-.85-.94-2.23.45-1.39,1.39,1.85,2.06,3.55,4.24,5.09,6.53.92,1.37,2.88,5.77,5.11,3.55.84-.84,1.05-2.37,1.39-3.46l1.33-4.33c.9-2.94,1.8-5.87,2.71-8.81.25-.81-.72-1.56-1.44-1.11-3.88,2.39-7.96,4.92-12.61,5.3-1.25.1-1.26,2.07,0,1.96h0Z"/>
    <path class="cls-2" d="M82.13,182.47l3.16-3.43c.33-.36,1.01-1.46,1.47-1.59s1.3.59,1.68.82c2.13,1.3,4.26,2.92,6.88,2.91,2.35,0,4.47-1.35,5.9-3.15.37-.47.7-.97.99-1.5.24-.44.52-1.3.99-1.52.56-.26,1.64.45,2.2.69.81.36,1.62.72,2.43,1.07,1.15.51,2.15-1.19.99-1.7-1.52-.67-3.09-1.58-4.69-2.04-1.13-.33-2.11.15-2.8,1.06-.86,1.14-1.28,2.45-2.34,3.46s-2.4,1.7-3.86,1.65c-2.99-.09-4.93-2.8-7.62-3.65-1.37-.43-2.14.48-2.99,1.39l-3.79,4.12c-.86.93.53,2.32,1.39,1.39h0Z"/>
    <path class="cls-2" d="M92.05,196.21c3.92-5.26,8.11-10.31,12.54-15.14l-1.54-.2c1,2.01,1.88,4.07,2.63,6.19.39,1.09.77,2.2,1.06,3.33.13.48-.12.44-.57.55-.6.14-1.21.25-1.81.38-4.67.97-9.35,1.94-14.02,2.91-1.24.26-.71,2.15.52,1.89,2.75-.57,5.5-1.14,8.25-1.71,1.32-.27,2.64-.55,3.96-.82s2.68-.46,3.97-.84c1.02-.3,1.8-1.01,1.74-2.13s-.63-2.4-1-3.47c-.85-2.48-1.87-4.91-3.04-7.26-.28-.55-1.14-.64-1.54-.2-4.54,4.96-8.83,10.15-12.85,15.54-.76,1.01.95,1.99,1.7.99h0Z"/>
    <path class="cls-2" d="M66.4,180.67c-1.22,4.67-2.47,9.51-1.98,14.38.21,2.06.69,4.06,1.55,5.94.79,1.74,2,3.98,4.16,4.04,1.26.04,1.26-1.93,0-1.96-.94-.03-1.55-1.34-1.95-2.07-.45-.8-.8-1.64-1.07-2.52-.54-1.72-.79-3.52-.81-5.33-.05-4.08,1-8.06,2.02-11.97.32-1.22-1.58-1.75-1.89-.52h0Z"/>
    <path class="cls-2" d="M53.13,166.73c.24,1.95-.15,3.92.08,5.87.21,1.73.96,3.33,2.23,4.54,2.66,2.53,6.77,2.77,9.91,1.04s4.99-5.19,4.76-8.73c-.12-1.79-.69-3.69-1.99-4.99s-3.12-1.9-4.83-2.24c-3.86-.77-8.43.39-10.17,4.27-.51,1.14,1.18,2.15,1.7.99,1.18-2.64,4-3.72,6.75-3.53,1.43.1,2.98.49,4.24,1.21,1.33.77,1.97,2.08,2.24,3.55.51,2.79-.69,5.75-3.03,7.35s-5.6,1.81-7.87-.02c-1.23-.99-1.93-2.4-2.04-3.97-.14-1.78.19-3.56-.03-5.35-.06-.53-.41-.98-.98-.98-.48,0-1.05.46-.98.98h0Z"/>
    <path class="cls-2" d="M50.39,160.68c-.94,3.01-1.97,6.05-2.11,9.23-.06,1.46.07,2.96.47,4.37.35,1.24.85,2.97,2.32,3.14,1.26.14,1.25-1.83,0-1.96.31.12.36.06.14-.2-.08-.16-.16-.33-.23-.49-.1-.24-.19-.5-.27-.75-.18-.59-.32-1.21-.4-1.82-.14-1.15-.12-2.33.02-3.48.31-2.57,1.18-5.04,1.94-7.5.38-1.21-1.52-1.73-1.89-.52h0Z"/>
    <path class="cls-2" d="M40.29,161.3c-4.6-.95-9-2.58-13.1-4.89v1.7c3.7-1.95,7.4-3.9,11.1-5.84l.53-.28c-.37.02-.37.14,0,.38.19.42.76.86,1.07,1.21.71.8,1.43,1.61,2.14,2.41,1.43,1.61,2.85,3.21,4.28,4.82.84.95,2.23-.45,1.39-1.39-1.6-1.81-3.21-3.62-4.81-5.42-.8-.9-1.6-1.81-2.41-2.71-.55-.62-1.11-1.37-2.04-1.21-.88.15-1.76.83-2.55,1.24-1.06.56-2.11,1.11-3.17,1.67-2.17,1.14-4.34,2.29-6.52,3.43-.65.34-.62,1.34,0,1.7,4.24,2.38,8.81,4.1,13.57,5.08,1.23.25,1.76-1.64.52-1.89h0Z"/>
    <path class="cls-2" d="M40.35,159.01c.73.87,1.44,1.76,2.1,2.69.27.38.61.77.82,1.18s-.04.9-.19,1.34c-.68,1.94-1.66,3.76-2.86,5.43l1.34-.35c-3.04-2.21-6.4-3.92-9.96-5.13-1.2-.41-1.72,1.49-.52,1.89,3.4,1.15,6.59,2.82,9.5,4.93.46.33,1.06.04,1.34-.35,1.41-1.98,2.58-4.21,3.27-6.55.18-.62.23-1.2-.03-1.81-.24-.57-.66-1.07-1.02-1.57-.76-1.06-1.57-2.09-2.41-3.09s-2.2.43-1.39,1.39h0Z"/>
    <path class="cls-2" d="M38.43,173.14c1.38,3.41,4.26,6.07,7.82,7.07.51.14,1.07-.18,1.21-.69s-.17-1.07-.69-1.21c-1.43-.4-2.78-1.14-3.87-2.11-.29-.26-.56-.53-.82-.82-.28-.31-.44-.51-.64-.79-.22-.31-.43-.64-.62-.98-.18-.32-.41-.79-.49-1-.2-.49-.65-.84-1.21-.69-.47.13-.89.71-.69,1.21h0Z"/>
    <path class="cls-2" d="M28.41,171.04c.53,1.79,1.67,3.23,2.97,4.53,1.46,1.47,3,2.85,4.57,4.19s3.14,2.57,4.77,3.78,3.29,2.26,5.34,2.31c1.26.03,1.26-1.94,0-1.96-1.77-.04-3.24-1.21-4.6-2.22-1.49-1.11-2.95-2.28-4.36-3.49s-2.68-2.37-3.95-3.61c-1.19-1.17-2.37-2.41-2.85-4.04-.36-1.21-2.25-.7-1.89.52h0Z"/>
    <path class="cls-2" d="M18.38,156.98c-2.55,3.1-1.39,8.35,1.72,10.67.83.62,2.03,1.11,3.06.75s1.5-1.48,1.78-2.47c.6-2.11.68-4.53-.19-6.57-.94-2.2-3.21-3.76-5.64-3.2-1.23.28-.71,2.17.52,1.89,1.32-.3,2.56.62,3.16,1.74.72,1.33.77,3.05.51,4.51-.08.44-.18.87-.31,1.29-.08.26-.16.63-.34.83-.35.4-1.2-.18-1.51-.43-1.04-.81-1.68-2.15-2-3.4-.36-1.39-.34-3.07.62-4.23.34-.41.4-.99,0-1.39-.35-.35-1.05-.41-1.39,0h0Z"/>
    <path class="cls-2" d="M16.15,153.65l-1.9-.88c-.11-.07-.23-.11-.37-.12-.13-.03-.26-.02-.39.02-.23.06-.47.24-.59.45-.12.23-.18.5-.1.76.07.23.22.48.45.59l1.9.88c.11.07.23.11.37.12.13.03.26.02.39-.02.23-.06.47-.24.59-.45.12-.23.18-.5.1-.76-.07-.23-.22-.48-.45-.59h0Z"/>
    <path class="cls-2" d="M14.17,155.77c-.36-.06-.72-.1-1.08-.08s-.72.08-1.07.18c-.24.07-.46.23-.59.45s-.18.52-.1.76.22.47.45.59.5.18.76.1c.19-.06.37-.1.56-.12l-.26.04c.31-.04.63-.04.94,0l-.26-.04s.08.01.12.02c.13.04.26.05.39.02.13,0,.25-.04.37-.12.2-.12.4-.35.45-.59.06-.25.04-.53-.1-.76-.13-.2-.34-.41-.59-.45h0Z"/>
    <path class="cls-2" d="M13.74,159.77c-.84-.1-1.7-.03-2.53.15-.23.05-.47.25-.59.45s-.18.52-.1.76c.17.53.67.8,1.21.69.18-.04.37-.07.55-.1l-.26.04c.57-.08,1.15-.08,1.72-.02.23.03.54-.13.69-.29.17-.17.3-.45.29-.69s-.09-.52-.29-.69l-.2-.15c-.15-.09-.32-.13-.5-.13h0Z"/>
    <path class="cls-2" d="M13.9,163.82l-1.05,1.73c-.13.22-.17.52-.1.76.06.23.24.47.45.59.23.12.5.18.76.1s.45-.23.59-.45l1.05-1.73c.13-.22.17-.52.1-.76-.06-.23-.24-.47-.45-.59-.23-.12-.5-.18-.76-.1s-.45.23-.59.45h0Z"/>
    <path class="cls-2" d="M16.15,168.33c.03.32.03.65-.01.97l.04-.26c-.03.22-.08.44-.14.65-.07.24-.03.54.1.76s.35.4.59.45c.25.06.53.04.76-.1s.38-.34.45-.59c.1-.34.16-.69.19-1.05.03-.28.03-.55,0-.83,0-.14-.02-.26-.08-.38-.04-.12-.11-.23-.2-.32-.17-.17-.45-.3-.69-.29s-.52.09-.69.29c-.17.18-.31.44-.29.69h0Z"/>
    <path class="cls-2" d="M14.44,146.65c-2.95.51-5.09,3.81-6.24,6.33-1.27,2.79-1.81,5.9-1.43,8.95.73,5.96,4.83,10.99,10.34,13.24,1.17.48,1.68-1.42.52-1.89-4.65-1.9-8.17-6.3-8.89-11.29-.36-2.54,0-5.17.95-7.54.88-2.21,2.71-5.46,5.27-5.9,1.24-.21.72-2.11-.52-1.89h0Z"/>
    <path class="cls-2" d="M1.94,153.48c.68,8.76,2.97,17.27,6.78,25.19.55,1.14,2.24.14,1.7-.99-3.65-7.58-5.86-15.8-6.52-24.19-.1-1.25-2.06-1.26-1.96,0h0Z"/>
    <path class="cls-2" d="M1.91,145.3c-1.82,3.51-3.67,7.11-4.52,10.99-.8,3.62-.56,7.27.68,10.76s3.18,6.68,5.11,9.83c2.06,3.36,4.23,6.68,7.03,9.48.44.44,1.24.36,1.54-.2,1.08-1.97,2.16-3.94,3.23-5.91.61-1.11-1.09-2.1-1.7-.99-1.08,1.97-2.16,3.94-3.23,5.91l1.54-.2c-2.58-2.58-4.59-5.61-6.49-8.7s-3.76-6.03-5-9.34-1.59-6.97-.73-10.55,2.54-6.86,4.22-10.09c.58-1.12-1.11-2.12-1.7-.99h0Z"/>
    <path class="cls-2" d="M17.7,178.84c.25,3.19,1.47,6.15,2.56,9.12,1.17,3.22,2.34,6.44,3.52,9.66.43,1.18,2.33.67,1.89-.52-1.13-3.1-2.26-6.21-3.39-9.31-1.05-2.89-2.37-5.84-2.61-8.94-.1-1.25-2.06-1.26-1.96,0h0Z"/>
    <path class="cls-2" d="M43.14,190.63c-.08,2.85.02,5.68.31,8.52l.98-.98c-1.81-.08-3.62-.16-5.43-.24s-3.68.03-5.43-.24c-.94-.14-1.09-.54-1.46-1.33s-.71-1.57-1.06-2.35c-.72-1.64-1.4-3.3-2.05-4.97-2.47-6.34-4.45-12.87-5.94-19.51l-1.21,1.21c2.31.94,3.27,3.95,4.62,5.85,1.44,2.03,3.18,3.82,5.06,5.44,3.89,3.37,8.27,6.13,12,9.69.91.87,2.31-.51,1.39-1.39-3.91-3.74-8.55-6.58-12.57-10.19-1.96-1.76-3.75-3.71-5.11-5.97s-2.43-4.33-4.87-5.32c-.74-.3-1.35.56-1.21,1.21,1.66,7.4,3.93,14.66,6.81,21.69.68,1.67,1.4,3.33,2.15,4.97.6,1.31,1.07,2.55,2.61,2.86,1.76.36,3.74.21,5.53.29,2.06.09,4.12.18,6.17.27.49.02,1.03-.47.98-.98-.29-2.83-.39-5.67-.31-8.52.04-1.26-1.93-1.26-1.96,0h0Z"/>
  </g>
  <rect class="cls-1" y="11" width="191" height="170"/>
</svg>