<?xml version="1.0" encoding="UTF-8"?>
<svg id="Laag_1" data-name="Laag 1" xmlns="http://www.w3.org/2000/svg" viewBox="0 0 190 75">
  <defs>
    <style>
      .cls-1, .cls-2 {
        stroke-width: 3.37px;
      }

      .cls-1, .cls-2, .cls-3, .cls-4, .cls-5, .cls-6, .cls-7 {
        fill: none;
      }

      .cls-1, .cls-3, .cls-4, .cls-5, .cls-6, .cls-7 {
        stroke-linecap: round;
        stroke-linejoin: round;
      }

      .cls-1, .cls-3, .cls-4, .cls-5, .cls-7 {
        stroke: #e14873;
      }

      .cls-2 {
        stroke-miterlimit: 10;
      }

      .cls-2, .cls-6 {
        stroke: #e04873;
      }

      .cls-3 {
        stroke-width: 3.3px;
      }

      .cls-4 {
        stroke-width: 2.75px;
      }

      .cls-5, .cls-6 {
        stroke-width: 2.81px;
      }

      .cls-7 {
        stroke-width: 2.16px;
      }

      .cls-8 {
        fill: #f7c7d8;
      }

      .cls-8, .cls-9 {
        stroke-width: 0px;
      }

      .cls-9 {
        fill: #df4873;
      }
    </style>
  </defs>
  <rect class="cls-8" x="18" y="8" width="45" height="55"/>
  <rect class="cls-8" x="72" y="8" width="45" height="55"/>
  <rect class="cls-8" x="126" y="8" width="45" height="55"/>
  <g>
    <path class="cls-2" d="M60.46,35.92c-2.76,4.65-7.08,6.53-11.87,8.61-3.16,1.37-5.23,1.64-9.37,2.17-1.53.2-2.66.26-3.8-.33-2.14-1.12-3.12-3.98-3.32-4.54-.1-.27-.18-.54-.24-.81-.28-1.15-.3-2.52-.03-5.08.68-6.2,1.02-9.3,3.1-12.78.86-1.43,2.62-4.27,6.15-6.37,1.18-.71,5.51-3.21,11.1-2.13,1.25.24,6.11,1.18,8.98,5.43,4.53,6.74-.44,15.39-.7,15.83Z"/>
    <path class="cls-2" d="M30.68,51.43c1.3,1.89.86,4.32-.67,5.43-1.3.93-3.17.79-4.42-.2-1.69-1.32-1.44-3.49-1.43-3.61-.29,0-1.92-.03-2.99-1.29-1.13-1.33-1.41-3.74.06-4.97,1.12-.93,2.91-.93,4.29.08,2.11-1.95,4.23-3.9,6.34-5.85.06.28.15.54.24.81.15.4,1.13,3,3.32,4.54-1.58,1.68-3.17,3.37-4.74,5.06Z"/>
    <path class="cls-6" d="M39.81,24.41c1.01-.99,3.18-2.86,6.51-3.85,3.69-1.1,6.8-.54,8.19-.2"/>
  </g>
  <g>
    <path class="cls-3" d="M103.48,44.14l-2.04,5.67-6.45,17.93-6.45-17.93-2.01-5.59c.52.09,1.06.14,1.61.14,2.6,0,4.96-1.06,6.67-2.77,1.7,1.71,4.07,2.77,6.67,2.77.69,0,1.36-.07,2.01-.22Z"/>
    <path class="cls-3" d="M110.89,34.94c0,4.52-3.17,8.29-7.41,9.2-.65.15-1.32.22-2.01.22-2.6,0-4.97-1.06-6.67-2.77-1.7,1.71-4.06,2.77-6.67,2.77-.55,0-1.09-.05-1.61-.14-4.44-.76-7.81-4.62-7.81-9.28,0-4.38,2.99-8.07,7.04-9.12-.07-.46-.1-.92-.1-1.39,0-5.21,4.22-9.43,9.43-9.43s9.42,4.22,9.42,9.43c0,.53-.05,1.04-.13,1.55,3.79,1.22,6.52,4.78,6.52,8.97Z"/>
    <path class="cls-4" d="M93.29,36.03c.45.13,3.14.83,5.76-.78,3.04-1.86,3.39-5.24,3.43-5.61"/>
    <path class="cls-4" d="M90.25,23.03c.05-.3.24-1.27,1.09-2.02,1.22-1.08,2.77-.82,2.96-.78"/>
  </g>
  <g>
    <circle class="cls-9" cx="133.6" cy="32.7" r="1.35"/>
    <path class="cls-1" d="M124.53,38.18c.35-.91,5.1-12.59,17.29-15.22,9.79-2.11,20.25,2.5,25.88,11.59-3.71,9.96-13.11,16.45-23.12,16.16-13-.38-19.73-11.95-20.05-12.53Z"/>
    <path class="cls-1" d="M175.22,24.45v20.68c-4.41-1.64-7.52-5.65-7.52-10.34s3.11-8.7,7.52-10.34Z"/>
    <path class="cls-7" d="M175.22,45.13v-20.68"/>
    <path class="cls-5" d="M139.7,37.56c-.6,4.16,2.53,7.51,5.54,7.54,3.05.04,6.29-3.32,5.69-7.54"/>
  </g>
</svg>